<svg xmlns="http://www.w3.org/2000/svg" width="16.85" height="13.586" viewBox="0 0 16.85 13.586">
  <g id="Altitude" transform="translate(-302.475 -638.646)">
    <path id="Tracé_18846" data-name="Tracé 18846" d="M318.36,638.674l-2.43.606-.166.042c-.108-.291-.221-.383-.415-.35s-.255.145-.267.52l-.168.042q-1.207.3-2.414.6a1.035,1.035,0,0,0-.212.077.32.32,0,0,0,.143.6.95.95,0,0,0,.224-.03q1.207-.3,2.414-.6l.2-.05c.051.2.1.384.138.569a.152.152,0,0,1-.053.118.874.874,0,0,0-.284.953c.025.1.049.2.075.3l-.583.145c-.015-.03-.028-.053-.038-.077a.791.791,0,0,0-1.23-.364,8.67,8.67,0,0,1-4.257,1.065c-.62-.013-.962.367-.9.887a.654.654,0,0,1,0,.089l-.578.144c-.024-.1-.046-.179-.065-.263a.88.88,0,0,0-.72-.744c-.032-.007-.078-.033-.085-.059-.053-.191-.1-.383-.15-.588l.209-.052q1.215-.3,2.429-.606c.266-.066.391-.225.342-.428s-.235-.285-.5-.222l-.111.028-2.35.586-.165.041c-.145-.3-.265-.392-.452-.343s-.252.186-.233.514l-.167.042c-.81.2-1.619.406-2.43.6a.438.438,0,0,0-.385.357l.039.159a.438.438,0,0,0,.508.137c.809-.206,1.619-.406,2.429-.608l.188-.047c.049.2.1.372.132.547a.185.185,0,0,1-.055.144.86.86,0,0,0-.284.909c.11.447.215.9.338,1.34a1.079,1.079,0,0,0,.193.386.908.908,0,0,0,1.142.183.857.857,0,0,0,.453-1.009c-.025-.114-.056-.227-.084-.338l.573-.143a.363.363,0,0,1,.031.048.776.776,0,0,0,1.062.538l.388-.1.048.049a.569.569,0,0,1-.066.218,3.982,3.982,0,0,0-.777,1.628,6.677,6.677,0,0,0-.015,2.708c.039.219.083.437.138.652a.325.325,0,0,0,.382.269.274.274,0,0,0,.027-.007.414.414,0,0,0,.058-.008l6.907-1.723h0a.568.568,0,0,0,.058-.021l.005,0,.04-.02a.345.345,0,0,0,.132-.416,8.37,8.37,0,0,0-.842-2.123,4.405,4.405,0,0,0-2.1-1.956c-.059-.024-.089-.117-.161-.216.255-.064.457-.1.651-.166a.722.722,0,0,0,.482-.792c-.007-.056-.011-.114-.017-.171l.579-.145c.031.124.056.239.089.352a.861.861,0,0,0,1.137.622.852.852,0,0,0,.646-1.094c-.107-.442-.219-.884-.33-1.325a.858.858,0,0,0-.675-.671c-.041-.01-.1-.037-.11-.068-.056-.19-.1-.383-.149-.581l2.611-.652c.291-.072.422-.23.368-.439S318.654,638.6,318.36,638.674Zm-3.052,7.866a7.238,7.238,0,0,1,.687,1.658l-6.314,1.574c-.009-.041-.019-.082-.027-.124a6.391,6.391,0,0,1-.051-2.5,3.282,3.282,0,0,1,.654-1.453.261.261,0,0,1,.135-.1c.3-.056.6-.1.906-.152.1-.017.194-.047.29-.071l.063.314-.077.021a.217.217,0,0,0-.153.261l.178.712a.217.217,0,0,0,.263.157l.837-.213a.216.216,0,0,0,.157-.261l-.182-.728a.215.215,0,0,0-.261-.157l-.1.024-.072-.292c.087-.022.165-.039.242-.061a5.061,5.061,0,0,0,.8-.244.373.373,0,0,1,.369,0A3.864,3.864,0,0,1,315.308,646.54Z" fill="#707071"/>
    <path id="Tracé_18847" data-name="Tracé 18847" d="M319.078,652.232H302.722a.247.247,0,0,1,0-.494h16.356a.247.247,0,0,1,0,.494Z" fill="#707071"/>
  </g>
</svg>
