<svg xmlns="http://www.w3.org/2000/svg" width="22" height="22" viewBox="0 0 22 22">
  <g id="CartographieUnelected" transform="translate(-655.749 -393.073)">
    <path id="Tracé_12574" data-name="Tracé 12574" d="M666.737,415.072q-3.644,0-7.287,0a3.653,3.653,0,0,1-3.627-2.962,3.774,3.774,0,0,1-.07-.75q-.006-7.287,0-14.573a3.657,3.657,0,0,1,3.7-3.71q7.3-.006,14.6,0a3.655,3.655,0,0,1,3.7,3.688q.008,7.309,0,14.618a3.657,3.657,0,0,1-3.7,3.688Q670.391,415.078,666.737,415.072Zm-9.52-16.021v5.389c0,2.314,0,4.628,0,6.942a2.168,2.168,0,0,0,1.862,2.186,5.69,5.69,0,0,0,.867.036c.839,0,1.679,0,2.534,0l2.684-13.419Zm19.064,1.243v-3.4a2.208,2.208,0,0,0-2.366-2.356H661.02c-.549,0-1.1-.007-1.649,0a2.129,2.129,0,0,0-2.035,1.526,9.555,9.555,0,0,0-.164,1.494Zm-12.3,13.311h9.966a2.206,2.206,0,0,0,2.338-2.341v-9.49l-9.662-1.38Z" fill="#282828"/>
    <path id="Tracé_12575" data-name="Tracé 12575" d="M671.128,401.858a4.372,4.372,0,0,1,3.418,7.031c-.9,1.236-1.846,2.432-2.776,3.643a.736.736,0,0,1-1.252-.011c-.924-1.2-1.852-2.408-2.767-3.62a4.359,4.359,0,0,1,2.63-6.955C670.634,401.895,670.9,401.884,671.128,401.858Zm.033,9.042c.027-.03.057-.061.084-.1.709-.928,1.425-1.851,2.125-2.785a2.946,2.946,0,0,0,.573-2.29,2.851,2.851,0,1,0-5.1,2.156c.712,1.028,1.511,2,2.271,2.991C671.117,410.886,671.135,410.888,671.161,410.9Z" fill="#282828"/>
    <path id="Tracé_12576" data-name="Tracé 12576" d="M672.614,406.277a1.466,1.466,0,1,1-1.467-1.47A1.469,1.469,0,0,1,672.614,406.277Z" fill="#282828"/>
  </g>
</svg>
