<svg id="Cone" xmlns="http://www.w3.org/2000/svg" width="42.366" height="58.912" viewBox="0 0 42.366 58.912">
  <path id="Tracé_31" data-name="Tracé 31" d="M342.01,403.237h-31.58l4.255-20.648,3.2-15.473,4.7-22.791h7.288l4.7,22.791,3.2,15.473Z" transform="translate(-305.041 -344.325)" fill="#55aaa0"/>
  <path id="Tracé_32" data-name="Tracé 32" d="M311,407.025l-7.056,7.427a1.764,1.764,0,0,0,1.276,2.979H344.07a1.764,1.764,0,0,0,1.276-2.979l-7.056-7.427Z" transform="translate(-303.464 -358.518)" fill="#55aaa0"/>
  <path id="Tracé_33" data-name="Tracé 33" d="M311,407.025l-7.056,7.427a1.764,1.764,0,0,0,1.276,2.979H344.07a1.764,1.764,0,0,0,1.276-2.979l-7.056-7.427Z" transform="translate(-303.464 -358.518)" opacity="0.2" style="mix-blend-mode: normal;isolation: isolate"/>
  <path id="Tracé_34" data-name="Tracé 34" d="M339,389.258h-23.07l3.2-15.473h16.68Z" transform="translate(-306.286 -350.994)" fill="#fff" opacity="0.4" style="mix-blend-mode: normal;isolation: isolate"/>
</svg>
