<svg xmlns="http://www.w3.org/2000/svg" width="14.188" height="18.24" viewBox="0 0 14.188 18.24">
  <path id="Delete" d="M-15.734,14.284l-1.433,1.433-1.444-1.436a1.01,1.01,0,0,0-1.427,0h0a1.011,1.011,0,0,0,0,1.43l1.441,1.433-1.433,1.435a1.009,1.009,0,0,0,0,1.429h0a1.012,1.012,0,0,0,1.429,0l1.433-1.435,1.433,1.435a1.012,1.012,0,0,0,1.429,0h0a1.009,1.009,0,0,0,0-1.429l-1.433-1.435,1.433-1.433a1.009,1.009,0,0,0,0-1.429h0A1.009,1.009,0,0,0-15.734,14.284Zm2.113-7.27L-14.633,6H-19.7l-1.012,1.014h-2.534a1.013,1.013,0,0,0-1.014,1.012h0A1.014,1.014,0,0,0-23.247,9.04h12.16a1.014,1.014,0,0,0,1.014-1.014h0a1.013,1.013,0,0,0-1.014-1.012Zm-9.626,15.2a2.032,2.032,0,0,0,2.026,2.026h8.108a2.032,2.032,0,0,0,2.026-2.026V10.054h-12.16Zm2.026-10.134h8.108V22.214h-8.108Z" transform="translate(24.261 -6)" fill="#fff"/>
</svg>
