<svg xmlns="http://www.w3.org/2000/svg" xmlns:xlink="http://www.w3.org/1999/xlink" width="40" height="40.011" viewBox="0 0 40 40.011">
  <defs>
    <clipPath id="clip-path">
      <path id="Tracé_12546" data-name="Tracé 12546" d="M322.82,268.279s-1.687-.369-1.933,1.2l-1.012,1.565.46,1.809a.887.887,0,0,0,.568.177,1.579,1.579,0,0,0,1.1,1.146l-.393,2.322-2.822.465-2.43-2.893-1.033-1.536.357-3.322,2.073-1.536,2.857-.358Z" fill="none"/>
    </clipPath>
    <clipPath id="clip-path-2">
      <path id="Tracé_12549" data-name="Tracé 12549" d="M327.822,268.279s1.687-.369,1.933,1.2l1.012,1.565-.46,1.809a.887.887,0,0,1-.568.177,1.579,1.579,0,0,1-1.1,1.146l.393,2.322,2.822.465,2.43-2.893,1.033-1.536-.357-3.322-2.073-1.536-2.857-.358Z" fill="none"/>
    </clipPath>
  </defs>
  <g id="Delimiter" transform="translate(-19.366 -277)">
    <path id="Tracé_12531" data-name="Tracé 12531" d="M-289.46,631.013a5,5,0,0,0-5.023-4.977,5,5,0,0,0-4.539,2.953l-4.268-.713-.42,2.467,4.29.715a5,5,0,0,0,3.084,4.18l-1.217,9.182a4.99,4.99,0,0,0-4.4,4.942v.019l-14.415,3.8a4.971,4.971,0,0,0-3.7-2.5l-2.55-20.425a5.01,5.01,0,0,0,2.727-2.615l3.864.646.42-2.464-3.895-.654a4.988,4.988,0,0,0-5.4-4.542,4.988,4.988,0,0,0-4.542,5.4,4.988,4.988,0,0,0,4.34,4.52l2.555,20.424a5,5,0,0,0-2.812,6.488,5,5,0,0,0,6.486,2.813,5,5,0,0,0,3.164-4.658v-.019l14.408-3.8a4.985,4.985,0,0,0,6.789,1.908,4.986,4.986,0,0,0,1.909-6.789,4.994,4.994,0,0,0-2.478-2.183l1.217-9.182A4.991,4.991,0,0,0-289.46,631.013Zm-35-2.5a2.5,2.5,0,0,1-2.5-2.5,2.5,2.5,0,0,1,2.5-2.5,2.5,2.5,0,0,1,2.5,2.5v0A2.5,2.5,0,0,1-324.457,628.513Zm3.75,29.992a2.5,2.5,0,0,1-2.5-2.5,2.5,2.5,0,0,1,2.5-2.5,2.5,2.5,0,0,1,2.5,2.5h0a2.5,2.5,0,0,1-2.494,2.506h-.007Zm26.248-8.75a2.5,2.5,0,0,1-2.5,2.5,2.5,2.5,0,0,1-2.5-2.5,2.5,2.5,0,0,1,2.5-2.5,2.5,2.5,0,0,1,2.5,2.5v0Zm-2.5-18.742a2.5,2.5,0,0,1,2.5-2.5,2.5,2.5,0,0,1,2.5,2.5,2.5,2.5,0,0,1-2.5,2.5h0A2.5,2.5,0,0,1-296.961,631.013Z" transform="translate(348.826 -344.008)" fill="#282828"/>
    <rect id="Rectangle_836" data-name="Rectangle 836" width="2.499" height="2.499" transform="translate(40.191 285.91) rotate(-80.5)" fill="#282828"/>
    <rect id="Rectangle_837" data-name="Rectangle 837" width="2.5" height="2.5" transform="matrix(0.165, -0.986, 0.986, 0.165, 35.254, 285.087)" fill="#282828"/>
    <g id="Groupe_1459" data-name="Groupe 1459" transform="translate(-285.638 24.707)">
      <g id="Groupe_1452" data-name="Groupe 1452">
        <path id="Tracé_12541" data-name="Tracé 12541" d="M316.554,275.813a.26.26,0,0,0,.041.363.256.256,0,0,0,.363-.041,3.628,3.628,0,0,1,1.7-1.114l.069-.306-.137-.2A4.329,4.329,0,0,0,316.554,275.813Z" fill="#55aaa0"/>
        <path id="Tracé_12542" data-name="Tracé 12542" d="M333.5,275.144a2.109,2.109,0,0,0-1.232-.875l-.324.413v.046a1.75,1.75,0,0,1,1.106.67,1.874,1.874,0,0,1-.22,2.313,2.965,2.965,0,0,1-1.782.486.256.256,0,0,0-.276.239.258.258,0,0,0,.239.276,3.408,3.408,0,0,0,2.14-.6A2.368,2.368,0,0,0,333.5,275.144Z" fill="#55aaa0"/>
        <path id="Tracé_12543" data-name="Tracé 12543" d="M329.093,275.894a3.906,3.906,0,0,1-1.335,1.923,2.97,2.97,0,0,1-2.694.475,3.133,3.133,0,0,1-1.483-1.2,9.841,9.841,0,0,0-2.03-1.938,4.171,4.171,0,0,0-1.163-.587l.063.57a3.849,3.849,0,0,1,.8.439,9.3,9.3,0,0,1,1.931,1.846,3.62,3.62,0,0,0,1.721,1.361,3.366,3.366,0,0,0,1.039.162,3.5,3.5,0,0,0,2.13-.72,4.4,4.4,0,0,0,1.51-2.171,2.1,2.1,0,0,1,.6-.959,5.56,5.56,0,0,0,.1-.688A2.419,2.419,0,0,0,329.093,275.894Z" fill="#55aaa0"/>
        <path id="Tracé_12552" data-name="Tracé 12552" d="M331.387,278.4v-.829l-1.262,1.069,1.355.474Z" fill="#55aaa0"/>
      </g>
      <g id="Groupe_1455" data-name="Groupe 1455">
        <g id="Groupe_1454" data-name="Groupe 1454" clip-path="url(#clip-path)">
          <g id="Groupe_1453" data-name="Groupe 1453">
            <path id="Tracé_12544" data-name="Tracé 12544" d="M318.546,276.442c-.1-.066-.112-.1-.071-.225a6.337,6.337,0,0,0,.337-1.329,2.568,2.568,0,0,0,.021-.276.2.2,0,0,0-.042-.1q-.471-.686-.945-1.367a.391.391,0,0,1,.035-.541.376.376,0,0,1,.529.014c.1.12.2.26.3.382.114.153.226.31.355.475.025-.183.048-.347.071-.51s.042-.32.069-.479a.436.436,0,0,1,.421-.357.423.423,0,0,1,.427.356c.036.235.056.475.085.712a.313.313,0,0,0,.007.044l.081-.056.826-.589a.374.374,0,0,1,.517.042l.013.015a.364.364,0,0,1,0,.45.759.759,0,0,1-.084.086l-1.2,1.052a.172.172,0,0,0-.063.14,4.341,4.341,0,0,0,.413,1.834c.053.114.041.154-.059.225Zm1.789-.26a.048.048,0,0,0,0-.024c-.01-.03-.02-.06-.032-.09a4.464,4.464,0,0,1-.322-1.773.236.236,0,0,1,.085-.189q.613-.535,1.221-1.076c.033-.029.075-.056.09-.091a.14.14,0,0,0,0-.123.206.206,0,0,0-.13-.03c-.021,0-.043.026-.064.041l-1.033.732c-.14.1-.238.056-.261-.113q-.047-.431-.09-.86c-.013-.117-.075-.189-.173-.192a.184.184,0,0,0-.185.181c-.026.179-.05.359-.075.54q-.043.338-.09.675c-.01.067-.027.131-.1.146a.153.153,0,0,1-.165-.08l-.016-.021-.706-.951a.607.607,0,0,0-.06-.074.128.128,0,0,0-.2.155c.013.022.028.042.043.065q.477.691.957,1.38a.333.333,0,0,1,.064.217,5.611,5.611,0,0,1-.3,1.461c-.01.032-.019.063-.03.1Z" fill="#55aaa0"/>
            <path id="Tracé_12545" data-name="Tracé 12545" d="M315.88,270.93a.827.827,0,0,1,.016-1.167h0a.816.816,0,0,1,.366-.207.191.191,0,0,0,.158-.14,1.6,1.6,0,0,1,1.539-1.024,2.223,2.223,0,0,1,.293.031.072.072,0,0,0,.092-.044h0a1.371,1.371,0,0,1,.811-.731,1.424,1.424,0,0,1,1.646.545.132.132,0,0,0,.165.074,1.423,1.423,0,0,1,1.627.894c.014.043.039.052.082.056a.865.865,0,0,1,.793.627.763.763,0,0,1-.062.588.1.1,0,0,0,0,.117,1.432,1.432,0,0,1-.4,1.986h0a1.4,1.4,0,0,1-.317.158c-.041.016-.077.025-.067.088a1.114,1.114,0,0,1-.31.955,1.494,1.494,0,0,1-1.147.5.491.491,0,0,1-.077,0,.127.127,0,0,1-.122-.131.126.126,0,0,1,.131-.121h0a2.169,2.169,0,0,0,.36-.03,1.153,1.153,0,0,0,.87-.74.782.782,0,0,0,.015-.469c-.039-.159-.014-.2.141-.245a1.18,1.18,0,0,0,.636-1.872.158.158,0,0,1-.01-.213.532.532,0,0,0,.044-.609.6.6,0,0,0-.569-.31c-.165,0-.181,0-.226-.16a1.178,1.178,0,0,0-1.46-.775c-.17.05-.185.04-.268-.109a1.164,1.164,0,0,0-2.046.017,1.612,1.612,0,0,0-.065.16c-.04.1-.086.13-.2.1a1.427,1.427,0,0,0-.836.011,1.285,1.285,0,0,0-.878.911.183.183,0,0,1-.179.153.572.572,0,0,0-.539.6.611.611,0,0,0,.051.207.708.708,0,0,0,.158.206c.112.114.112.17,0,.271a.89.89,0,0,0-.293.9.931.931,0,0,0,.7.711l.051.012a.178.178,0,0,1,.169.182,1.192,1.192,0,0,0,.354.7,1.344,1.344,0,0,0,.81.391l.055.01a.132.132,0,0,1,.114.13h0a.119.119,0,0,1-.122.116h-.026a2.58,2.58,0,0,1-.531-.138,1.512,1.512,0,0,1-.9-1.082.132.132,0,0,0-.075-.077,1.21,1.21,0,0,1-.889-1.25,1.123,1.123,0,0,1,.271-.669Z" fill="#55aaa0"/>
          </g>
        </g>
      </g>
      <g id="Groupe_1458" data-name="Groupe 1458">
        <g id="Groupe_1457" data-name="Groupe 1457" clip-path="url(#clip-path-2)">
          <g id="Groupe_1456" data-name="Groupe 1456">
            <path id="Tracé_12547" data-name="Tracé 12547" d="M330.055,276.441c-.1-.071-.112-.111-.059-.225a4.338,4.338,0,0,0,.413-1.834.169.169,0,0,0-.063-.14l-1.2-1.052a.843.843,0,0,1-.084-.085.365.365,0,0,1,0-.451l.013-.015a.374.374,0,0,1,.517-.042c.276.2.549.393.826.589l.081.056a.323.323,0,0,0,.007-.043c.029-.238.049-.478.085-.713a.424.424,0,0,1,.427-.356.436.436,0,0,1,.421.357c.027.159.045.317.069.479s.046.328.071.51c.129-.17.241-.322.355-.475.1-.122.188-.262.3-.382a.375.375,0,0,1,.529-.013.389.389,0,0,1,.035.54q-.474.681-.945,1.367a.2.2,0,0,0-.042.1,2.568,2.568,0,0,0,.021.276,6.335,6.335,0,0,0,.337,1.329c.041.12.03.159-.071.225Zm1.822-.254c-.012-.036-.02-.067-.03-.1a5.619,5.619,0,0,1-.3-1.461.333.333,0,0,1,.064-.217l.957-1.38c.014-.023.03-.043.043-.065a.128.128,0,0,0-.2-.155.61.61,0,0,0-.06.074l-.707.951-.015.02a.153.153,0,0,1-.165.081c-.077-.015-.094-.079-.1-.146q-.047-.338-.091-.675c-.024-.181-.048-.361-.074-.541a.184.184,0,0,0-.185-.18c-.1,0-.16.075-.173.192q-.044.429-.09.86c-.023.169-.121.213-.261.113l-1.033-.732c-.021-.015-.043-.041-.064-.041a.2.2,0,0,0-.13.03.133.133,0,0,0,0,.123c.014.035.057.062.09.091q.607.54,1.221,1.075a.239.239,0,0,1,.085.19,4.447,4.447,0,0,1-.323,1.773l-.032.09a.1.1,0,0,0,0,.024Z" fill="#55aaa0"/>
            <path id="Tracé_12548" data-name="Tracé 12548" d="M334.836,271.021a1.119,1.119,0,0,1,.272.669,1.21,1.21,0,0,1-.889,1.25.134.134,0,0,0-.076.077,1.508,1.508,0,0,1-.9,1.082,2.545,2.545,0,0,1-.531.138h-.024a.119.119,0,0,1-.123-.115h0a.131.131,0,0,1,.113-.13l.056-.01a1.349,1.349,0,0,0,.81-.391,1.185,1.185,0,0,0,.353-.7.18.18,0,0,1,.17-.182l.05-.012a.932.932,0,0,0,.706-.711.89.89,0,0,0-.293-.9c-.112-.1-.112-.157,0-.271a.708.708,0,0,0,.158-.206.588.588,0,0,0,.05-.207.571.571,0,0,0-.538-.6.185.185,0,0,1-.18-.153,1.281,1.281,0,0,0-.878-.911,1.426,1.426,0,0,0-.836-.011c-.1.027-.154,0-.2-.1-.018-.053-.04-.1-.064-.16a1.164,1.164,0,0,0-2.046-.017c-.083.149-.1.159-.268.109a1.179,1.179,0,0,0-1.461.775c-.044.16-.061.16-.225.16a.6.6,0,0,0-.569.31.532.532,0,0,0,.043.609.157.157,0,0,1-.009.213,1.18,1.18,0,0,0,.2,1.656,1.194,1.194,0,0,0,.439.216c.155.046.181.086.142.245a.79.79,0,0,0,.014.469,1.156,1.156,0,0,0,.87.74,2.181,2.181,0,0,0,.361.03h0a.126.126,0,0,1,.009.252.5.5,0,0,1-.077,0,1.494,1.494,0,0,1-1.147-.5,1.111,1.111,0,0,1-.31-.955c.009-.063-.026-.072-.067-.088a1.4,1.4,0,0,1-.317-.158h0a1.432,1.432,0,0,1-.4-1.986.1.1,0,0,0,0-.117.759.759,0,0,1-.062-.588.865.865,0,0,1,.792-.627.074.074,0,0,0,.083-.056,1.421,1.421,0,0,1,1.627-.894.131.131,0,0,0,.164-.074,1.425,1.425,0,0,1,1.647-.545,1.371,1.371,0,0,1,.811.731h0a.072.072,0,0,0,.092.045h0a2.208,2.208,0,0,1,.292-.031,1.6,1.6,0,0,1,1.54,1.023.189.189,0,0,0,.158.141.813.813,0,0,1,.365.207h0a.826.826,0,0,1,.017,1.167Z" fill="#55aaa0"/>
          </g>
        </g>
      </g>
      <path id="Tracé_12550" data-name="Tracé 12550" d="M324.06,277.248c-.118-.077-.133-.123-.084-.262a7.327,7.327,0,0,0,.393-1.55,2.873,2.873,0,0,0,.024-.321.238.238,0,0,0-.048-.116q-.549-.8-1.1-1.592a.456.456,0,0,1,.041-.629.437.437,0,0,1,.618.014l0,0c.126.139.232.3.346.445.131.178.261.355.413.554.03-.214.056-.4.083-.594s.048-.373.08-.558a.5.5,0,0,1,.49-.413.491.491,0,0,1,.5.413c.042.275.065.553.1.826a.438.438,0,0,0,.009.052l.094-.065c.321-.23.639-.455.96-.686a.436.436,0,0,1,.606.047l.016.019a.421.421,0,0,1,0,.524,1.112,1.112,0,0,1-.1.1l-1.394,1.225a.2.2,0,0,0-.072.163,5.056,5.056,0,0,0,.477,2.136c.061.131.047.178-.069.262Zm2.083-.3a.121.121,0,0,0,0-.027c-.012-.036-.024-.07-.038-.1a5.217,5.217,0,0,1-.375-2.066.28.28,0,0,1,.1-.22q.714-.62,1.422-1.252c.038-.034.088-.066.1-.1a.163.163,0,0,0,0-.143.233.233,0,0,0-.152-.035c-.024,0-.05.031-.074.048l-1.2.851c-.163.117-.276.066-.3-.13-.035-.335-.07-.669-.1-1-.016-.137-.088-.221-.207-.225a.216.216,0,0,0-.215.207c-.03.207-.058.413-.087.629l-.1.787c-.011.077-.032.151-.12.17a.178.178,0,0,1-.193-.094l-.018-.025-.826-1.106a.86.86,0,0,0-.07-.087.149.149,0,0,0-.232.18c.016.026.033.051.05.076q.555.806,1.115,1.607a.389.389,0,0,1,.074.253,6.507,6.507,0,0,1-.349,1.7c-.012.036-.021.072-.035.115Z" fill="#55aaa0"/>
      <path id="Tracé_12551" data-name="Tracé 12551" d="M320.954,270.835a.962.962,0,0,1,.02-1.36v-.005a.956.956,0,0,1,.426-.237.222.222,0,0,0,.183-.164,1.862,1.862,0,0,1,1.793-1.192,2.8,2.8,0,0,1,.341.036.082.082,0,0,0,.1-.051h0a1.592,1.592,0,0,1,.944-.852,1.66,1.66,0,0,1,1.919.635.151.151,0,0,0,.191.086,1.651,1.651,0,0,1,1.894,1.041c.017.05.046.061.1.065a1.007,1.007,0,0,1,.923.73.878.878,0,0,1-.072.684.116.116,0,0,0,0,.137,1.668,1.668,0,0,1-.461,2.312h0a1.737,1.737,0,0,1-.368.185c-.049.018-.09.028-.08.1a1.287,1.287,0,0,1-.355,1.111,1.732,1.732,0,0,1-1.335.58.686.686,0,0,1-.091,0,.148.148,0,0,1,.011-.294h0a2.367,2.367,0,0,0,.42-.036,1.343,1.343,0,0,0,1.013-.86.912.912,0,0,0,.016-.547c-.045-.185-.014-.231.165-.285a1.369,1.369,0,0,0,1-1.662,1.355,1.355,0,0,0-.255-.517.183.183,0,0,1-.01-.247.62.62,0,0,0,.05-.71.7.7,0,0,0-.663-.361c-.191,0-.206,0-.262-.187a1.373,1.373,0,0,0-1.7-.9c-.2.057-.215.047-.309-.128a1.358,1.358,0,0,0-2.384.021,1.864,1.864,0,0,0-.074.187c-.048.118-.1.152-.227.118a1.675,1.675,0,0,0-.974.013,1.5,1.5,0,0,0-1.023,1.062.215.215,0,0,1-.207.178.661.661,0,0,0-.626.694.644.644,0,0,0,.06.244.8.8,0,0,0,.183.234c.13.133.13.2,0,.317a1.032,1.032,0,0,0-.341,1.048,1.088,1.088,0,0,0,.826.827l.06.014a.208.208,0,0,1,.2.207,1.392,1.392,0,0,0,.413.813,1.552,1.552,0,0,0,.943.454.171.171,0,0,1,.065.013.152.152,0,0,1,.132.152h0a.139.139,0,0,1-.142.134h-.029a3.156,3.156,0,0,1-.62-.16,1.759,1.759,0,0,1-1.049-1.261.147.147,0,0,0-.088-.088,1.415,1.415,0,0,1-1.034-1.456,1.308,1.308,0,0,1,.318-.78Z" fill="#55aaa0"/>
    </g>
  </g>
</svg>
