<svg xmlns="http://www.w3.org/2000/svg" width="40" height="42.906" viewBox="0 0 40 42.906">
  <g id="Dessiner" transform="translate(-292.889 -423.461)">
    <path id="Tracé_12539" data-name="Tracé 12539" d="M328.136,466.367a1.272,1.272,0,0,1-.895-.8,9.735,9.735,0,0,0-7.479-6.2,19.373,19.373,0,0,0-4.682-.553,12.384,12.384,0,0,0-6.426,1.871c-1.553.959-3.033,2.038-4.573,3.021a14.364,14.364,0,0,1-5.156,2.107,5.669,5.669,0,0,1-4.278-.64,4.134,4.134,0,0,1-1.111-5.646,7.846,7.846,0,0,1,3.181-2.891,17.66,17.66,0,0,1,1.986-.874,1.01,1.01,0,0,1,1.452.621,1.109,1.109,0,0,1-.674,1.5,9.576,9.576,0,0,0-2.85,1.553,7.259,7.259,0,0,0-.846.808,2.037,2.037,0,0,0-.373,2.5,2.092,2.092,0,0,0,2.312,1.062,16.962,16.962,0,0,0,2.837-.824,14.927,14.927,0,0,0,3.647-2.105,23.223,23.223,0,0,1,5.86-3.358,16.078,16.078,0,0,1,10.746-.294,14.734,14.734,0,0,1,4.933,2.5,11.546,11.546,0,0,1,3.692,5.278c.218.617,0,.955-.8,1.374Z" fill="#55aaa0"/>
    <path id="Tracé_12540" data-name="Tracé 12540" d="M302.165,455.343a1.132,1.132,0,0,1-1.126-1.4c.352-1.82.717-3.639,1.076-5.458.268-1.354.544-2.707.8-4.063a2.071,2.071,0,0,1,.593-1.121q9.663-9.651,19.317-19.31a1.2,1.2,0,0,1,1.979,0q3.777,3.775,7.553,7.553a1.207,1.207,0,0,1-.016,2.008q-9.641,9.642-19.279,19.287a2.087,2.087,0,0,1-1.117.6q-4.7.922-9.4,1.862C302.414,455.321,302.274,455.33,302.165,455.343Zm2.888-9.973c-.324,1.631-.65,3.24-.954,4.853a.58.58,0,0,0,.154.429c.458.488.927.967,1.421,1.419a.733.733,0,0,0,.535.162c.66-.1,1.314-.243,1.97-.374.939-.187,1.876-.378,2.8-.565Z" fill="#282828"/>
  </g>
</svg>
