<svg xmlns="http://www.w3.org/2000/svg" width="16.85" height="16.85" viewBox="0 0 16.85 16.85">
  <g id="Distance" transform="translate(-303.591 -436.572)">
    <g id="Groupe_2018" data-name="Groupe 2018" transform="translate(303.591 436.572)">
      <path id="Tracé_18285" data-name="Tracé 18285" d="M308.142,445.752l.162.969a1.889,1.889,0,0,0-1.164.678,1.918,1.918,0,0,0,1.472,3.129c.888.014,1.777,0,2.665,0h3.334v1h-.174q-2.862,0-5.724,0a2.907,2.907,0,0,1-.571-5.773Z" transform="translate(-303.726 -437.158)" fill="#707071"/>
      <path id="Tracé_18286" data-name="Tracé 18286" d="M309.957,440.208v-.992h.18q2.879,0,5.756,0a2.907,2.907,0,0,1,.541,5.774l-.165-.961c.081-.022.159-.043.236-.066a1.917,1.917,0,0,0-.56-3.754q-2.879-.006-5.757,0Z" transform="translate(-303.998 -436.741)" fill="#707071"/>
      <path id="Tracé_18287" data-name="Tracé 18287" d="M308.521,438.668a2.477,2.477,0,0,0-4.846-.239c-.033.125-.055.254-.083.381v.461c.029.116.055.232.086.347a5.228,5.228,0,0,0,.793,1.577,11.792,11.792,0,0,0,1.621,1.869c.089-.1.169-.2.257-.286a9.882,9.882,0,0,0,1.869-2.506A2.622,2.622,0,0,0,308.521,438.668Zm-2.451,1.548a1.17,1.17,0,1,1,1.17-1.17A1.17,1.17,0,0,1,306.07,440.216Z" transform="translate(-303.591 -436.572)" fill="#707071"/>
      <path id="Tracé_18288" data-name="Tracé 18288" d="M320.633,448.5a2.354,2.354,0,0,0-2.421-.787,2.442,2.442,0,0,0-1.749,3.255,7.575,7.575,0,0,0,1.378,2.167c.291.341.606.661.91.99h.033c.334-.362.681-.712,1-1.088a7.06,7.06,0,0,0,1.287-2.051A2.317,2.317,0,0,0,320.633,448.5Zm-1.857,2.814a1.171,1.171,0,1,1,1.17-1.171A1.17,1.17,0,0,1,318.776,451.318Z" transform="translate(-304.403 -437.279)" fill="#707071"/>
    </g>
    <g id="Groupe_2019" data-name="Groupe 2019" transform="translate(308.43 441.402)">
      <path id="Tracé_18289" data-name="Tracé 18289" d="M308.76,447.725c.019-.069.035-.139.056-.208a1.314,1.314,0,0,1,1.753-.809l.086.04c-.057.052-.108.1-.164.146-.014.011-.047.006-.068,0a1.086,1.086,0,1,0,.709,1.228,1.051,1.051,0,0,0-.039-.551.091.091,0,0,1,.022-.11c.04-.038.076-.081.12-.128a1.146,1.146,0,0,1,.132.429,1.307,1.307,0,0,1-1.082,1.454.143.143,0,0,0-.025.011h-.392a.308.308,0,0,0-.038-.013,1.3,1.3,0,0,1-1.034-.96c-.013-.044-.023-.089-.035-.134Z" transform="translate(-308.76 -442.043)" fill="#707071"/>
      <path id="Tracé_18290" data-name="Tracé 18290" d="M314.833,449.225c-.1-.022-.2-.039-.3-.069a1.307,1.307,0,0,1-.787-1.77c.008-.016.017-.032.029-.054.049.054.1.1.138.155a.1.1,0,0,1,0,.081,1.081,1.081,0,0,0,.513,1.306,1.032,1.032,0,0,0,1.172-.094,1.02,1.02,0,0,0,.4-1.113,1.036,1.036,0,0,0-.849-.813,1,1,0,0,0-.558.041.08.08,0,0,1-.1-.02c-.04-.042-.085-.079-.134-.124a1.106,1.106,0,0,1,.42-.132,1.306,1.306,0,1,1,.321,2.593.539.539,0,0,0-.053.012Z" transform="translate(-309.071 -442.043)" fill="#707071"/>
      <path id="Tracé_18291" data-name="Tracé 18291" d="M308.76,442.914a3.458,3.458,0,0,1,.12-.407,1.306,1.306,0,0,1,2.391,1.049l-.023.051c0,.006-.008.01-.016.021a1.861,1.861,0,0,1-.136-.153.1.1,0,0,1,0-.081,1.079,1.079,0,0,0-.525-1.312,1.084,1.084,0,1,0-.74,2.019,1,1,0,0,0,.586-.032.09.09,0,0,1,.11.022c.037.04.081.076.128.12a1.124,1.124,0,0,1-.428.132,1.3,1.3,0,0,1-1.454-1.122.221.221,0,0,0-.012-.04Z" transform="translate(-308.76 -441.732)" fill="#707071"/>
      <path id="Tracé_18292" data-name="Tracé 18292" d="M314.136,443.386a.672.672,0,0,0,.363.362l-.059.042a2.447,2.447,0,0,0-.772.78,1.74,1.74,0,0,0,.263,2.066c.161.163.351.3.529.446l.039.03a.662.662,0,0,0-.355.342c-.16-.184-.311-.378-.484-.549a1.733,1.733,0,0,0-2.4-.008c-.178.172-.331.371-.5.556a.637.637,0,0,0-.331-.331c.184-.163.381-.314.551-.491a1.74,1.74,0,0,0,.1-2.293,2.674,2.674,0,0,0-.608-.544l-.066-.045a.671.671,0,0,0,.365-.365,3.091,3.091,0,0,0,.484.583,1.74,1.74,0,0,0,2.4-.008c.164-.16.3-.35.447-.527C314.112,443.42,314.121,443.406,314.136,443.386Z" transform="translate(-308.865 -441.837)" fill="#707071"/>
      <path id="Tracé_18293" data-name="Tracé 18293" d="M314.347,444.2a.277.277,0,0,0,.052-.037.227.227,0,0,1,.275-.079,1.082,1.082,0,1,0-.765-.715.119.119,0,0,1-.031.146c-.036.033-.068.07-.1.107a1.3,1.3,0,0,1,.315-1.585,1.313,1.313,0,0,1,1.9,1.786A1.311,1.311,0,0,1,314.347,444.2Z" transform="translate(-309.071 -441.732)" fill="#707071"/>
      <path id="Tracé_18294" data-name="Tracé 18294" d="M310.548,447.978a.419.419,0,0,1-.418.419.424.424,0,0,1-.421-.418.419.419,0,0,1,.424-.42A.415.415,0,0,1,310.548,447.978Z" transform="translate(-308.821 -442.104)" fill="#707071"/>
      <path id="Tracé_18295" data-name="Tracé 18295" d="M310.548,443.1a.42.42,0,1,1-.84,0,.425.425,0,0,1,.42-.42A.419.419,0,0,1,310.548,443.1Z" transform="translate(-308.821 -441.793)" fill="#707071"/>
      <path id="Tracé_18296" data-name="Tracé 18296" d="M314.583,443.1a.419.419,0,0,1,.418-.419.424.424,0,0,1,.421.418.419.419,0,1,1-.839,0Z" transform="translate(-309.132 -441.793)" fill="#707071"/>
      <path id="Tracé_18297" data-name="Tracé 18297" d="M315,447.559a.418.418,0,0,1,.418.418.423.423,0,0,1-.418.42.419.419,0,0,1-.42-.424A.414.414,0,0,1,315,447.559Z" transform="translate(-309.132 -442.104)" fill="#707071"/>
    </g>
  </g>
</svg>
