<svg id="Drone" xmlns="http://www.w3.org/2000/svg" width="134.945" height="49.072" viewBox="0 0 134.945 49.072">
  <ellipse id="Ellipse_1" data-name="Ellipse 1" cx="16.803" cy="2.352" rx="16.803" ry="2.352" transform="translate(101.338 8.68)" fill="#55aaa0"/>
  <ellipse id="Ellipse_2" data-name="Ellipse 2" cx="16.803" cy="2.352" rx="16.803" ry="2.352" transform="translate(101.338 8.68)" fill="#fff" opacity="0.4" style="mix-blend-mode: normal;isolation: isolate"/>
  <path id="Tracé_4" data-name="Tracé 4" d="M369.951,129.605c.99-.085,2-.093,2.978-.255l1.485-.2,1.47-.286a13.31,13.31,0,0,0,1.462-.34c.48-.132.967-.232,1.447-.387a33.551,33.551,0,0,0,5.57-2.228,28.27,28.27,0,0,0,2.948-1.733h-2.53a1.547,1.547,0,1,1,0-3.095h11.666a1.547,1.547,0,1,1,0,3.095h-4.123l-.658,1.547a1.129,1.129,0,0,1-2.081,0l-.3-.7a28.76,28.76,0,0,1-3.915,2.715,36.338,36.338,0,0,1-5.8,2.723c-.5.186-1.013.333-1.547.5a15.56,15.56,0,0,1-1.547.456l-1.547.395-1.547.309c-1.052.232-2.12.309-3.187.456s-2.143.147-3.211.224v-3.172C367.955,129.621,368.961,129.652,369.951,129.605Z" transform="translate(-272.473 -109.267)" fill="#55aaa0"/>
  <path id="Tracé_5" data-name="Tracé 5" d="M369.951,129.605c.99-.085,2-.093,2.978-.255l1.485-.2,1.47-.286a13.31,13.31,0,0,0,1.462-.34c.48-.132.967-.232,1.447-.387a33.551,33.551,0,0,0,5.57-2.228,28.27,28.27,0,0,0,2.948-1.733h-2.53a1.547,1.547,0,1,1,0-3.095h11.666a1.547,1.547,0,1,1,0,3.095h-4.123l-.658,1.547a1.129,1.129,0,0,1-2.081,0l-.3-.7a28.76,28.76,0,0,1-3.915,2.715,36.338,36.338,0,0,1-5.8,2.723c-.5.186-1.013.333-1.547.5a15.56,15.56,0,0,1-1.547.456l-1.547.395-1.547.309c-1.052.232-2.12.309-3.187.456s-2.143.147-3.211.224v-3.172C367.955,129.621,368.961,129.652,369.951,129.605Z" transform="translate(-272.473 -109.267)" opacity="0.2" style="mix-blend-mode: normal;isolation: isolate"/>
  <ellipse id="Ellipse_3" data-name="Ellipse 3" cx="16.803" cy="2.352" rx="16.803" ry="2.352" transform="translate(15.86 8.68)" fill="#55aaa0"/>
  <ellipse id="Ellipse_4" data-name="Ellipse 4" cx="16.803" cy="2.352" rx="16.803" ry="2.352" transform="translate(15.86 8.68)" fill="#fff" opacity="0.4" style="mix-blend-mode: normal;isolation: isolate"/>
  <path id="Tracé_6" data-name="Tracé 6" d="M305.547,129.605c-.99-.085-2-.093-2.979-.255l-1.485-.2-1.47-.286a13.22,13.22,0,0,1-1.454-.34c-.487-.132-.975-.232-1.454-.387a33.794,33.794,0,0,1-5.562-2.228,27.612,27.612,0,0,1-2.955-1.733h2.53a1.547,1.547,0,1,0,0-3.095H279.057a1.547,1.547,0,1,0,0,3.095h4.116l.658,1.547a1.13,1.13,0,0,0,2.081,0l.3-.7a29.184,29.184,0,0,0,3.915,2.715,36.088,36.088,0,0,0,5.81,2.723c.5.186,1.013.333,1.547.5a15.623,15.623,0,0,0,1.547.456l1.547.395,1.547.309c1.052.232,2.128.309,3.187.456s2.143.147,3.218.224v-3.172C307.542,129.621,306.545,129.652,305.547,129.605Z" transform="translate(-252.22 -109.267)" fill="#55aaa0"/>
  <path id="Tracé_7" data-name="Tracé 7" d="M305.547,129.605c-.99-.085-2-.093-2.979-.255l-1.485-.2-1.47-.286a13.22,13.22,0,0,1-1.454-.34c-.487-.132-.975-.232-1.454-.387a33.794,33.794,0,0,1-5.562-2.228,27.612,27.612,0,0,1-2.955-1.733h2.53a1.547,1.547,0,1,0,0-3.095H279.057a1.547,1.547,0,1,0,0,3.095h4.116l.658,1.547a1.13,1.13,0,0,0,2.081,0l.3-.7a29.184,29.184,0,0,0,3.915,2.715,36.088,36.088,0,0,0,5.81,2.723c.5.186,1.013.333,1.547.5a15.623,15.623,0,0,0,1.547.456l1.547.395,1.547.309c1.052.232,2.128.309,3.187.456s2.143.147,3.218.224v-3.172C307.542,129.621,306.545,129.652,305.547,129.605Z" transform="translate(-252.22 -109.267)" opacity="0.2" style="mix-blend-mode: normal;isolation: isolate"/>
  <ellipse id="Ellipse_5" data-name="Ellipse 5" cx="18.629" cy="2.599" rx="18.629" ry="2.599" transform="translate(0)" fill="#55aaa0"/>
  <ellipse id="Ellipse_6" data-name="Ellipse 6" cx="18.629" cy="2.599" rx="18.629" ry="2.599" transform="translate(0)" fill="#fff" opacity="0.7" style="mix-blend-mode: normal;isolation: isolate"/>
  <path id="Tracé_8" data-name="Tracé 8" d="M260.054,113.691h12.927A1.694,1.694,0,0,0,274.676,112h0a1.694,1.694,0,0,0-1.694-1.694H260.054A1.694,1.694,0,0,0,258.36,112h0A1.694,1.694,0,0,0,260.054,113.691Z" transform="translate(-247.885 -106.829)" fill="#55aaa0"/>
  <path id="Tracé_9" data-name="Tracé 9" d="M270.54,113.43l-1.184,2.715a1.253,1.253,0,0,1-2.321,0l-1.145-2.708Z" transform="translate(-249.59 -107.535)" fill="#55aaa0"/>
  <path id="Tracé_10" data-name="Tracé 10" d="M270.509,112.73a33.417,33.417,0,0,0,4.843,5.539,32.876,32.876,0,0,0,5.926,4.332,31.078,31.078,0,0,0,3.265,1.609c.557.224,1.137.4,1.7.6.286.1.565.209.851.294l.874.209a26.77,26.77,0,0,0,7.094.812V130a30.056,30.056,0,0,1-8.046-1.385l-.975-.294-.936-.387c-.627-.263-1.261-.5-1.872-.774a33.842,33.842,0,0,1-3.5-1.988,35.331,35.331,0,0,1-6.189-5.06,38.25,38.25,0,0,1-2.6-2.994,29.234,29.234,0,0,1-2.282-3.3Z" transform="translate(-250.217 -107.376)" fill="#55aaa0"/>
  <path id="Tracé_11" data-name="Tracé 11" d="M304.4,167.808H293.614a3.924,3.924,0,0,1-3.52-2.174l-.5-.99a1.16,1.16,0,0,1,2.073-1.037l.5.99a1.6,1.6,0,0,0,1.447.89H304.4a1.609,1.609,0,0,0,1.447-.89l.5-.99a1.16,1.16,0,1,1,2.124.934.983.983,0,0,1-.051.1l-.5.99A3.923,3.923,0,0,1,304.4,167.808Z" transform="translate(-254.932 -118.736)" fill="#55aaa0"/>
  <path id="Tracé_12" data-name="Tracé 12" d="M307.1,164.162a1.16,1.16,0,0,1-.967-1.8l9.9-14.978a1.16,1.16,0,1,1,2,1.17,1.06,1.06,0,0,1-.07.107l-9.9,14.985A1.175,1.175,0,0,1,307.1,164.162Z" transform="translate(-258.655 -115.09)" fill="#55aaa0"/>
  <path id="Tracé_13" data-name="Tracé 13" d="M294.472,164.094a1.112,1.112,0,0,1-.627-.193,1.153,1.153,0,0,1-.346-1.593l.005-.009,9.964-15.233a1.16,1.16,0,0,1,1.984,1.2c-.013.022-.028.044-.043.066l-9.933,15.233A1.169,1.169,0,0,1,294.472,164.094Z" transform="translate(-255.798 -115.022)" fill="#55aaa0"/>
  <path id="Tracé_14" data-name="Tracé 14" d="M369.98,167.808H359.234a3.924,3.924,0,0,1-3.52-2.174l-.5-.99a1.16,1.16,0,0,1,2.073-1.037l.5.99a1.609,1.609,0,0,0,1.447.89h10.784a1.6,1.6,0,0,0,1.447-.89l.5-.99a1.16,1.16,0,1,1,2.124.934c-.016.036-.033.07-.051.1l-.5.99A3.921,3.921,0,0,1,369.98,167.808Z" transform="translate(-269.787 -118.736)" fill="#55aaa0"/>
  <path id="Tracé_15" data-name="Tracé 15" d="M358.493,164.162a1.16,1.16,0,0,1-.967-.518l-9.9-14.985a1.16,1.16,0,1,1,1.864-1.383,1.108,1.108,0,0,1,.07.107l9.9,14.978a1.161,1.161,0,0,1-.967,1.8Z" transform="translate(-268.039 -115.09)" fill="#55aaa0"/>
  <path id="Tracé_16" data-name="Tracé 16" d="M371.087,164.094a1.167,1.167,0,0,1-.975-.526l-9.933-15.233a1.161,1.161,0,1,1,1.9-1.335c.015.022.029.043.043.066l9.933,15.233a1.153,1.153,0,0,1-.332,1.6l-.009.005A1.112,1.112,0,0,1,371.087,164.094Z" transform="translate(-270.885 -115.022)" fill="#55aaa0"/>
  <rect id="Rectangle_683" data-name="Rectangle 683" width="2.762" height="7.272" transform="translate(65.279 32.678)" fill="#263238"/>
  <path id="Tracé_17" data-name="Tracé 17" d="M350.71,129.223a112.485,112.485,0,0,0-23.735-1.447,112.464,112.464,0,0,0-23.727,1.447,2.971,2.971,0,0,0-2.367,2.816v8.425a2.971,2.971,0,0,0,2.367,2.816,111.947,111.947,0,0,0,23.727,1.439,111.969,111.969,0,0,0,23.735-1.439,2.986,2.986,0,0,0,2.367-2.816v-8.409A2.986,2.986,0,0,0,350.71,129.223Z" transform="translate(-257.51 -110.757)" fill="#55aaa0"/>
  <path id="Tracé_18" data-name="Tracé 18" d="M350.71,129.223a112.485,112.485,0,0,0-23.735-1.447,112.464,112.464,0,0,0-23.727,1.447,2.971,2.971,0,0,0-2.367,2.816v8.425a2.971,2.971,0,0,0,2.367,2.816,111.947,111.947,0,0,0,23.727,1.439,111.969,111.969,0,0,0,23.735-1.439,2.986,2.986,0,0,0,2.367-2.816v-8.409A2.986,2.986,0,0,0,350.71,129.223Z" transform="translate(-257.51 -110.757)" fill="#fff" opacity="0.2" style="mix-blend-mode: normal;isolation: isolate"/>
  <path id="Tracé_19" data-name="Tracé 19" d="M333.378,152.1a5.033,5.033,0,1,1-.012-.016Z" transform="translate(-262.815 -115.839)" fill="#55aaa0"/>
  <path id="Tracé_20" data-name="Tracé 20" d="M327.532,158.142a2,2,0,0,1,0,2.832,2.043,2.043,0,0,1-2.731-.774,2.018,2.018,0,0,1,0-2.839A2.054,2.054,0,0,1,327.532,158.142Z" transform="translate(-262.794 -117.418)" fill="#55aaa0"/>
  <path id="Tracé_21" data-name="Tracé 21" d="M327.532,158.142a2,2,0,0,1,0,2.832,2.043,2.043,0,0,1-2.731-.774,2.018,2.018,0,0,1,0-2.839A2.054,2.054,0,0,1,327.532,158.142Z" transform="translate(-262.794 -117.418)" fill="#fff" opacity="0.2" style="mix-blend-mode: normal;isolation: isolate"/>
  <path id="Tracé_22" data-name="Tracé 22" d="M327.2,158.715a1.222,1.222,0,1,1-1.88-.534A1.408,1.408,0,0,1,327.2,158.715Z" transform="translate(-262.933 -117.627)" fill="#263238"/>
  <path id="Tracé_23" data-name="Tracé 23" d="M366.027,140.289a.387.387,0,0,1-.387-.387v-4.936a.387.387,0,1,1,.774,0V139.9A.394.394,0,0,1,366.027,140.289Z" transform="translate(-272.17 -112.323)" fill="#263238"/>
  <path id="Tracé_24" data-name="Tracé 24" d="M364.387,140.289A.387.387,0,0,1,364,139.9v-4.936a.387.387,0,1,1,.774,0V139.9A.394.394,0,0,1,364.387,140.289Z" transform="translate(-271.798 -112.323)" fill="#263238"/>
  <path id="Tracé_25" data-name="Tracé 25" d="M362.747,140.289a.387.387,0,0,1-.387-.387v-4.936a.387.387,0,1,1,.774,0V139.9A.387.387,0,0,1,362.747,140.289Z" transform="translate(-271.427 -112.323)" fill="#263238"/>
  <path id="Tracé_26" data-name="Tracé 26" d="M312.659,134.21a1.122,1.122,0,0,0,1.037.712h15.883a1.114,1.114,0,0,0,.959-.549l3.628-6.235a112.338,112.338,0,0,0-23.7.371Z" transform="translate(-259.681 -110.761)" fill="#fff" opacity="0.2" style="mix-blend-mode: normal;isolation: isolate"/>
  <path id="Tracé_27" data-name="Tracé 27" d="M340.564,129.417c-2.151-.364-4.317-.658-6.483-.9l-4.069,6.963a3,3,0,0,1-2.6,1.5H311.53a3.017,3.017,0,0,1-2.808-1.934l-2.36-6.127c-1.037.147-2.073.3-3.095.48a2.971,2.971,0,0,0-2.367,2.816v8.425a2.971,2.971,0,0,0,2.367,2.816,112.279,112.279,0,0,0,37.312,0,2.978,2.978,0,0,0,2.375-2.816v-8.394A2.979,2.979,0,0,0,340.564,129.417Zm-8.084,11.6a1.1,1.1,0,1,1,1.1-1.1,1.1,1.1,0,0,1-1.1,1.1Zm4.263,0a1.091,1.091,0,1,1,.016,0Z" transform="translate(-257.515 -110.951)" fill="#fff" opacity="0.2" style="mix-blend-mode: normal;isolation: isolate"/>
  <ellipse id="Ellipse_7" data-name="Ellipse 7" cx="18.629" cy="2.599" rx="18.629" ry="2.599" transform="translate(92.558)" fill="#55aaa0"/>
  <ellipse id="Ellipse_8" data-name="Ellipse 8" cx="18.629" cy="2.599" rx="18.629" ry="2.599" transform="translate(92.558)" fill="#fff" opacity="0.7" style="mix-blend-mode: normal;isolation: isolate"/>
  <path id="Tracé_28" data-name="Tracé 28" d="M392.622,113.691H379.694A1.694,1.694,0,0,1,378,112h0a1.694,1.694,0,0,1,1.694-1.694h12.927A1.694,1.694,0,0,1,394.316,112h0A1.694,1.694,0,0,1,392.622,113.691Z" transform="translate(-274.967 -106.829)" fill="#55aaa0"/>
  <path id="Tracé_29" data-name="Tracé 29" d="M385.55,113.43l1.184,2.715a1.253,1.253,0,0,0,2.321,0l1.145-2.708Z" transform="translate(-276.676 -107.535)" fill="#55aaa0"/>
  <path id="Tracé_30" data-name="Tracé 30" d="M381.024,113.8a29.226,29.226,0,0,1-2.282,3.3,38.238,38.238,0,0,1-2.6,2.994,35.33,35.33,0,0,1-6.189,5.06,33.84,33.84,0,0,1-3.5,1.988c-.611.286-1.246.526-1.872.774l-.936.387-.975.294a30.087,30.087,0,0,1-8.046,1.385v-3.868a26.768,26.768,0,0,0,7.094-.812l.874-.209c.286-.085.565-.193.851-.294.565-.2,1.145-.379,1.7-.6a30.3,30.3,0,0,0,3.257-1.609,32.666,32.666,0,0,0,5.934-4.332,33.415,33.415,0,0,0,4.843-5.539Z" transform="translate(-269.675 -107.372)" fill="#55aaa0"/>
</svg>
