<svg xmlns="http://www.w3.org/2000/svg" width="308.772" height="370.917" viewBox="0 0 308.772 370.917">
  <g id="DronePilot" transform="translate(-48.039 -48.482)">
    <g id="Tracé" transform="translate(48.039 69.021)">
      <path id="Tracé_2" data-name="Tracé 2" d="M356.766,301.669c-23.576,50.208-107.289,43.115-139.6,7.811s-42.8-57.917-71.951-44.753-66.294,9.66-68.4-32.222S108.8,141.1,162.994,126.422,217.17,59.943,288.9,70.4c39.1,5.708,40,48.012,34.477,83.013S384.108,243.456,356.766,301.669Z" transform="translate(-76.731 -69.021)" fill="#55aaa0"/>
      <path id="Tracé_3" data-name="Tracé 3" d="M356.766,301.669c-23.576,50.208-107.289,43.115-139.6,7.811s-42.8-57.917-71.951-44.753-66.294,9.66-68.4-32.222S108.8,141.1,162.994,126.422,217.17,59.943,288.9,70.4c39.1,5.708,40,48.012,34.477,83.013S384.108,243.456,356.766,301.669Z" transform="translate(-76.731 -69.021)" fill="#fff" opacity="0.9" style="mix-blend-mode: normal;isolation: isolate"/>
    </g>
    <ellipse id="Sol" cx="150" cy="8.758" rx="150" ry="8.758" transform="translate(55.61 401.884)" fill="#f5f5f5"/>
    <g id="Drone" transform="translate(221.866 48.482)">
      <ellipse id="Ellipse_1" data-name="Ellipse 1" cx="16.803" cy="2.352" rx="16.803" ry="2.352" transform="translate(101.338 8.68)" fill="#55aaa0"/>
      <ellipse id="Ellipse_2" data-name="Ellipse 2" cx="16.803" cy="2.352" rx="16.803" ry="2.352" transform="translate(101.338 8.68)" fill="#fff" opacity="0.4" style="mix-blend-mode: normal;isolation: isolate"/>
      <path id="Tracé_4" data-name="Tracé 4" d="M369.951,129.605c.99-.085,2-.093,2.978-.255l1.485-.2,1.47-.286a13.31,13.31,0,0,0,1.462-.34c.48-.132.967-.232,1.447-.387a33.551,33.551,0,0,0,5.57-2.228,28.27,28.27,0,0,0,2.948-1.733h-2.53a1.547,1.547,0,1,1,0-3.095h11.666a1.547,1.547,0,1,1,0,3.095h-4.123l-.658,1.547a1.129,1.129,0,0,1-2.081,0l-.3-.7a28.76,28.76,0,0,1-3.915,2.715,36.338,36.338,0,0,1-5.8,2.723c-.5.186-1.013.333-1.547.5a15.56,15.56,0,0,1-1.547.456l-1.547.395-1.547.309c-1.052.232-2.12.309-3.187.456s-2.143.147-3.211.224v-3.172C367.955,129.621,368.961,129.652,369.951,129.605Z" transform="translate(-272.473 -109.267)" fill="#55aaa0"/>
      <path id="Tracé_5" data-name="Tracé 5" d="M369.951,129.605c.99-.085,2-.093,2.978-.255l1.485-.2,1.47-.286a13.31,13.31,0,0,0,1.462-.34c.48-.132.967-.232,1.447-.387a33.551,33.551,0,0,0,5.57-2.228,28.27,28.27,0,0,0,2.948-1.733h-2.53a1.547,1.547,0,1,1,0-3.095h11.666a1.547,1.547,0,1,1,0,3.095h-4.123l-.658,1.547a1.129,1.129,0,0,1-2.081,0l-.3-.7a28.76,28.76,0,0,1-3.915,2.715,36.338,36.338,0,0,1-5.8,2.723c-.5.186-1.013.333-1.547.5a15.56,15.56,0,0,1-1.547.456l-1.547.395-1.547.309c-1.052.232-2.12.309-3.187.456s-2.143.147-3.211.224v-3.172C367.955,129.621,368.961,129.652,369.951,129.605Z" transform="translate(-272.473 -109.267)" opacity="0.2" style="mix-blend-mode: normal;isolation: isolate"/>
      <ellipse id="Ellipse_3" data-name="Ellipse 3" cx="16.803" cy="2.352" rx="16.803" ry="2.352" transform="translate(15.86 8.68)" fill="#55aaa0"/>
      <ellipse id="Ellipse_4" data-name="Ellipse 4" cx="16.803" cy="2.352" rx="16.803" ry="2.352" transform="translate(15.86 8.68)" fill="#fff" opacity="0.4" style="mix-blend-mode: normal;isolation: isolate"/>
      <path id="Tracé_6" data-name="Tracé 6" d="M305.547,129.605c-.99-.085-2-.093-2.979-.255l-1.485-.2-1.47-.286a13.22,13.22,0,0,1-1.454-.34c-.487-.132-.975-.232-1.454-.387a33.794,33.794,0,0,1-5.562-2.228,27.612,27.612,0,0,1-2.955-1.733h2.53a1.547,1.547,0,1,0,0-3.095H279.057a1.547,1.547,0,1,0,0,3.095h4.116l.658,1.547a1.13,1.13,0,0,0,2.081,0l.3-.7a29.184,29.184,0,0,0,3.915,2.715,36.088,36.088,0,0,0,5.81,2.723c.5.186,1.013.333,1.547.5a15.623,15.623,0,0,0,1.547.456l1.547.395,1.547.309c1.052.232,2.128.309,3.187.456s2.143.147,3.218.224v-3.172C307.542,129.621,306.545,129.652,305.547,129.605Z" transform="translate(-252.22 -109.267)" fill="#55aaa0"/>
      <path id="Tracé_7" data-name="Tracé 7" d="M305.547,129.605c-.99-.085-2-.093-2.979-.255l-1.485-.2-1.47-.286a13.22,13.22,0,0,1-1.454-.34c-.487-.132-.975-.232-1.454-.387a33.794,33.794,0,0,1-5.562-2.228,27.612,27.612,0,0,1-2.955-1.733h2.53a1.547,1.547,0,1,0,0-3.095H279.057a1.547,1.547,0,1,0,0,3.095h4.116l.658,1.547a1.13,1.13,0,0,0,2.081,0l.3-.7a29.184,29.184,0,0,0,3.915,2.715,36.088,36.088,0,0,0,5.81,2.723c.5.186,1.013.333,1.547.5a15.623,15.623,0,0,0,1.547.456l1.547.395,1.547.309c1.052.232,2.128.309,3.187.456s2.143.147,3.218.224v-3.172C307.542,129.621,306.545,129.652,305.547,129.605Z" transform="translate(-252.22 -109.267)" opacity="0.2" style="mix-blend-mode: normal;isolation: isolate"/>
      <ellipse id="Ellipse_5" data-name="Ellipse 5" cx="18.629" cy="2.599" rx="18.629" ry="2.599" transform="translate(0)" fill="#55aaa0"/>
      <ellipse id="Ellipse_6" data-name="Ellipse 6" cx="18.629" cy="2.599" rx="18.629" ry="2.599" transform="translate(0)" fill="#fff" opacity="0.7" style="mix-blend-mode: normal;isolation: isolate"/>
      <path id="Tracé_8" data-name="Tracé 8" d="M260.054,113.691h12.927A1.694,1.694,0,0,0,274.676,112h0a1.694,1.694,0,0,0-1.694-1.694H260.054A1.694,1.694,0,0,0,258.36,112h0A1.694,1.694,0,0,0,260.054,113.691Z" transform="translate(-247.885 -106.829)" fill="#55aaa0"/>
      <path id="Tracé_9" data-name="Tracé 9" d="M270.54,113.43l-1.184,2.715a1.253,1.253,0,0,1-2.321,0l-1.145-2.708Z" transform="translate(-249.59 -107.535)" fill="#55aaa0"/>
      <path id="Tracé_10" data-name="Tracé 10" d="M270.509,112.73a33.417,33.417,0,0,0,4.843,5.539,32.876,32.876,0,0,0,5.926,4.332,31.078,31.078,0,0,0,3.265,1.609c.557.224,1.137.4,1.7.6.286.1.565.209.851.294l.874.209a26.77,26.77,0,0,0,7.094.812V130a30.056,30.056,0,0,1-8.046-1.385l-.975-.294-.936-.387c-.627-.263-1.261-.5-1.872-.774a33.842,33.842,0,0,1-3.5-1.988,35.331,35.331,0,0,1-6.189-5.06,38.25,38.25,0,0,1-2.6-2.994,29.234,29.234,0,0,1-2.282-3.3Z" transform="translate(-250.217 -107.376)" fill="#55aaa0"/>
      <path id="Tracé_11" data-name="Tracé 11" d="M304.4,167.808H293.614a3.924,3.924,0,0,1-3.52-2.174l-.5-.99a1.16,1.16,0,0,1,2.073-1.037l.5.99a1.6,1.6,0,0,0,1.447.89H304.4a1.609,1.609,0,0,0,1.447-.89l.5-.99a1.16,1.16,0,1,1,2.124.934.983.983,0,0,1-.051.1l-.5.99A3.923,3.923,0,0,1,304.4,167.808Z" transform="translate(-254.932 -118.736)" fill="#55aaa0"/>
      <path id="Tracé_12" data-name="Tracé 12" d="M307.1,164.162a1.16,1.16,0,0,1-.967-1.8l9.9-14.978a1.16,1.16,0,1,1,2,1.17,1.06,1.06,0,0,1-.07.107l-9.9,14.985A1.175,1.175,0,0,1,307.1,164.162Z" transform="translate(-258.655 -115.09)" fill="#55aaa0"/>
      <path id="Tracé_13" data-name="Tracé 13" d="M294.472,164.094a1.112,1.112,0,0,1-.627-.193,1.153,1.153,0,0,1-.346-1.593l.005-.009,9.964-15.233a1.16,1.16,0,0,1,1.984,1.2c-.013.022-.028.044-.043.066l-9.933,15.233A1.169,1.169,0,0,1,294.472,164.094Z" transform="translate(-255.798 -115.022)" fill="#55aaa0"/>
      <path id="Tracé_14" data-name="Tracé 14" d="M369.98,167.808H359.234a3.924,3.924,0,0,1-3.52-2.174l-.5-.99a1.16,1.16,0,0,1,2.073-1.037l.5.99a1.609,1.609,0,0,0,1.447.89h10.784a1.6,1.6,0,0,0,1.447-.89l.5-.99a1.16,1.16,0,1,1,2.124.934c-.016.036-.033.07-.051.1l-.5.99A3.921,3.921,0,0,1,369.98,167.808Z" transform="translate(-269.787 -118.736)" fill="#55aaa0"/>
      <path id="Tracé_15" data-name="Tracé 15" d="M358.493,164.162a1.16,1.16,0,0,1-.967-.518l-9.9-14.985a1.16,1.16,0,1,1,1.864-1.383,1.108,1.108,0,0,1,.07.107l9.9,14.978a1.161,1.161,0,0,1-.967,1.8Z" transform="translate(-268.039 -115.09)" fill="#55aaa0"/>
      <path id="Tracé_16" data-name="Tracé 16" d="M371.087,164.094a1.167,1.167,0,0,1-.975-.526l-9.933-15.233a1.161,1.161,0,1,1,1.9-1.335c.015.022.029.043.043.066l9.933,15.233a1.153,1.153,0,0,1-.332,1.6l-.009.005A1.112,1.112,0,0,1,371.087,164.094Z" transform="translate(-270.885 -115.022)" fill="#55aaa0"/>
      <rect id="Rectangle_683" data-name="Rectangle 683" width="2.762" height="7.272" transform="translate(65.279 32.678)" fill="#263238"/>
      <path id="Tracé_17" data-name="Tracé 17" d="M350.71,129.223a112.485,112.485,0,0,0-23.735-1.447,112.464,112.464,0,0,0-23.727,1.447,2.971,2.971,0,0,0-2.367,2.816v8.425a2.971,2.971,0,0,0,2.367,2.816,111.947,111.947,0,0,0,23.727,1.439,111.969,111.969,0,0,0,23.735-1.439,2.986,2.986,0,0,0,2.367-2.816v-8.409A2.986,2.986,0,0,0,350.71,129.223Z" transform="translate(-257.51 -110.757)" fill="#55aaa0"/>
      <path id="Tracé_18" data-name="Tracé 18" d="M350.71,129.223a112.485,112.485,0,0,0-23.735-1.447,112.464,112.464,0,0,0-23.727,1.447,2.971,2.971,0,0,0-2.367,2.816v8.425a2.971,2.971,0,0,0,2.367,2.816,111.947,111.947,0,0,0,23.727,1.439,111.969,111.969,0,0,0,23.735-1.439,2.986,2.986,0,0,0,2.367-2.816v-8.409A2.986,2.986,0,0,0,350.71,129.223Z" transform="translate(-257.51 -110.757)" fill="#fff" opacity="0.2" style="mix-blend-mode: normal;isolation: isolate"/>
      <path id="Tracé_19" data-name="Tracé 19" d="M333.378,152.1a5.033,5.033,0,1,1-.012-.016Z" transform="translate(-262.815 -115.839)" fill="#55aaa0"/>
      <path id="Tracé_20" data-name="Tracé 20" d="M327.532,158.142a2,2,0,0,1,0,2.832,2.043,2.043,0,0,1-2.731-.774,2.018,2.018,0,0,1,0-2.839A2.054,2.054,0,0,1,327.532,158.142Z" transform="translate(-262.794 -117.418)" fill="#55aaa0"/>
      <path id="Tracé_21" data-name="Tracé 21" d="M327.532,158.142a2,2,0,0,1,0,2.832,2.043,2.043,0,0,1-2.731-.774,2.018,2.018,0,0,1,0-2.839A2.054,2.054,0,0,1,327.532,158.142Z" transform="translate(-262.794 -117.418)" fill="#fff" opacity="0.2" style="mix-blend-mode: normal;isolation: isolate"/>
      <path id="Tracé_22" data-name="Tracé 22" d="M327.2,158.715a1.222,1.222,0,1,1-1.88-.534A1.408,1.408,0,0,1,327.2,158.715Z" transform="translate(-262.933 -117.627)" fill="#263238"/>
      <path id="Tracé_23" data-name="Tracé 23" d="M366.027,140.289a.387.387,0,0,1-.387-.387v-4.936a.387.387,0,1,1,.774,0V139.9A.394.394,0,0,1,366.027,140.289Z" transform="translate(-272.17 -112.323)" fill="#263238"/>
      <path id="Tracé_24" data-name="Tracé 24" d="M364.387,140.289A.387.387,0,0,1,364,139.9v-4.936a.387.387,0,1,1,.774,0V139.9A.394.394,0,0,1,364.387,140.289Z" transform="translate(-271.798 -112.323)" fill="#263238"/>
      <path id="Tracé_25" data-name="Tracé 25" d="M362.747,140.289a.387.387,0,0,1-.387-.387v-4.936a.387.387,0,1,1,.774,0V139.9A.387.387,0,0,1,362.747,140.289Z" transform="translate(-271.427 -112.323)" fill="#263238"/>
      <path id="Tracé_26" data-name="Tracé 26" d="M312.659,134.21a1.122,1.122,0,0,0,1.037.712h15.883a1.114,1.114,0,0,0,.959-.549l3.628-6.235a112.338,112.338,0,0,0-23.7.371Z" transform="translate(-259.681 -110.761)" fill="#fff" opacity="0.2" style="mix-blend-mode: normal;isolation: isolate"/>
      <path id="Tracé_27" data-name="Tracé 27" d="M340.564,129.417c-2.151-.364-4.317-.658-6.483-.9l-4.069,6.963a3,3,0,0,1-2.6,1.5H311.53a3.017,3.017,0,0,1-2.808-1.934l-2.36-6.127c-1.037.147-2.073.3-3.095.48a2.971,2.971,0,0,0-2.367,2.816v8.425a2.971,2.971,0,0,0,2.367,2.816,112.279,112.279,0,0,0,37.312,0,2.978,2.978,0,0,0,2.375-2.816v-8.394A2.979,2.979,0,0,0,340.564,129.417Zm-8.084,11.6a1.1,1.1,0,1,1,1.1-1.1,1.1,1.1,0,0,1-1.1,1.1Zm4.263,0a1.091,1.091,0,1,1,.016,0Z" transform="translate(-257.515 -110.951)" fill="#fff" opacity="0.2" style="mix-blend-mode: normal;isolation: isolate"/>
      <ellipse id="Ellipse_7" data-name="Ellipse 7" cx="18.629" cy="2.599" rx="18.629" ry="2.599" transform="translate(92.558)" fill="#55aaa0"/>
      <ellipse id="Ellipse_8" data-name="Ellipse 8" cx="18.629" cy="2.599" rx="18.629" ry="2.599" transform="translate(92.558)" fill="#fff" opacity="0.7" style="mix-blend-mode: normal;isolation: isolate"/>
      <path id="Tracé_28" data-name="Tracé 28" d="M392.622,113.691H379.694A1.694,1.694,0,0,1,378,112h0a1.694,1.694,0,0,1,1.694-1.694h12.927A1.694,1.694,0,0,1,394.316,112h0A1.694,1.694,0,0,1,392.622,113.691Z" transform="translate(-274.967 -106.829)" fill="#55aaa0"/>
      <path id="Tracé_29" data-name="Tracé 29" d="M385.55,113.43l1.184,2.715a1.253,1.253,0,0,0,2.321,0l1.145-2.708Z" transform="translate(-276.676 -107.535)" fill="#55aaa0"/>
      <path id="Tracé_30" data-name="Tracé 30" d="M381.024,113.8a29.226,29.226,0,0,1-2.282,3.3,38.238,38.238,0,0,1-2.6,2.994,35.33,35.33,0,0,1-6.189,5.06,33.84,33.84,0,0,1-3.5,1.988c-.611.286-1.246.526-1.872.774l-.936.387-.975.294a30.087,30.087,0,0,1-8.046,1.385v-3.868a26.768,26.768,0,0,0,7.094-.812l.874-.209c.286-.085.565-.193.851-.294.565-.2,1.145-.379,1.7-.6a30.3,30.3,0,0,0,3.257-1.609,32.666,32.666,0,0,0,5.934-4.332,33.415,33.415,0,0,0,4.843-5.539Z" transform="translate(-269.675 -107.372)" fill="#55aaa0"/>
    </g>
    <g id="Cone" transform="translate(246.972 355.006)">
      <path id="Tracé_31" data-name="Tracé 31" d="M342.01,403.237h-31.58l4.255-20.648,3.2-15.473,4.7-22.791h7.288l4.7,22.791,3.2,15.473Z" transform="translate(-305.041 -344.325)" fill="#55aaa0"/>
      <path id="Tracé_32" data-name="Tracé 32" d="M311,407.025l-7.056,7.427a1.764,1.764,0,0,0,1.276,2.979H344.07a1.764,1.764,0,0,0,1.276-2.979l-7.056-7.427Z" transform="translate(-303.464 -358.518)" fill="#55aaa0"/>
      <path id="Tracé_33" data-name="Tracé 33" d="M311,407.025l-7.056,7.427a1.764,1.764,0,0,0,1.276,2.979H344.07a1.764,1.764,0,0,0,1.276-2.979l-7.056-7.427Z" transform="translate(-303.464 -358.518)" opacity="0.2" style="mix-blend-mode: normal;isolation: isolate"/>
      <path id="Tracé_34" data-name="Tracé 34" d="M339,389.258h-23.07l3.2-15.473h16.68Z" transform="translate(-306.286 -350.994)" fill="#fff" opacity="0.4" style="mix-blend-mode: normal;isolation: isolate"/>
    </g>
    <g id="Pilote" transform="translate(87.996 131.676)">
      <g id="freepik--group--inject-1" transform="translate(0 0)">
        <path id="Tracé_35" data-name="Tracé 35" d="M227.975,195.61c3.2,1.032,11.587,14.166,11.587,14.166l-5.8,8.254s-7.934-6.3-9.028-8.7C221.733,202.8,227.975,195.61,227.975,195.61Z" transform="translate(-184.01 -148.561)" fill="#55aaa0"/>
        <path id="Tracé_36" data-name="Tracé 36" d="M239.561,209.777l-5.788,8.254s-1.032-.8-2.342-1.929c-2.435-2.064-5.984-5.221-6.7-6.768a10.935,10.935,0,0,1,.248-8.76,20.079,20.079,0,0,1,2.992-5C231.173,196.684,239.561,209.777,239.561,209.777Z" transform="translate(-184.009 -148.562)" fill="#fff" opacity="0.6" style="mix-blend-mode: normal;isolation: isolate"/>
        <path id="Tracé_37" data-name="Tracé 37" d="M231.421,215.988c-2.435-2.064-5.984-5.221-6.7-6.768a10.94,10.94,0,0,1,.248-8.76A66.476,66.476,0,0,1,231.421,215.988Z" transform="translate(-184.01 -148.407)" opacity="0.2" style="mix-blend-mode: normal;isolation: isolate"/>
        <path id="Tracé_38" data-name="Tracé 38" d="M197.855,412.69h-9.079a.65.65,0,0,0-.64.516l-1.475,6.655a1.105,1.105,0,0,0,.846,1.31,1,1,0,0,0,.248,0c2.941,0,5.076-.227,8.77-.227,2.27,0,9.131.237,12.268.237s3.549-3.1,2.27-3.384c-5.768-1.259-10.1-2.992-11.948-4.653A1.824,1.824,0,0,0,197.855,412.69Z" transform="translate(-185.194 -141.667)" fill="#263238"/>
        <path id="Tracé_39" data-name="Tracé 39" d="M235.2,412.46h-9.09a.651.651,0,0,0-.629.516L224,419.631a1.094,1.094,0,0,0,.828,1.306l.018,0h.248c2.941,0,5.076-.227,8.77-.227,2.27,0,9.131.237,12.268.237s3.549-3.1,2.26-3.384c-5.757-1.259-10.1-3-11.948-4.653A1.8,1.8,0,0,0,235.2,412.46Z" transform="translate(-184.008 -141.675)" fill="#263238"/>
        <path id="Tracé_40" data-name="Tracé 40" d="M197.855,412.69h-9.079a.65.65,0,0,0-.64.516l-1.475,6.655a1.105,1.105,0,0,0,.846,1.31,1,1,0,0,0,.248,0c2.941,0,5.076-.227,8.77-.227,2.27,0,9.131.237,12.268.237s3.549-3.1,2.27-3.384c-5.768-1.259-10.1-2.992-11.948-4.653A1.824,1.824,0,0,0,197.855,412.69Z" transform="translate(-185.194 -141.667)" fill="#fff" opacity="0.3" style="mix-blend-mode: normal;isolation: isolate"/>
        <path id="Tracé_41" data-name="Tracé 41" d="M235.2,412.46h-9.09a.651.651,0,0,0-.629.516L224,419.631a1.094,1.094,0,0,0,.828,1.306l.018,0h.248c2.941,0,5.076-.227,8.77-.227,2.27,0,9.131.237,12.268.237s3.549-3.1,2.26-3.384c-5.757-1.259-10.1-3-11.948-4.653A1.8,1.8,0,0,0,235.2,412.46Z" transform="translate(-184.008 -141.675)" fill="#fff" opacity="0.3" style="mix-blend-mode: normal;isolation: isolate"/>
        <path id="Tracé_42" data-name="Tracé 42" d="M193.03,249.49h39.692c3.766,20.635,15.58,104.28,7.109,169.208H226.407s1.238-98.677-10.627-130.558c-1.362,17.065-15.229,130.486-15.229,130.486H186.86s2.064-42.663,4.127-82.974C192.246,310.322,192.978,254.7,193.03,249.49Z" transform="translate(-185.187 -146.85)" fill="#263238"/>
        <path id="Tracé_43" data-name="Tracé 43" d="M214.89,287.435a107.215,107.215,0,0,1,4.437,17.158C220.441,289.406,216,273.3,216,273.3Z" transform="translate(-184.297 -146.094)" opacity="0.2" style="mix-blend-mode: normal;isolation: isolate"/>
        <path id="Tracé_44" data-name="Tracé 44" d="M232.86,249.95H192.91v4.756l40.455-.5Z" transform="translate(-184.995 -146.835)"/>
        <rect id="Rectangle_684" data-name="Rectangle 684" width="1.424" height="8.44" transform="translate(20.751 100.979)" fill="#263238"/>
        <rect id="Rectangle_685" data-name="Rectangle 685" width="1.424" height="8.44" transform="translate(40.963 100.979)" fill="#263238"/>
        <rect id="Rectangle_686" data-name="Rectangle 686" width="7.387" height="5.324" transform="translate(29.655 102.289)" fill="#fff"/>
        <path id="Tracé_45" data-name="Tracé 45" d="M232.08,214.051s6.191,7.666,11.917,6.634,7.222-13.413,7.222-13.413l-3.673-1.692s-2.517,7.222-4.829,7.759-5.685-3.508-5.685-3.508Z" transform="translate(-183.751 -148.244)" fill="#bc6e39"/>
        <path id="Tracé_46" data-name="Tracé 46" d="M249.492,209.435c.072-.32,1.341-6.314,2.064-6.325s3.725,2.218,3.642,3.1-1.331,7.222-2.28,7.325-3,.547-3,.547A11.364,11.364,0,0,1,249.492,209.435Z" transform="translate(-183.2 -148.323)" fill="#bc6e39"/>
        <path id="Tracé_47" data-name="Tracé 47" d="M232.384,251.8H192.146c.072-13.32-.97-38.619-5.066-56.066a86.364,86.364,0,0,1,12.061-1.806,155.97,155.97,0,0,1,17.839-.5,78.837,78.837,0,0,1,12.123,1.847,62.6,62.6,0,0,1,1.754,8.017c.475,2.817.96,6.387,1.352,10.761A248.984,248.984,0,0,1,232.384,251.8Z" transform="translate(-185.18 -148.632)" fill="#55aaa0"/>
        <g id="Groupe_1" data-name="Groupe 1" transform="translate(1.9 44.732)" opacity="0.7">
          <path id="Tracé_48" data-name="Tracé 48" d="M232.384,251.8H192.146c.072-13.32-.97-38.619-5.066-56.066a86.364,86.364,0,0,1,12.061-1.806,155.97,155.97,0,0,1,17.839-.5,78.837,78.837,0,0,1,12.123,1.847,62.6,62.6,0,0,1,1.754,8.017c.475,2.817.96,6.387,1.352,10.761A248.984,248.984,0,0,1,232.384,251.8Z" transform="translate(-187.08 -193.364)" fill="#fff"/>
        </g>
        <path id="Tracé_49" data-name="Tracé 49" d="M204.779,176.14c1.032,6.283,2.064,17.54-1.909,20.346,0,0,6.1,5.922,11.349,5.252,3.374-.423,3.384-5.293,3.384-5.293-3.591.052-3.508-3.188-2.394-7.5Z" transform="translate(-184.678 -149.179)" fill="#bc6e39"/>
        <path id="Tracé_50" data-name="Tracé 50" d="M208.938,181.2l6.191,7.583a19.088,19.088,0,0,0-.557,3.1c-3.1,1.032-7.945-4.581-8.171-7.315C206.276,183.48,208.7,182.19,208.938,181.2Z" transform="translate(-184.567 -149.018)" opacity="0.2" style="mix-blend-mode: normal;isolation: isolate"/>
        <path id="Tracé_51" data-name="Tracé 51" d="M198.3,175.156c2.683.279,17.488-3.993,20.418-7.6s-12.794-7.222-17.447-4.014S195.348,174.846,198.3,175.156Z" transform="translate(-184.874 -149.619)" fill="#55aaa0"/>
        <path id="Tracé_52" data-name="Tracé 52" d="M198.3,175.156c2.683.279,17.488-3.993,20.418-7.6s-12.794-7.222-17.447-4.014S195.348,174.846,198.3,175.156Z" transform="translate(-184.874 -149.619)" opacity="0.4" style="mix-blend-mode: normal;isolation: isolate"/>
        <path id="Tracé_53" data-name="Tracé 53" d="M214.3,164.478c-2.724,2.724-.609,6.046,7.552,10.318,2.156-4.282,1.248-11.607-1.383-12.99S216.678,162.115,214.3,164.478Z" transform="translate(-184.351 -149.65)" fill="#263238"/>
        <path id="Tracé_54" data-name="Tracé 54" d="M202.32,172.937c1.816,7.583,2.487,12.1,7.037,15.373,6.851,4.9,15.693-.258,16.2-8.254.433-7.15-2.59-18.355-10.617-20.1a10.639,10.639,0,0,0-12.618,12.959Z" transform="translate(-184.706 -149.701)" fill="#bc6e39"/>
        <path id="Tracé_55" data-name="Tracé 55" d="M213.76,172.678c.113.619.526,1.032.939,1.032s.64-.629.537-1.248a1.113,1.113,0,0,0-.929-1.032C213.9,171.43,213.7,172.018,213.76,172.678Z" transform="translate(-184.333 -149.329)" fill="#263238"/>
        <path id="Tracé_56" data-name="Tracé 56" d="M220.631,171.489a1.131,1.131,0,0,0,.939,1.032c.4,0,.65-.629.547-1.269a1.092,1.092,0,0,0-.939-1.032C220.765,170.22,220.528,170.86,220.631,171.489Z" transform="translate(-184.115 -149.367)" fill="#263238"/>
        <path id="Tracé_57" data-name="Tracé 57" d="M218.44,172.12a22.321,22.321,0,0,0,3.91,4.818,3.651,3.651,0,0,1-2.889,1.032Z" transform="translate(-184.184 -149.307)" fill="#263238" opacity="0.3"/>
        <path id="Tracé_58" data-name="Tracé 58" d="M211.524,170.879a.406.406,0,0,1-.248,0,.372.372,0,0,1-.169-.5l0-.008a3.676,3.676,0,0,1,2.724-2.064.371.371,0,0,1,.4.31h0a.392.392,0,0,1-.33.413h0a2.934,2.934,0,0,0-2.125,1.62A.423.423,0,0,1,211.524,170.879Z" transform="translate(-184.418 -149.428)" fill="#263238"/>
        <path id="Tracé_59" data-name="Tracé 59" d="M223.456,168.658a.394.394,0,0,1-.371-.155,2.947,2.947,0,0,0-2.352-1.3.372.372,0,0,1-.392-.35h0a.382.382,0,0,1,.351-.392,3.7,3.7,0,0,1,2.992,1.61.371.371,0,0,1-.083.516h0A.61.61,0,0,1,223.456,168.658Z" transform="translate(-184.124 -149.486)" fill="#263238"/>
        <path id="Tracé_60" data-name="Tracé 60" d="M204.341,165.445c3.8.609,4.024,4.55-.083,12.783-4.261-2.2-7.821-8.677-6.479-11.349S201.019,164.929,204.341,165.445Z" transform="translate(-184.849 -149.534)" fill="#263238"/>
        <path id="Tracé_61" data-name="Tracé 61" d="M199.822,179.242a7.4,7.4,0,0,0,4.23,3.756c2.466.836,3.828-1.341,3.26-3.725-.516-2.156-2.414-5.159-4.932-4.973S198.78,177.086,199.822,179.242Z" transform="translate(-184.788 -149.238)" fill="#bc6e39"/>
        <path id="Tracé_62" data-name="Tracé 62" d="M219.071,179.824a19.641,19.641,0,0,0-.371,2.775l-.5.052c-2.229.2-3.322-.444-3.869-1.217a2.845,2.845,0,0,1-.475-1.279,2.773,2.773,0,0,1,0-.784,10.314,10.314,0,0,0,4.447.506C218.772,179.855,219.071,179.824,219.071,179.824Z" transform="translate(-184.33 -149.076)" fill="#263238"/>
        <path id="Tracé_63" data-name="Tracé 63" d="M218.328,179.876l-.134.815c-2.063.2-3.591,0-4.313-.536a2.771,2.771,0,0,1,0-.784A10.314,10.314,0,0,0,218.328,179.876Z" transform="translate(-184.33 -149.076)" fill="#fff"/>
        <path id="Tracé_64" data-name="Tracé 64" d="M218.189,182.588c-2.229.2-3.322-.444-3.869-1.217a7.2,7.2,0,0,1,2.517.268A2.614,2.614,0,0,1,218.189,182.588Z" transform="translate(-184.315 -149.014)" fill="#a24e3f"/>
        <path id="Tracé_65" data-name="Tracé 65" d="M202.08,166.239s5.066,21.234,15.724,23.431l2.064-.629s-5.664.1-9.616-6.191-6.645-16.91-6.645-16.91Z" transform="translate(-184.704 -149.503)"/>
        <path id="Tracé_66" data-name="Tracé 66" d="M226.568,162.827c-5.283,6.541-19.2,1.764-24.112,5.468s-4.127,7.129-4.127,7.222c-3.436,1.032-1.568-4.581-1.568-4.581-3.632-11.06,3.1-17.426,13.413-18.644,9.678-1.135,12.381,8.595,12.381,8.595Z" transform="translate(-184.904 -149.939)" fill="#55aaa0"/>
        <path id="Tracé_67" data-name="Tracé 67" d="M222.482,160.847c-2.177,3.859-15.765,2.858-20.841,4.571s-4.88,5.479-4.88,5.479c-3.632-11.06,3.1-17.426,13.413-18.644C219.831,151.118,222.482,160.847,222.482,160.847Z" transform="translate(-184.904 -149.941)" opacity="0.2" style="mix-blend-mode: normal;isolation: isolate"/>
        <path id="Tracé_68" data-name="Tracé 68" d="M202.975,154.88c4.127-1.5,8.687,1.981,10.483,4.509s5.53,1.589,5.6-1.228-2.517-8.151-2.517-8.151-17.014-.31-19.253,9.224A10.411,10.411,0,0,1,202.975,154.88Z" transform="translate(-184.856 -150.009)" fill="#55aaa0"/>
        <path id="Tracé_69" data-name="Tracé 69" d="M214.97,189.06a5.9,5.9,0,0,1,3.1-1.764,4.845,4.845,0,0,1,2.652,0,4.064,4.064,0,0,1-2.6,1.981A3.294,3.294,0,0,1,214.97,189.06Z" transform="translate(-184.294 -148.831)" fill="#263238"/>
        <path id="Tracé_70" data-name="Tracé 70" d="M203.83,192.88l9.7,7.408,1.847-6.964,3.5,2.146-1.011,8.615-3.828-3.013-5.087,4.457-8.677-10.06Z" transform="translate(-184.761 -148.647)" fill="#55aaa0"/>
        <path id="Tracé_71" data-name="Tracé 71" d="M203.83,192.88l9.7,7.408,1.847-6.964,3.5,2.146-1.011,8.615-3.828-3.013-5.087,4.457-8.677-10.06Z" transform="translate(-184.761 -148.647)" fill="#fff" opacity="0.6" style="mix-blend-mode: normal;isolation: isolate"/>
        <path id="Tracé_72" data-name="Tracé 72" d="M233.511,226.579l-.083,4.333-.134,7.078-.186,5.159-.1,2.765-.124,3.5H221.687l-2.064-5.314-1.486,5.314-26.609-.887-.2-4.313V243.18l-.248-5.8-.258-6.077-.248-5.623a96.026,96.026,0,0,0,1.187-30.953l7.934-.939s11.277,11.225,17.1,18.706a85.01,85.01,0,0,0,4.127-18.706l5.912.681Z" transform="translate(-185.069 -148.619)" fill="#337682"/>
        <path id="Tracé_73" data-name="Tracé 73" d="M209.868,230.16l-.619,11.876H191.266l-.248-5.8-.258-6.077Z" transform="translate(-185.063 -147.464)" fill="#fff" opacity="0.3" style="mix-blend-mode: normal;isolation: isolate"/>
        <path id="Tracé_74" data-name="Tracé 74" d="M232.337,229.77l-.134,7.078-.186,5.19H225.29l-.32-11.865Z" transform="translate(-183.977 -147.476)" fill="#fff" opacity="0.3" style="mix-blend-mode: normal;isolation: isolate"/>
        <g id="JooL_Plan" transform="translate(-19.267 47.182)">
          <path id="Tracé_84" data-name="Tracé 84" d="M366.783,14.571l1.831-2.886-.553,0-2.178,3.351H368.8l.043-.457Z" transform="translate(-323.015)" fill="#fff"/>
          <path id="Tracé_85" data-name="Tracé 85" d="M33.4,15.228l.281-.286a.887.887,0,0,0,.717.376.641.641,0,0,0,.321-.085.923.923,0,0,0,.366-.619c.113-.489.3-1.25.532-2.222h.506l-.655,2.566a1.015,1.015,0,0,1-1.041.806,1.173,1.173,0,0,1-1.027-.536" transform="translate(0 -0.689)" fill="#fff"/>
          <path id="Tracé_86" data-name="Tracé 86" d="M128.437,36.353l-.094.192c-.3.614-1.084,1.359-1.605,1.363h-.011a2.374,2.374,0,0,1-1.643-.9,2.365,2.365,0,0,1,1.639-.929.926.926,0,0,1,.577.2l.168.133.266-.335-.168-.133a1.368,1.368,0,0,0-.845-.29,2.712,2.712,0,0,0-1.912,1.018,2.72,2.72,0,0,0-1.913-.987h-.015a1.344,1.344,0,0,0,.011,2.687h.011a2.711,2.711,0,0,0,1.912-1.018,2.721,2.721,0,0,0,1.913.987h.015a1.9,1.9,0,0,0,1.132-.527,3.523,3.523,0,0,0,.854-1.076l.094-.192Zm-3.9.657a2.365,2.365,0,0,1-1.64.929h-.008a.916.916,0,0,1-.007-1.831h.011a2.375,2.375,0,0,1,1.643.9" transform="translate(-85.633 -23.284)" fill="#fff"/>
          <path id="Tracé_87" data-name="Tracé 87" d="M342.878,55.03l-.233-.633-.635.234-.117-.317.725-.267a.259.259,0,0,1,.185.007.24.24,0,0,1,.126.136l.268.725-.315.116h0" transform="translate(-299.707 -41.144)" fill="#fff"/>
          <path id="Tracé_88" data-name="Tracé 88" d="M342.436,54.7l-.009,0,0-.005-.23-.623-.635.234-.124-.336.734-.271a.27.27,0,0,1,.193.008.25.25,0,0,1,.131.142l.271.735Zm0-.02h0Zm-.227-.638.234.635.3-.11-.264-.716a.23.23,0,0,0-.121-.13.248.248,0,0,0-.178-.007l-.715.264.11.3Z" transform="translate(-299.263 -40.801)" fill="#fff"/>
          <rect id="Rectangle_687" data-name="Rectangle 687" width="2.042" height="0.731" transform="translate(43.747 15.296)" fill="#fff"/>
          <g id="Groupe_2" data-name="Groupe 2" transform="translate(44.123 15.447)">
            <path id="Tracé_89" data-name="Tracé 89" d="M410.233,144.107a.111.111,0,0,1-.041.093.185.185,0,0,1-.117.032h-.065v.173h-.029v-.418h.1Q410.233,143.987,410.233,144.107Zm-.223.1h.057a.174.174,0,0,0,.1-.023.088.088,0,0,0,.031-.076.085.085,0,0,0-.03-.072.149.149,0,0,0-.092-.023h-.069Z" transform="translate(-409.981 -143.985)" fill="#1e1e1f"/>
            <path id="Tracé_90" data-name="Tracé 90" d="M422.018,144.405v-.418h.029v.391h.2v.027Z" transform="translate(-421.675 -143.985)" fill="#1e1e1f"/>
            <path id="Tracé_91" data-name="Tracé 91" d="M430.76,144.2h-.17l-.058.148H430.5l.168-.42h.019l.165.42h-.033Zm-.159-.026h.15l-.057-.151q-.007-.018-.017-.049a.475.475,0,0,1-.017.05Z" transform="translate(-429.915 -143.928)" fill="#1e1e1f"/>
            <path id="Tracé_92" data-name="Tracé 92" d="M445.232,144.405H445.2l-.248-.371h0q0,.066,0,.1v.271h-.028v-.418h.029l.247.371h0q0-.051,0-.1v-.273h.028Z" transform="translate(-443.933 -143.985)" fill="#1e1e1f"/>
          </g>
        </g>
        <path id="Tracé_75" data-name="Tracé 75" d="M200.811,208.58s4.457,6.572,6.975,7.79,18.572-6.665,18.572-6.665l3.322,3.848s-17.313,11.473-22.7,10.245-12.041-9.286-12.041-9.286Z" transform="translate(-184.93 -148.149)" fill="#bc6e39"/>
        <path id="Tracé_76" data-name="Tracé 76" d="M187.18,196c1.486-1.775,15.961,13.083,15.961,13.083l-9.028,9.833S180.246,204.331,187.18,196Z" transform="translate(-185.238 -148.553)" fill="#55aaa0"/>
        <path id="Tracé_77" data-name="Tracé 77" d="M187.18,196c1.486-1.775,15.961,13.083,15.961,13.083l-9.028,9.833S180.246,204.331,187.18,196Z" transform="translate(-185.238 -148.553)" fill="#fff" opacity="0.6" style="mix-blend-mode: normal;isolation: isolate"/>
        <path id="Tracé_78" data-name="Tracé 78" d="M243.9,196.957H242.15l2.92-22.307h.867Z" transform="translate(-183.431 -149.226)" fill="#263238"/>
        <path id="Tracé_79" data-name="Tracé 79" d="M245.4,198.277H240.24l.175-1.94a1.032,1.032,0,0,1,.97-.877h3.425a.794.794,0,0,1,.809.78.607.607,0,0,1,0,.1Z" transform="translate(-183.492 -148.566)" fill="#263238"/>
        <path id="Tracé_80" data-name="Tracé 80" d="M246.892,214.247H231.241a1.63,1.63,0,0,1-1.649-1.612,1.821,1.821,0,0,1,.008-.184l1.135-12.381a2.621,2.621,0,0,1,1.981-2.187,41.647,41.647,0,0,1,15.662,0,2.062,2.062,0,0,1,1.589,2.187q-.577,6.191-1.135,12.381A2.063,2.063,0,0,1,246.892,214.247Z" transform="translate(-183.83 -148.512)" fill="#263238"/>
        <path id="Tracé_81" data-name="Tracé 81" d="M250.372,214.247H234.751a1.621,1.621,0,0,1-1.65-1.589,1.719,1.719,0,0,1,.009-.206q.557-6.191,1.125-12.381a2.631,2.631,0,0,1,1.981-2.187,41.647,41.647,0,0,1,15.662,0,2.062,2.062,0,0,1,1.589,2.187q-.577,6.191-1.135,12.381A2.062,2.062,0,0,1,250.372,214.247Z" transform="translate(-183.718 -148.512)" fill="#263238"/>
        <path id="Tracé_82" data-name="Tracé 82" d="M250.372,214.247H234.751a1.621,1.621,0,0,1-1.65-1.589,1.719,1.719,0,0,1,.009-.206q.557-6.191,1.125-12.381a2.631,2.631,0,0,1,1.981-2.187,41.647,41.647,0,0,1,15.662,0,2.062,2.062,0,0,1,1.589,2.187q-.577,6.191-1.135,12.381A2.062,2.062,0,0,1,250.372,214.247Z" transform="translate(-183.718 -148.512)" fill="#fff" opacity="0.2" style="mix-blend-mode: normal;isolation: isolate"/>
        <path id="Tracé_83" data-name="Tracé 83" d="M235.642,206.442c-.877-.815-5.829-3.549-6.758-2.889s-3.952,6.768-4.994,7.491c-.124.083,2.476,3.859,2.476,3.859a13.608,13.608,0,0,0,2.951-.392C230.143,214.2,236.519,207.247,235.642,206.442Z" transform="translate(-184.011 -148.312)" fill="#bc6e39"/>
      </g>
    </g>
  </g>
</svg>
