<svg id="Drone" xmlns="http://www.w3.org/2000/svg" xmlns:xlink="http://www.w3.org/1999/xlink" width="143" height="116" viewBox="0 0 143 116">
  <defs>
    <clipPath id="clip-path">
      <rect id="Rectangle_680" data-name="Rectangle 680" width="143" height="116" fill="none"/>
    </clipPath>
  </defs>
  <g id="Groupe_1344" data-name="Groupe 1344" clip-path="url(#clip-path)">
    <g id="Groupe_1343" data-name="Groupe 1343" transform="translate(-21.569 9.783)" opacity="0.2">
      <g id="Groupe_1339" data-name="Groupe 1339">
        <g id="Groupe_1334" data-name="Groupe 1334" transform="translate(99.287 45.498)">
          <g id="Groupe_1333" data-name="Groupe 1333">
            <path id="Tracé_9969" data-name="Tracé 9969" d="M-1380.735,66.485l6.175,2.829a1.9,1.9,0,0,1,.936,2.521l-1.861,4.061-9.631-4.414,1.861-4.061A1.9,1.9,0,0,1-1380.735,66.485Z" transform="translate(1410.344 -46.423)" fill="none" stroke="#010e30" stroke-linecap="round" stroke-linejoin="round" stroke-width="1.5"/>
            <rect id="Rectangle_675" data-name="Rectangle 675" width="2.661" height="2.775" transform="translate(33.907 22.03) rotate(-155.38)" fill="none" stroke="#010e30" stroke-linecap="round" stroke-linejoin="round" stroke-width="1.5"/>
            <path id="Tracé_9970" data-name="Tracé 9970" d="M-1385.3,64.716l2.887,1.323a.662.662,0,0,0,.877-.326l1.083-2.362a2.25,2.25,0,0,0-1.108-2.982h0a2.25,2.25,0,0,0-2.983,1.108l-1.082,2.362A.662.662,0,0,0-1385.3,64.716Z" transform="translate(1417.706 -46.423)" fill="none" stroke="#010e30" stroke-linecap="round" stroke-linejoin="round" stroke-width="1.5"/>
            <g id="Groupe_1331" data-name="Groupe 1331" transform="translate(36.022 16.964)">
              <path id="Tracé_9971" data-name="Tracé 9971" d="M-1417.79,78.248l-.01.022c0-.008,0-.016.005-.024Z" transform="translate(1451.347 -63.387)" fill="none" stroke="#010e30" stroke-linecap="round" stroke-linejoin="round" stroke-width="1.5"/>
              <path id="Tracé_9972" data-name="Tracé 9972" d="M-1416.625,65.912l.528.529a26.34,26.34,0,0,0,10.392,6.318l20.6,5.909a.731.731,0,0,0,.865-.4l-.691,1.507a.867.867,0,0,1-1.027.472l-20.483-5.877a26.3,26.3,0,0,1-10.392-6.318l-.465-.464a1.671,1.671,0,0,1-.337-1.877l.592-1.291.033.032A1.527,1.527,0,0,0-1416.625,65.912Z" transform="translate(1417.79 -63.387)" fill="none" stroke="#010e30" stroke-linecap="round" stroke-linejoin="round" stroke-width="1.5"/>
              <path id="Tracé_9973" data-name="Tracé 9973" d="M-1385.883,78.668l-20.6-5.909a26.34,26.34,0,0,1-10.392-6.318l-.528-.529a1.527,1.527,0,0,1-.388-1.458,1.477,1.477,0,0,1,.077-.273,1.36,1.36,0,0,1,1.8-.67l30.619,14.031a.546.546,0,0,1,.276.7c0,.008,0,.016-.005.024h0A.731.731,0,0,1-1385.883,78.668Z" transform="translate(1418.565 -63.387)" fill="none" stroke="#010e30" stroke-linecap="round" stroke-linejoin="round" stroke-width="1.5"/>
            </g>
            <g id="Groupe_1332" data-name="Groupe 1332">
              <path id="Tracé_9974" data-name="Tracé 9974" d="M-1349,46.721l-.01.022c0-.008.01-.012.014-.02Z" transform="translate(1349.775 -46.423)" fill="none" stroke="#010e30" stroke-linecap="round" stroke-linejoin="round" stroke-width="1.5"/>
              <path id="Tracé_9975" data-name="Tracé 9975" d="M-1349.625,63.2l-.745-.055a26.336,26.336,0,0,1-11.571-3.746l-17.923-11.743a.729.729,0,0,1-.263-.915l-.691,1.507a.865.865,0,0,0,.313,1.085l17.825,11.679a26.323,26.323,0,0,0,11.57,3.746l.656.049a1.671,1.671,0,0,0,1.641-.97l.592-1.292-.046,0A1.529,1.529,0,0,1-1349.625,63.2Z" transform="translate(1380.897 -46.423)" fill="none" stroke="#010e30" stroke-linecap="round" stroke-linejoin="round" stroke-width="1.5"/>
              <path id="Tracé_9976" data-name="Tracé 9976" d="M-1380.8,47.658l17.923,11.743a26.336,26.336,0,0,0,11.571,3.746l.745.055a1.529,1.529,0,0,0,1.358-.658,1.5,1.5,0,0,0,.156-.237,1.36,1.36,0,0,0-.67-1.8l-30.619-14.031a.546.546,0,0,0-.713.25c0,.008-.011.012-.014.02h0A.729.729,0,0,0-1380.8,47.658Z" transform="translate(1381.834 -46.423)" fill="none" stroke="#010e30" stroke-linecap="round" stroke-linejoin="round" stroke-width="1.5"/>
            </g>
          </g>
        </g>
        <g id="Groupe_1338" data-name="Groupe 1338">
          <g id="Groupe_1337" data-name="Groupe 1337">
            <path id="Tracé_9977" data-name="Tracé 9977" d="M-1281.448,20.987l6.175,2.829a1.9,1.9,0,0,1,.936,2.521L-1276.2,30.4l-9.631-4.414,1.861-4.061A1.9,1.9,0,0,1-1281.448,20.987Z" transform="translate(1311.057 -0.925)" fill="none" stroke="#010e30" stroke-linecap="round" stroke-linejoin="round" stroke-width="1.5"/>
            <rect id="Rectangle_676" data-name="Rectangle 676" width="2.661" height="2.775" transform="translate(33.907 22.03) rotate(-155.38)" fill="none" stroke="#010e30" stroke-linecap="round" stroke-linejoin="round" stroke-width="1.5"/>
            <path id="Tracé_9978" data-name="Tracé 9978" d="M-1286.01,19.217l2.887,1.324a.662.662,0,0,0,.877-.326l1.083-2.362a2.25,2.25,0,0,0-1.108-2.982h0a2.249,2.249,0,0,0-2.982,1.107l-1.083,2.363A.661.661,0,0,0-1286.01,19.217Z" transform="translate(1318.419 -0.925)" fill="none" stroke="#010e30" stroke-linecap="round" stroke-linejoin="round" stroke-width="1.5"/>
            <g id="Groupe_1335" data-name="Groupe 1335" transform="translate(36.022 16.964)">
              <path id="Tracé_9979" data-name="Tracé 9979" d="M-1318.5,32.75l-.01.022c0-.008,0-.016.005-.024Z" transform="translate(1352.06 -17.889)" fill="none" stroke="#010e30" stroke-linecap="round" stroke-linejoin="round" stroke-width="1.5"/>
              <path id="Tracé_9980" data-name="Tracé 9980" d="M-1317.338,20.414l.528.529a26.34,26.34,0,0,0,10.392,6.318l20.6,5.908a.73.73,0,0,0,.865-.4l-.691,1.507a.867.867,0,0,1-1.027.472l-20.483-5.877a26.31,26.31,0,0,1-10.392-6.318l-.465-.465a1.67,1.67,0,0,1-.337-1.876l.592-1.292.033.033A1.528,1.528,0,0,0-1317.338,20.414Z" transform="translate(1318.503 -17.889)" fill="none" stroke="#010e30" stroke-linecap="round" stroke-linejoin="round" stroke-width="1.5"/>
              <path id="Tracé_9981" data-name="Tracé 9981" d="M-1286.6,33.169l-20.6-5.908a26.34,26.34,0,0,1-10.392-6.318l-.528-.529a1.528,1.528,0,0,1-.388-1.458,1.533,1.533,0,0,1,.077-.273,1.36,1.36,0,0,1,1.8-.67L-1286,32.044a.546.546,0,0,1,.276.7c0,.008,0,.016-.005.024h0A.73.73,0,0,1-1286.6,33.169Z" transform="translate(1319.278 -17.889)" fill="none" stroke="#010e30" stroke-linecap="round" stroke-linejoin="round" stroke-width="1.5"/>
            </g>
            <g id="Groupe_1336" data-name="Groupe 1336">
              <path id="Tracé_9982" data-name="Tracé 9982" d="M-1249.708,1.222l-.01.023c0-.008.01-.012.014-.02Z" transform="translate(1250.487 -0.925)" fill="none" stroke="#010e30" stroke-linecap="round" stroke-linejoin="round" stroke-width="1.5"/>
              <path id="Tracé_9983" data-name="Tracé 9983" d="M-1250.338,17.7l-.745-.055a26.31,26.31,0,0,1-11.571-3.746l-17.923-11.743a.728.728,0,0,1-.263-.914l-.691,1.507a.866.866,0,0,0,.313,1.085l17.825,11.679a26.323,26.323,0,0,0,11.57,3.746l.656.048a1.669,1.669,0,0,0,1.641-.969l.592-1.292-.046,0A1.526,1.526,0,0,1-1250.338,17.7Z" transform="translate(1281.61 -0.925)" fill="none" stroke="#010e30" stroke-linecap="round" stroke-linejoin="round" stroke-width="1.5"/>
              <path id="Tracé_9984" data-name="Tracé 9984" d="M-1281.514,2.159l17.923,11.743a26.31,26.31,0,0,0,11.571,3.746l.745.055a1.526,1.526,0,0,0,1.358-.657,1.5,1.5,0,0,0,.156-.237,1.36,1.36,0,0,0-.67-1.8L-1281.05.975a.546.546,0,0,0-.713.25c0,.008-.011.012-.014.02h0A.728.728,0,0,0-1281.514,2.159Z" transform="translate(1282.547 -0.925)" fill="none" stroke="#010e30" stroke-linecap="round" stroke-linejoin="round" stroke-width="1.5"/>
            </g>
          </g>
        </g>
      </g>
      <g id="Groupe_1342" data-name="Groupe 1342" transform="translate(8.996 23.034)">
        <g id="Groupe_1341" data-name="Groupe 1341">
          <path id="Tracé_9985" data-name="Tracé 9985" d="M-1385.058,24.174l21.544,9.873a15.36,15.36,0,0,1,3.935,2.6l12.949,11.778,17.468,8.005,17.468,8,17.376,2.118a15.357,15.357,0,0,1,4.538,1.282l21.545,9.873a2.361,2.361,0,0,1,1.163,3.13l-.226.492-23.8-10.907a10.335,10.335,0,0,0-4.323-.939l-19.167.029a12.053,12.053,0,0,1-5.038-1.1l-12.419-5.691-12.42-5.692a12.046,12.046,0,0,1-4.119-3.1L-1361.078,39.4a10.336,10.336,0,0,0-3.534-2.66l-23.8-10.907.226-.493A2.361,2.361,0,0,1-1385.058,24.174Z" transform="translate(1397.341 -23.959)" fill="none" stroke="#010e30" stroke-linecap="round" stroke-linejoin="round" stroke-width="1.5"/>
          <g id="Groupe_1340" data-name="Groupe 1340" transform="translate(0 1.871)">
            <path id="Tracé_9986" data-name="Tracé 9986" d="M-1333.25,82.8l-3.1,32.1h0a4.814,4.814,0,0,1-2.786-4.838l2.542-26.322c.027-.286.04-.572.052-.857l3.344-.926C-1333.211,82.24-1333.223,82.521-1333.25,82.8Z" transform="translate(1414.428 -25.83)" fill="none" stroke="#010e30" stroke-linecap="round" stroke-linejoin="round" stroke-width="1.5"/>
            <path id="Tracé_9987" data-name="Tracé 9987" d="M-1347.154,81.435a17.679,17.679,0,0,1,1.872,9.78l-3.474,35.965a5.392,5.392,0,0,1-3.121-5.421l2.847-29.49a17.68,17.68,0,0,0-1.809-9.655l-1.172-2.326,3.736-1.034Z" transform="translate(1439.281 -25.83)" fill="none" stroke="#010e30" stroke-linecap="round" stroke-linejoin="round" stroke-width="1.5"/>
            <path id="Tracé_9988" data-name="Tracé 9988" d="M-1275.972,66.95l-18.278,19.111a4.813,4.813,0,0,1-5.484,1.048h0l22.29-23.307c.2-.2.4-.4.6-.588l1.482,3.137C-1275.565,66.546-1275.773,66.743-1275.972,66.95Z" transform="translate(1317.161 -25.83)" fill="none" stroke="#010e30" stroke-linecap="round" stroke-linejoin="round" stroke-width="1.5"/>
            <path id="Tracé_9989" data-name="Tracé 9989" d="M-1260.457,58.178a17.679,17.679,0,0,0-8.495,4.933l-20.478,21.411a5.393,5.393,0,0,1-6.144,1.175l24.973-26.113a17.691,17.691,0,0,1,8.631-4.967l2.383-.575,1.657,3.505Z" transform="translate(1295.574 -25.83)" fill="none" stroke="#010e30" stroke-linecap="round" stroke-linejoin="round" stroke-width="1.5"/>
            <path id="Tracé_9990" data-name="Tracé 9990" d="M-1362.09,36.737a10.336,10.336,0,0,1,3.534,2.66l12.492,14.538a12.046,12.046,0,0,0,4.119,3.1l12.42,5.692,12.419,5.691a12.053,12.053,0,0,0,5.038,1.1l19.167-.029a10.335,10.335,0,0,1,4.323.939l23.8,10.907-1.764,3.85a3.486,3.486,0,0,1-4.62,1.717l-17.6-8.066a15.353,15.353,0,0,0-10.491-.839l-4.562,1.262-3.736,1.034-6.041,1.671-3.344.926-1.75.484a7.72,7.72,0,0,1-5.275-.423l-12.258-5.617-12.258-5.617a7.718,7.718,0,0,1-3.764-3.72l-.776-1.641-1.482-3.137-2.678-5.667-1.657-3.505-2.022-4.28a15.357,15.357,0,0,0-7.485-7.4l-17.6-8.065a3.486,3.486,0,0,1-1.717-4.62l1.764-3.849Z" transform="translate(1394.819 -25.83)" fill="none" stroke="#010e30" stroke-linecap="round" stroke-linejoin="round" stroke-width="1.5"/>
          </g>
        </g>
      </g>
      <path id="Tracé_9991" data-name="Tracé 9991" d="M-1331.87,42.788a2.945,2.945,0,0,1,2.621-.084l12.155,5.57,3.434,1.574a2.946,2.946,0,0,1,1.648,2.04l2.716,12.245-12.45-5.706-21.172-9.7Z" transform="translate(1403.279 -0.925)" fill="#010e30" stroke="#010e30" stroke-linecap="round" stroke-linejoin="round" stroke-width="1.5"/>
      <path id="Tracé_9992" data-name="Tracé 9992" d="M-1320.962,43.522l-9.195,8.072,8.527,3.907,6.075-9.5Z" transform="translate(1396.777 -0.925)" fill="#fff" stroke="#010e30" stroke-linecap="round" stroke-linejoin="round" stroke-width="1.5"/>
      <path id="Tracé_9993" data-name="Tracé 9993" d="M-1324.571,46.823l-5.595,9.721-1.787-.819,6.075-9.5Z" transform="translate(1407.589 -0.925)" fill="#fff" stroke="#010e30" stroke-linecap="round" stroke-linejoin="round" stroke-width="1.5"/>
      <rect id="Rectangle_677" data-name="Rectangle 677" width="22.641" height="17.319" rx="1.883" transform="translate(68.355 101.925) rotate(-155.38)" fill="none" stroke="#010e30" stroke-linecap="round" stroke-linejoin="round" stroke-width="1.5"/>
      <rect id="Rectangle_678" data-name="Rectangle 678" width="9.087" height="5.567" transform="translate(69.409 83.357) rotate(-155.38)" fill="none" stroke="#010e30" stroke-linecap="round" stroke-linejoin="round" stroke-width="1.5"/>
      <path id="Rectangle_679" data-name="Rectangle 679" d="M1.652,0H5.728A1.652,1.652,0,0,1,7.379,1.652v.707a0,0,0,0,1,0,0H0a0,0,0,0,1,0,0V1.652A1.652,1.652,0,0,1,1.652,0Z" transform="translate(60.435 100.891) rotate(-155.38)" fill="none" stroke="#010e30" stroke-linecap="round" stroke-linejoin="round" stroke-width="1.5"/>
      <path id="Tracé_9994" data-name="Tracé 9994" d="M-1315.214,88.15a5.072,5.072,0,0,1,6.722-2.5,5.07,5.07,0,0,1,2.5,6.721,5.069,5.069,0,0,1-6.721,2.5A5.07,5.07,0,0,1-1315.214,88.15Z" transform="translate(1372.276 -0.925)" fill="#010e30"/>
      <ellipse id="Ellipse_147" data-name="Ellipse 147" cx="6.554" cy="6.554" rx="6.554" ry="6.554" transform="translate(64.899 98.026) rotate(-155.38)" fill="none" stroke="#010e30" stroke-linecap="round" stroke-linejoin="round" stroke-width="1.5"/>
      <path id="Tracé_9995" data-name="Tracé 9995" d="M-1313.809,88.832a2.193,2.193,0,0,1,2.906-1.08,2.193,2.193,0,0,1,1.08,2.906,2.192,2.192,0,0,1-2.906,1.08A2.192,2.192,0,0,1-1313.809,88.832Z" transform="translate(1374.697 -0.925)" fill="#f8fafb"/>
    </g>
  </g>
</svg>
