<svg id="Edit" xmlns="http://www.w3.org/2000/svg" width="20.655" height="18.36" viewBox="0 0 20.655 18.36">
  <g id="Groupe_850" data-name="Groupe 850">
    <path id="Tracé_12157" data-name="Tracé 12157" d="M15.521,15l-3.478,3.478A.652.652,0,0,0,12.5,19.59h7.607a2.3,2.3,0,0,0,2.3-2.3h0A2.3,2.3,0,0,0,20.111,15Z" transform="translate(-1.751 -1.23)" fill="#fff"/>
    <path id="Tracé_12158" data-name="Tracé 12158" d="M15.646,8.393l-10.4,10.4v4.3h4.3l10.4-10.4ZM8.6,20.8H7.545V19.741l8.1-8.1L16.7,12.7Z" transform="translate(-5.25 -4.732)" fill="#fff"/>
    <path id="Tracé_12159" data-name="Tracé 12159" d="M19.25,10.636a1.14,1.14,0,0,0,0-1.617L16.564,6.334A1.123,1.123,0,0,0,15.75,6a1.144,1.144,0,0,0-.8.334l-2.1,2.1,4.3,4.3Z" transform="translate(-1.223 -6)" fill="#fff"/>
  </g>
</svg>
