<svg xmlns="http://www.w3.org/2000/svg" width="22.97" height="22" viewBox="0 0 22.97 22">
  <g id="Home" transform="translate(-809.111 -94.987)">
    <path id="HomeSelected" d="M836.022,114.577c-.087-.072-11.389-11.306-11.521-11.475-.1.154-7.912,7.783-11.445,11.467-.061.063,1.672.043,3.431.089,0,2,0,5.944,0,7.668a2.72,2.72,0,0,0,1.048,2.2,2.482,2.482,0,0,0,1.6.572q5.383,0,10.765,0a2.889,2.889,0,0,0,2.855-2.774c0-1.691-.068-5.7-.065-7.75C834.565,114.56,836.09,114.634,836.022,114.577Z" transform="translate(-3.943 -8.115)" fill="#55aaa0"/>
  </g>
</svg>
