<svg xmlns="http://www.w3.org/2000/svg" width="49" height="49" viewBox="0 0 49 49">
  <g id="JooL_Plan" transform="translate(-30.852 5.11)">
    <rect id="Rectangle_1142" data-name="Rectangle 1142" width="49" height="49" rx="10" transform="translate(30.852 -5.11)" fill="#fff"/>
    <path id="Tracé_84" data-name="Tracé 84" d="M369.062,21.932l6.472-10.241-1.954-.008-7.7,11.892h10.3l.153-1.623Z" transform="translate(-299.035 0)" fill="#55aaa0"/>
    <path id="Tracé_85" data-name="Tracé 85" d="M33.4,22.455l.992-1.013a3.133,3.133,0,0,0,2.532,1.333,2.258,2.258,0,0,0,1.135-.3,3.277,3.277,0,0,0,1.292-2.195c.4-1.734,1.076-4.436,1.881-7.886h1.788l-2.313,9.1a3.776,3.776,0,0,1-1.479,2.232,3.723,3.723,0,0,1-2.2.629,4.141,4.141,0,0,1-3.63-1.9" transform="translate(0 -0.637)" fill="#55aaa0"/>
    <path id="Tracé_86" data-name="Tracé 86" d="M145.9,38.147l-.333.682c-1.064,2.178-3.831,4.821-5.674,4.836h-.04c-2.768,0-4.973-2.224-5.808-3.2.825-1,3.01-3.273,5.793-3.295a3.264,3.264,0,0,1,2.039.7l.593.472.939-1.19-.593-.472a4.824,4.824,0,0,0-2.986-1.03c-3.233.026-5.675,2.354-6.758,3.611-1.1-1.233-3.554-3.5-6.761-3.5h-.054a4.758,4.758,0,0,0-4.711,4.8,4.771,4.771,0,0,0,4.748,4.73h.038c3.234-.026,5.675-2.354,6.759-3.611,1.1,1.233,3.554,3.5,6.76,3.5h.054a6.687,6.687,0,0,0,4-1.868,12.494,12.494,0,0,0,3.019-3.818l.333-.682Zm-13.781,2.33c-.825,1-3.011,3.273-5.795,3.295h-.029a3.252,3.252,0,0,1-2.306-5.528,3.209,3.209,0,0,1,2.283-.97h.038c2.768,0,4.973,2.224,5.808,3.2" transform="translate(-79.276 -21.545)" fill="#55aaa0"/>
    <path id="Tracé_87" data-name="Tracé 87" d="M345.375,57.571l-.825-2.245-2.244.831-.414-1.127,2.562-.949a.912.912,0,0,1,.655.026.852.852,0,0,1,.445.483l.946,2.573-1.115.413a.008.008,0,0,1-.01,0" transform="translate(-277.457 -38.073)" fill="#55aaa0"/>
    <path id="Tracé_88" data-name="Tracé 88" d="M344.973,57.3l-.033-.012-.009-.018-.813-2.212-2.244.831-.439-1.194,2.6-.961a.95.95,0,0,1,.682.027.887.887,0,0,1,.464.5l.958,2.606Zm-.011-.072h0Zm-.8-2.262.828,2.253,1.055-.391-.933-2.539a.816.816,0,0,0-.427-.463.874.874,0,0,0-.628-.024l-2.528.936.389,1.059Z" transform="translate(-277.046 -37.755)" fill="#55aaa0"/>
    <rect id="Rectangle_687" data-name="Rectangle 687" width="7.218" height="2.594" transform="translate(69.954 24.502)" fill="#282828"/>
    <g id="Groupe_2" data-name="Groupe 2" transform="translate(71.284 25.039)">
      <path id="Tracé_89" data-name="Tracé 89" d="M410.87,144.413a.4.4,0,0,1-.146.33.652.652,0,0,1-.412.115h-.228v.613h-.1v-1.484h.362Q410.87,143.987,410.87,144.413Zm-.786.355h.2a.613.613,0,0,0,.361-.083.312.312,0,0,0,.111-.268.3.3,0,0,0-.105-.254.524.524,0,0,0-.326-.083h-.244Z" transform="translate(-409.981 -143.981)" fill="#fff"/>
      <path id="Tracé_90" data-name="Tracé 90" d="M422.018,145.471v-1.484h.1v1.386h.7v.1Z" transform="translate(-420.807 -143.981)" fill="#fff"/>
      <path id="Tracé_91" data-name="Tracé 91" d="M431.42,144.894h-.6l-.206.524H430.5l.594-1.49h.066l.582,1.49h-.116Zm-.563-.093h.529l-.2-.535q-.025-.063-.061-.175a1.657,1.657,0,0,1-.06.177Z" transform="translate(-428.435 -143.928)" fill="#fff"/>
      <path id="Tracé_92" data-name="Tracé 92" d="M446,145.471h-.1l-.875-1.317h-.008q.012.235.012.355v.962h-.1v-1.484h.1l.874,1.315h.006q-.009-.183-.009-.347v-.968h.1Z" transform="translate(-441.413 -143.981)" fill="#fff"/>
    </g>
  </g>
</svg>
