<svg xmlns="http://www.w3.org/2000/svg" width="150" height="52.672" viewBox="0 0 150 52.672">
  <g id="JooL_Plan" transform="translate(-33.405 -11.683)">
    <path id="Tracé_84" data-name="Tracé 84" d="M376.746,46.707l22.117-35-6.677-.027-26.3,40.638,35.191,0,.523-5.545Z" transform="translate(-218.192 0)" fill="#55aaa0"/>
    <path id="Tracé_85" data-name="Tracé 85" d="M33.4,46.781l3.389-3.463a10.7,10.7,0,0,0,8.654,4.557,7.717,7.717,0,0,0,3.879-1.032c3.129-1.848,4-5.7,4.417-7.5,1.367-5.927,3.678-15.159,6.429-26.949h6.112l-7.9,31.114a12.9,12.9,0,0,1-5.055,7.626,12.723,12.723,0,0,1-7.513,2.15,14.15,14.15,0,0,1-12.405-6.5" transform="translate(0 -0.464)" fill="#55aaa0"/>
    <path id="Tracé_86" data-name="Tracé 86" d="M204.768,44.186l-1.137,2.33c-3.635,7.444-13.093,16.476-19.39,16.526H184.1c-9.459,0-16.994-7.6-19.848-10.945,2.818-3.409,10.288-11.185,19.8-11.26a11.156,11.156,0,0,1,6.968,2.4l2.025,1.612,3.21-4.067-2.025-1.611a16.484,16.484,0,0,0-10.2-3.519c-11.05.087-19.392,8.044-23.1,12.341-3.751-4.214-12.145-11.974-23.1-11.974h-.184a16.261,16.261,0,0,0-16.1,16.42A16.3,16.3,0,0,0,137.772,68.6h.129c11.053-.088,19.393-8.044,23.1-12.341,3.752,4.214,12.147,11.974,23.1,11.974h.185c4.052-.032,8.907-2.3,13.671-6.385A42.7,42.7,0,0,0,208.272,48.8l1.137-2.33ZM157.674,52.15c-2.819,3.41-10.29,11.185-19.8,11.26h-.1a11.112,11.112,0,0,1-7.88-18.891,10.967,10.967,0,0,1,7.8-3.314h.131c9.459,0,16.994,7.6,19.849,10.945" transform="translate(-57.844 -15.695)" fill="#55aaa0"/>
    <path id="Tracé_87" data-name="Tracé 87" d="M353.795,66.124l-2.82-7.672-7.668,2.84-1.415-3.85,8.757-3.243a3.116,3.116,0,0,1,2.237.088,2.911,2.911,0,0,1,1.521,1.651l3.232,8.792L353.83,66.14a.027.027,0,0,1-.035-.016" transform="translate(-202.447 -27.734)" fill="#55aaa0"/>
    <path id="Tracé_88" data-name="Tracé 88" d="M353.525,66.041,353.412,66l-.032-.063L350.6,58.378l-7.668,2.84-1.5-4.08,8.871-3.285a3.247,3.247,0,0,1,2.33.091,3.032,3.032,0,0,1,1.585,1.72l3.274,8.907Zm-.037-.247h0Zm-2.741-7.73,2.829,7.7,3.606-1.335-3.189-8.677a2.789,2.789,0,0,0-1.458-1.582,2.988,2.988,0,0,0-2.145-.083l-8.64,3.2,1.33,3.62Z" transform="translate(-202.147 -27.502)" fill="#55aaa0"/>
    <rect id="Rectangle_687" data-name="Rectangle 687" width="24.666" height="8.864" transform="translate(158.306 55.491)" fill="#282828"/>
    <g id="Groupe_2" data-name="Groupe 2" transform="translate(162.85 57.324)">
      <path id="Tracé_89" data-name="Tracé 89" d="M413.021,145.444a1.349,1.349,0,0,1-.5,1.127,2.229,2.229,0,0,1-1.409.392h-.781v2.095h-.352v-5.07h1.236Q413.02,143.987,413.021,145.444Zm-2.687,1.214h.694a2.094,2.094,0,0,0,1.233-.283,1.067,1.067,0,0,0,.38-.917,1.037,1.037,0,0,0-.359-.869,1.79,1.79,0,0,0-1.113-.283h-.836Z" transform="translate(-409.981 -143.967)" fill="#fff"/>
      <path id="Tracé_90" data-name="Tracé 90" d="M422.018,149.057v-5.07h.352v4.737h2.408v.333Z" transform="translate(-417.88 -143.967)" fill="#fff"/>
      <path id="Tracé_91" data-name="Tracé 91" d="M433.646,147.229h-2.051l-.7,1.79h-.39l2.031-5.091h.225l1.989,5.091h-.4Zm-1.924-.319h1.806l-.687-1.828q-.086-.215-.207-.6a5.659,5.659,0,0,1-.2.6Z" transform="translate(-423.446 -143.928)" fill="#fff"/>
      <path id="Tracé_92" data-name="Tracé 92" d="M448.6,149.057h-.356l-2.991-4.5h-.027q.041.8.041,1.213v3.288h-.338v-5.07h.352l2.988,4.495h.021q-.031-.624-.031-1.186v-3.308h.342Z" transform="translate(-432.915 -143.967)" fill="#fff"/>
    </g>
  </g>
</svg>
