<svg xmlns="http://www.w3.org/2000/svg" width="40" height="40" viewBox="0 0 40 40">
  <g id="KML" transform="translate(300.93 -166)">
    <path id="Tracé_8034" data-name="Tracé 8034" d="M-268.419,193.5a1.529,1.529,0,0,0,1.482-1.563V172.251A6.1,6.1,0,0,0-272.869,166h-18.2A6.1,6.1,0,0,0-297,172.251v27.5A6.1,6.1,0,0,0-291.073,206h18.2a6.1,6.1,0,0,0,5.927-6.248,1.521,1.521,0,0,0-1.479-1.565,1.523,1.523,0,0,0-1.484,1.557v.008a3.048,3.048,0,0,1-2.963,3.123h-18.2a3.048,3.048,0,0,1-2.963-3.123v-27.5a3.052,3.052,0,0,1,2.963-3.125h18.2a3.052,3.052,0,0,1,2.963,3.125v19.688a1.523,1.523,0,0,0,1.482,1.563Z" transform="translate(6.007)" fill="#282828"/>
    <path id="Tracé_8035" data-name="Tracé 8035" d="M-293.416,172.886v2.461l2.645-2.909a2.416,2.416,0,0,1,.324-.312.584.584,0,0,1,.357-.1.646.646,0,0,1,.47.179.6.6,0,0,1,.177.44.888.888,0,0,1-.3.616l-1.636,1.637,1.886,2.851a3.364,3.364,0,0,1,.3.52,1.064,1.064,0,0,1,.1.432.562.562,0,0,1-.174.408.648.648,0,0,1-.475.171.759.759,0,0,1-.458-.128,1.047,1.047,0,0,1-.3-.336c-.081-.139-.152-.267-.217-.381l-1.591-2.587-1.1,1.115v1.451a.947.947,0,0,1-.192.653.625.625,0,0,1-.488.213.628.628,0,0,1-.331-.1.637.637,0,0,1-.245-.259.874.874,0,0,1-.078-.309c-.008-.117-.013-.291-.013-.512v-5.216a1,1,0,0,1,.18-.645.6.6,0,0,1,.488-.216.623.623,0,0,1,.49.213A.949.949,0,0,1-293.416,172.886Z" transform="translate(9.424 10.042)" fill="#282828"/>
    <path id="Tracé_8036" data-name="Tracé 8036" d="M-289.768,178.027l-1.067-4.469V178.4a.913.913,0,0,1-.169.6.558.558,0,0,1-.45.2.558.558,0,0,1-.445-.2.9.9,0,0,1-.172-.6v-5.552a.707.707,0,0,1,.228-.619,1.036,1.036,0,0,1,.612-.16h.417a1.512,1.512,0,0,1,.546.072.474.474,0,0,1,.253.259,4.172,4.172,0,0,1,.185.608l.966,3.84.968-3.84a3.875,3.875,0,0,1,.185-.608.47.47,0,0,1,.25-.259,1.517,1.517,0,0,1,.549-.072h.417a1.047,1.047,0,0,1,.612.16.714.714,0,0,1,.228.619V178.4a.913.913,0,0,1-.172.6.565.565,0,0,1-.455.2.552.552,0,0,1-.44-.2.912.912,0,0,1-.172-.6v-4.843l-1.067,4.469c-.068.291-.126.5-.169.637a.875.875,0,0,1-.243.371.684.684,0,0,1-.49.168.722.722,0,0,1-.4-.107.742.742,0,0,1-.255-.275,1.666,1.666,0,0,1-.144-.373C-289.694,178.315-289.732,178.174-289.768,178.027Z" transform="translate(13.54 10.117)" fill="#282828"/>
    <path id="Tracé_8037" data-name="Tracé 8037" d="M-287.65,172.886v5.1h2.731a.689.689,0,0,1,.5.168.564.564,0,0,1,.177.421.54.54,0,0,1-.174.419.709.709,0,0,1-.5.16h-3.251a.835.835,0,0,1-.632-.205.95.95,0,0,1-.195-.664v-5.4a.969.969,0,0,1,.185-.645.6.6,0,0,1,.483-.216.632.632,0,0,1,.493.213A.962.962,0,0,1-287.65,172.886Z" transform="translate(18.237 10.042)" fill="#282828"/>
    <path id="Tracé_9587" data-name="Tracé 9587" d="M44.28,23.763a1.707,1.707,0,0,1-2.495-.206L36.721,17.3V34.631a1.771,1.771,0,1,1-3.537,0V17.293L28.1,23.557a1.708,1.708,0,0,1-2.495.206,1.937,1.937,0,0,1-.2-2.631l8.2-10.1.047-.039a2,2,0,0,1,.419-.334c.056-.029.1-.088.158-.108a1.64,1.64,0,0,1,.717-.167h.028a1.828,1.828,0,0,1,.689.167,1.046,1.046,0,0,1,.168.118,1.487,1.487,0,0,1,.41.324l.056.039,8.173,10.1A1.937,1.937,0,0,1,44.28,23.763Z" transform="translate(-325.918 155.951)" fill="#55aaa0"/>
  </g>
</svg>
