<svg xmlns="http://www.w3.org/2000/svg" width="15" height="18.752" viewBox="0 0 15 18.752">
  <g id="Marqueur" transform="translate(-291.443 -419.662)">
    <g id="Groupe_1472" data-name="Groupe 1472" transform="translate(291.443 419.662)">
      <circle id="Ellipse_163" data-name="Ellipse 163" cx="6" cy="6" r="6" transform="translate(1.375 1.72)" fill="#55aaa0"/>
      <path id="Tracé_12595" data-name="Tracé 12595" d="M296.345,438.414a.985.985,0,0,1-.2-.265c-.06-.191.112-.357.349-.358.591,0,1.182,0,1.8,0a1.553,1.553,0,0,0-.081-.134q-1.5-1.966-2.995-3.93a.793.793,0,0,0-.2-.177,7.368,7.368,0,0,1-3.525-5.625,7.5,7.5,0,1,1,11.406,5.616.824.824,0,0,0-.221.186q-1.5,1.963-3,3.93c-.025.033-.047.068-.092.134h.271c.495,0,.989,0,1.483,0,.178,0,.331.027.4.219s-.054.307-.194.406Zm2.6-.828,2.529-3.321c-.212.031-.4.1-.583.141a.308.308,0,0,1-.367-.4c.048-.157.184-.2.321-.237a6.874,6.874,0,1,0-8.749-7.066,6.678,6.678,0,0,0,2.158,5.478,6.585,6.585,0,0,0,2.82,1.6c.246.069.353.229.292.423s-.23.247-.469.178c-.156-.046-.31-.1-.514-.16Z" transform="translate(-291.443 -419.662)" fill="#fff"/>
      <path id="Tracé_12596" data-name="Tracé 12596" d="M300,438.623l-2.563-3.366c.2.064.358.114.514.16.239.07.412,0,.469-.178s-.046-.354-.292-.423a6.585,6.585,0,0,1-2.82-1.6,6.678,6.678,0,0,1-2.158-5.478,6.869,6.869,0,1,1,8.749,7.066c-.137.04-.273.08-.321.237a.308.308,0,0,0,.367.4c.188-.045.371-.11.584-.141Zm6.252-10.412a6.252,6.252,0,1,0-6.216,6.238A6.283,6.283,0,0,0,306.255,428.211Z" transform="translate(-292.501 -420.699)" fill="#55aaa0"/>
      <path id="Tracé_12597" data-name="Tracé 12597" d="M307.281,429.26a6.252,6.252,0,1,1-6.237-6.26A6.273,6.273,0,0,1,307.281,429.26Zm-1.565,3.078a5.536,5.536,0,0,0-.213-6.442,6.752,6.752,0,0,0-.53-.648,8.9,8.9,0,0,0-1.77-1.176,6.5,6.5,0,0,0-1.017-.306,5.56,5.56,0,0,0-6.158,7.945s.481.862.68,1.123a9.682,9.682,0,0,0,.824.846l.828.515a5.593,5.593,0,0,0,6.616-.957Z" transform="translate(-293.527 -421.748)" fill="#fff"/>
    </g>
    <g id="Groupe_1473" data-name="Groupe 1473" transform="translate(295.36 423.283)">
      <path id="Tracé_12598" data-name="Tracé 12598" d="M309.054,431.109a.9.9,0,0,0-.9-.892h0a.9.9,0,0,0-.813.529l-.765-.128-.075.442.769.128a.9.9,0,0,0,.552.749l-.218,1.645a.894.894,0,0,0-.788.885v0l-2.582.681a.891.891,0,0,0-.663-.448l-.457-3.659a.9.9,0,0,0,.489-.468l.692.116.075-.441-.7-.117a.894.894,0,0,0-.967-.814h0a.894.894,0,0,0-.814.967h0a.894.894,0,0,0,.778.81l.457,3.659a.9.9,0,0,0-.5,1.162h0a.9.9,0,0,0,1.729-.33v0l2.581-.681a.893.893,0,0,0,1.216.342h0a.893.893,0,0,0,.342-1.216h0a.894.894,0,0,0-.444-.391l.218-1.645A.894.894,0,0,0,309.054,431.109Zm-6.27-.448a.448.448,0,1,1,.448-.448h0a.448.448,0,0,1-.447.448Zm.672,5.373a.448.448,0,1,1,.448-.448h0a.448.448,0,0,1-.447.449h0Zm4.7-1.568a.448.448,0,1,1-.448-.448.448.448,0,0,1,.448.448Zm-.448-3.357a.448.448,0,1,1,.448.448h0a.448.448,0,0,1-.448-.448Z" transform="translate(-301.888 -429.316)" fill="#fff"/>
      <rect id="Rectangle_831" data-name="Rectangle 831" width="0.448" height="0.448" transform="matrix(0.165, -0.986, 0.986, 0.165, 3.731, 1.596)" fill="#fff"/>
      <rect id="Rectangle_832" data-name="Rectangle 832" width="0.448" height="0.448" transform="translate(2.847 1.449) rotate(-80.5)" fill="#fff"/>
      <path id="Tracé_12599" data-name="Tracé 12599" d="M309,435.233a.067.067,0,0,1,.067-.067h.017a.068.068,0,1,1,0,.135h-.016a.067.067,0,0,1-.068-.066Zm.092,1.56a.068.068,0,0,0,.068.068h.016a.067.067,0,0,0,0-.134h-.017a.067.067,0,0,0-.066.067Zm.075-.307a.307.307,0,0,1,.305.31h0a.308.308,0,0,1-.238.3v.2a.067.067,0,0,1-.133,0v-.2a.307.307,0,0,1,.066-.607Zm0,.134a.174.174,0,0,0-.173.174h0a.173.173,0,1,0,.174-.174Zm-1.08-.719a.308.308,0,0,1,.616,0h0a.308.308,0,0,1-.24.3v.2a.067.067,0,0,1-.134,0v-.2a.308.308,0,0,1-.242-.3Zm.135,0a.173.173,0,0,0,.173.173h0a.173.173,0,0,0,.174-.172h0a.173.173,0,0,0-.173-.173h0a.173.173,0,0,0-.174.172h0Zm.546-.667a.307.307,0,0,1,.308-.307h0a.308.308,0,0,1,.067.608v.2a.067.067,0,0,1-.134,0v-.2a.308.308,0,0,1-.242-.3Zm.134,0a.173.173,0,0,0,.173.174h0a.173.173,0,0,0,.173-.173h0a.173.173,0,0,0-.173-.173h0a.174.174,0,0,0-.174.173Zm1,.852-.113-.041-.093-.634a.237.237,0,0,0-.117-.176.067.067,0,0,0-.067.116.1.1,0,0,1,.052.079l.1.673a.068.068,0,0,0,.044.054l.15.054c.1.038.112.063.11.081l-.161,1.105a.115.115,0,0,1-.1.1l-1.017.222a.031.031,0,0,1-.025-.005.154.154,0,0,1-.049-.094l-.005-.032a.067.067,0,0,0-.077-.055h0l-.012,0-.9.325c-.013,0-.029-.008-.033-.012a.082.082,0,0,1-.031-.068l.312-1.867a.136.136,0,0,1,.056-.1.067.067,0,0,0,.043-.085h0a.067.067,0,0,0-.085-.043h0l-.008,0a.257.257,0,0,0-.139.2l-.312,1.867a.214.214,0,0,0,.078.193.176.176,0,0,0,.113.043.155.155,0,0,0,.052-.009l.827-.3a.257.257,0,0,0,.1.137.161.161,0,0,0,.128.026l1.018-.222a.247.247,0,0,0,.206-.21l.161-1.1c.023-.147-.136-.206-.2-.227Zm-1.515-.118h.016a.067.067,0,0,0,.01-.134h-.026a.067.067,0,0,0-.01.134h.01Zm-.126-.5h.012a.067.067,0,0,0,.066-.056l.031-.2a.151.151,0,0,1,.05-.094.029.029,0,0,1,.025,0l.166.038a.066.066,0,0,0,.076-.056h0a.067.067,0,0,0-.048-.075l-.166-.037a.161.161,0,0,0-.128.025.279.279,0,0,0-.107.184l-.034.2a.067.067,0,0,0,.055.076Z" transform="translate(-305.348 -432.822)" fill="#fff"/>
    </g>
  </g>
</svg>
