<svg id="Parcelisation-1" xmlns="http://www.w3.org/2000/svg" width="42" height="42" viewBox="0 0 42 42">
  <rect id="Rectangle_408" data-name="Rectangle 408" width="42" height="42" rx="5" fill="#fff" opacity="0"/>
  <g id="Groupe_317" data-name="Groupe 317" transform="translate(9.401 10.053)">
    <path id="Tracé_9650" data-name="Tracé 9650" d="M332.88,439.438a8.15,8.15,0,0,1,.4-1.255,3.564,3.564,0,0,1,2.867-2.042c.169-.023.2-.093.2-.25a5.553,5.553,0,0,1,6.217-5.528c.076.008.152.011.227.023.2.036.434.156.592.091s.234-.323.362-.483a4.9,4.9,0,0,1,8.687,1.948,4.588,4.588,0,0,1-.451,3.257.239.239,0,0,0,.065.343,4.634,4.634,0,0,1-1.823,7.79,5.137,5.137,0,0,1-1.462.212q-6.049.025-12.1.008a3.709,3.709,0,0,1-3.751-3.255.336.336,0,0,0-.036-.08Zm9.876,3.252q2.973,0,5.947,0a5.117,5.117,0,0,0,.774-.053,3.782,3.782,0,1,0-2.147-7.189c-.5.212-.711.1-.814-.415a4.7,4.7,0,0,0-9.3,1.155c.029.7-.022.759-.742.78a2.862,2.862,0,0,0,.131,5.722C338.654,442.7,340.7,442.689,342.756,442.689Zm8.409-7.808a4.021,4.021,0,0,0-6.942-4.056l.946.565a9.531,9.531,0,0,1,1.049-.877,2.683,2.683,0,0,1,2.435-.2.416.416,0,0,1-.2.8,1.647,1.647,0,0,1-.289-.063,1.974,1.974,0,0,0-2.165.8.205.205,0,0,0,.019.309,5.28,5.28,0,0,1,1.034,1.631c.1.238.171.485.26.743A4.669,4.669,0,0,1,351.165,434.882Z" transform="translate(-332.88 -424.347)" fill="#282828"/>
    <path id="Tracé_9651" data-name="Tracé 9651" d="M365.833,427.837c-.116-.1-.271-.176-.319-.294a.528.528,0,0,1,.033-.419,2.821,2.821,0,0,1,.434-.466c.3-.3.6-.6.911-.9a.437.437,0,0,1,.631-.04.417.417,0,0,1-.018.628q-.649.66-1.315,1.3A1.612,1.612,0,0,1,365.833,427.837Z" transform="translate(-346.393 -423.334)" fill="#55aaa0"/>
    <path id="Tracé_9652" data-name="Tracé 9652" d="M353.51,422.272c0-.323.144-.5.355-.539a.416.416,0,0,1,.468.314c.146.5.276,1.012.412,1.519a2.513,2.513,0,0,1,.083.355.416.416,0,0,1-.289.441.38.38,0,0,1-.485-.192C353.848,423.51,353.671,422.842,353.51,422.272Z" transform="translate(-341.43 -421.728)" fill="#55aaa0"/>
    <path id="Tracé_9653" data-name="Tracé 9653" d="M360.719,424.406a.408.408,0,0,1-.406-.512c.149-.6.316-1.2.493-1.8a.409.409,0,0,1,.522-.283.426.426,0,0,1,.286.525q-.22.872-.463,1.739A.409.409,0,0,1,360.719,424.406Z" transform="translate(-344.243 -421.753)" fill="#55aaa0"/>
    <path id="Tracé_9654" data-name="Tracé 9654" d="M368.869,439.051a1.082,1.082,0,0,1,.148.024c.535.145,1.07.29,1.6.44.3.084.439.283.381.526a.428.428,0,0,1-.59.3q-.837-.219-1.669-.457a.421.421,0,0,1,.128-.832Z" transform="translate(-347.603 -428.907)" fill="#55aaa0"/>
    <path id="Tracé_9655" data-name="Tracé 9655" d="M349.053,427.237a1.561,1.561,0,0,1-.3.345.389.389,0,0,1-.5-.1c-.28-.28-.558-.562-.837-.843-.139-.141-.283-.278-.417-.423a.426.426,0,0,1-.014-.615.409.409,0,0,1,.61.013q.646.631,1.27,1.282A1.636,1.636,0,0,1,349.053,427.237Z" transform="translate(-338.676 -423.281)" fill="#55aaa0"/>
    <path id="Tracé_9656" data-name="Tracé 9656" d="M368.88,433.557a.423.423,0,0,1-.432-.317.4.4,0,0,1,.251-.479c.257-.092.524-.155.788-.227.33-.091.659-.185.991-.264a.431.431,0,0,1,.542.295.413.413,0,0,1-.3.516c-.577.165-1.159.312-1.74.464A.674.674,0,0,1,368.88,433.557Z" transform="translate(-347.616 -426.091)" fill="#55aaa0"/>
  </g>
</svg>
