<svg xmlns="http://www.w3.org/2000/svg" width="22" height="15.744" viewBox="0 0 22 15.744">
  <g id="ParametreSelected" transform="translate(-286.638 -410.238)">
    <path id="Tracé_12577" data-name="Tracé 12577" d="M286.638,417.248c.692-.292,1.385-.582,2.074-.881.075-.033.126-.121.187-.185.01-.01.011-.027.019-.038a1.354,1.354,0,0,0-.018-1.569,8.84,8.84,0,0,1-.5-1.142.3.3,0,0,1,.084-.4q.492-.451.953-.936a.318.318,0,0,1,.4-.087c.613.242,1.226.486,1.844.715a.535.535,0,0,0,.338,0,2.105,2.105,0,0,0,.794-.356,2.411,2.411,0,0,0,.332-.782c.158-.385.323-.766.482-1.151a.287.287,0,0,1,.311-.2c.467.012.934.01,1.4,0a.281.281,0,0,1,.3.182c.26.6.528,1.193.783,1.793a.568.568,0,0,0,.275.272,1.406,1.406,0,0,0,1.559-.015,10.988,10.988,0,0,1,1.168-.493.348.348,0,0,1,.452.093c.305.324.628.632.953.935a.267.267,0,0,1,.078.34c-.251.61-.5,1.22-.74,1.834a.6.6,0,0,0-.005.319,1.37,1.37,0,0,0,1.133,1.113,10.345,10.345,0,0,1,1.24.487.254.254,0,0,1,.178.278c-.009.459-.01.919,0,1.379a.273.273,0,0,1-.184.3c-.615.257-1.231.511-1.841.782a.7.7,0,0,0-.26.249,1.333,1.333,0,0,0,.018,1.566,9.9,9.9,0,0,1,.513,1.182.255.255,0,0,1-.074.323c-.334.316-.665.635-.983.966a.31.31,0,0,1-.38.09c-.62-.245-1.24-.491-1.864-.725a.5.5,0,0,0-.318,0,2.094,2.094,0,0,0-.8.352,2.491,2.491,0,0,0-.345.8c-.163.391-.332.778-.495,1.168a.26.26,0,0,1-.282.176c-.474-.008-.948-.009-1.422,0a.282.282,0,0,1-.3-.189c-.26-.6-.527-1.193-.782-1.793a.547.547,0,0,0-.26-.258,1.441,1.441,0,0,0-1.6.017,10.576,10.576,0,0,1-1.229.514.26.26,0,0,1-.321-.083c-.322-.327-.649-.65-.984-.964a.284.284,0,0,1-.089-.358c.244-.589.476-1.183.724-1.771a.606.606,0,0,0,.012-.426,1.4,1.4,0,0,0-1.094-1.054,11.88,11.88,0,0,1-1.444-.6Zm8.065-1.655a2.517,2.517,0,1,0,2.54,2.594A2.544,2.544,0,0,0,294.7,415.593Z" fill="#55aaa0"/>
    <path id="Tracé_12578" data-name="Tracé 12578" d="M302.218,412c.086,0,.172,0,.258,0a.558.558,0,0,0,.65-.635,6.843,6.843,0,0,1,.018-.688c.006-.065.078-.134.135-.18s.126-.037.179-.07a.6.6,0,0,1,.907.207c.053.075.14.127.189.2.158.247.4.244.647.236a.311.311,0,0,0,.178-.1c.2-.185.394-.377.59-.566a.21.21,0,0,1,.287-.04.616.616,0,0,0,.195.089.536.536,0,0,1,.457.7c-.017.1.007.2-.01.3a.554.554,0,0,0,.246.592.545.545,0,0,0,.258.109c.279.02.561.008.839.034.075.007.143.1.21.163.019.017.024.051.035.078.232.588.232.588-.239,1.03l-.158.147a.555.555,0,0,0-.01.877c.168.167.342.329.493.511a.436.436,0,0,1,.04.262.478.478,0,0,1-.068.157c-.223.5-.223.5-.763.486a1.04,1.04,0,0,1-.257-.017c-.3-.088-.488.093-.66.29a.336.336,0,0,0-.051.2c-.006.266-.006.531,0,.8a.207.207,0,0,1-.171.235.312.312,0,0,0-.1.036.659.659,0,0,1-1.008-.233c-.04-.059-.109-.1-.145-.158-.157-.268-.415-.244-.664-.23a.344.344,0,0,0-.175.107c-.19.175-.375.356-.561.535a.223.223,0,0,1-.307.047.491.491,0,0,0-.157-.07.594.594,0,0,1-.5-.785c.013-.077-.009-.161.011-.235.079-.3-.1-.473-.293-.637a.356.356,0,0,0-.2-.058c-.28-.013-.561-.006-.839-.032-.077-.007-.156-.09-.216-.155a.581.581,0,0,1-.074-.178c-.193-.489-.194-.49.191-.86a1.15,1.15,0,0,1,.207-.189c.263-.149.249-.4.237-.641a.329.329,0,0,0-.1-.176c-.188-.2-.382-.39-.575-.583a.214.214,0,0,1-.044-.3.423.423,0,0,0,.036-.078C301.612,411.979,301.612,411.979,302.218,412Zm1.522,1.927a1.239,1.239,0,0,0,1.236,1.23,1.2,1.2,0,0,0,1.227-1.2,1.264,1.264,0,0,0-1.252-1.224A1.2,1.2,0,0,0,303.74,413.923Z" fill="#55aaa0"/>
  </g>
</svg>
