<svg xmlns="http://www.w3.org/2000/svg" width="22" height="15.744" viewBox="0 0 22 15.744">
  <g id="Paarametres" transform="translate(-286.638 -410.238)">
    <g id="ParametresUnselected">
      <path id="Tracé_12579" data-name="Tracé 12579" d="M294.91,411.245l.09.2c.169.385.339.77.5,1.157a1.544,1.544,0,0,0,.683.739,2.457,2.457,0,0,0,1.271.37,2.577,2.577,0,0,0,1.306-.38,3.939,3.939,0,0,1,.587-.252l.085-.031c.122.123.245.243.367.359-.192.468-.382.937-.565,1.408a1.545,1.545,0,0,0-.053.879,2.349,2.349,0,0,0,1.868,1.885,4.337,4.337,0,0,1,.657.251c0,.16,0,.321,0,.482-.476.2-.951.4-1.423.607a1.653,1.653,0,0,0-.682.6,2.309,2.309,0,0,0-.013,2.643,3.973,3.973,0,0,1,.265.593c-.124.12-.248.24-.37.362-.49-.193-.981-.386-1.474-.57a1.45,1.45,0,0,0-.511-.09,1.493,1.493,0,0,0-.492.082c-.052.019-.106.035-.161.052a2.277,2.277,0,0,0-1.014.541,2.144,2.144,0,0,0-.5.932c-.019.063-.037.126-.061.185q-.122.289-.245.579l-.062.143h-.534l-.1-.222c-.167-.381-.335-.763-.5-1.146a1.519,1.519,0,0,0-.661-.72,2.455,2.455,0,0,0-1.287-.38,2.657,2.657,0,0,0-1.33.385,4.4,4.4,0,0,1-.652.279c-.121-.121-.244-.241-.367-.36l.134-.332c.134-.332.268-.664.408-1a1.6,1.6,0,0,0,.057-1.067,2.379,2.379,0,0,0-1.791-1.763,5.1,5.1,0,0,1-.714-.283v-.46c.492-.208.983-.416,1.472-.628a1.333,1.333,0,0,0,.51-.408l.163-.18.041-.118a2.328,2.328,0,0,0-.073-2.527,3.814,3.814,0,0,1-.26-.586q.188-.182.371-.366c.489.193.979.385,1.472.568a1.462,1.462,0,0,0,.51.089,1.542,1.542,0,0,0,.51-.086c.051-.018.1-.035.157-.052a2.324,2.324,0,0,0,1.012-.543,2.077,2.077,0,0,0,.489-.928,1.853,1.853,0,0,1,.058-.178c.081-.2.164-.394.247-.591l.056-.133h.537m-.216,10.381a3.542,3.542,0,0,0,3.548-3.417,3.5,3.5,0,0,0-.972-2.517,3.6,3.6,0,0,0-2.547-1.1h-.071a3.517,3.517,0,1,0-.04,7.033h.082m-.771-11.388a.284.284,0,0,0-.3.2c-.159.385-.324.766-.482,1.151a2.411,2.411,0,0,1-.332.782,2.105,2.105,0,0,1-.794.356.522.522,0,0,1-.175.029.48.48,0,0,1-.163-.027c-.618-.229-1.231-.473-1.844-.715a.424.424,0,0,0-.158-.035.324.324,0,0,0-.241.122q-.46.483-.953.936a.3.3,0,0,0-.084.4,8.84,8.84,0,0,0,.5,1.142,1.354,1.354,0,0,1,.018,1.569c-.008.011-.009.028-.019.038-.061.064-.112.152-.187.185-.689.3-1.382.589-2.074.881v1.767a11.88,11.88,0,0,0,1.444.6,1.4,1.4,0,0,1,1.094,1.054.606.606,0,0,1-.012.426c-.248.588-.48,1.182-.724,1.771a.284.284,0,0,0,.089.358c.335.314.662.637.984.964a.292.292,0,0,0,.208.109.283.283,0,0,0,.113-.026,10.491,10.491,0,0,0,1.228-.514,1.661,1.661,0,0,1,.831-.251,1.457,1.457,0,0,1,.768.234.547.547,0,0,1,.26.258c.255.6.522,1.2.782,1.793a.279.279,0,0,0,.287.189H294q.348-.008.7-.007c.241,0,.482,0,.724.007h.01a.257.257,0,0,0,.272-.176c.163-.39.332-.777.495-1.168a2.491,2.491,0,0,1,.345-.8,2.094,2.094,0,0,1,.8-.352.476.476,0,0,1,.158-.025.484.484,0,0,1,.16.026c.624.234,1.244.48,1.864.725a.385.385,0,0,0,.141.03.326.326,0,0,0,.239-.12c.318-.331.649-.65.983-.966a.255.255,0,0,0,.074-.323,9.9,9.9,0,0,0-.513-1.182,1.333,1.333,0,0,1-.018-1.566.7.7,0,0,1,.26-.249c.61-.271,1.226-.525,1.841-.782a.273.273,0,0,0,.184-.3c-.011-.46-.01-.92,0-1.379a.254.254,0,0,0-.178-.278,10.345,10.345,0,0,0-1.24-.487,1.37,1.37,0,0,1-1.133-1.113.6.6,0,0,1,.005-.319c.239-.614.489-1.224.74-1.834a.267.267,0,0,0-.078-.34c-.325-.3-.648-.611-.953-.935a.359.359,0,0,0-.266-.138.479.479,0,0,0-.186.045,10.988,10.988,0,0,0-1.168.493,1.582,1.582,0,0,1-.8.243,1.466,1.466,0,0,1-.758-.228.568.568,0,0,1-.275-.272c-.255-.6-.523-1.195-.783-1.793a.28.28,0,0,0-.29-.183h-.013c-.238,0-.477.007-.716.007s-.456,0-.684-.008Zm.771,10.388h-.059a2.517,2.517,0,1,1,.017-5.034h.051a2.517,2.517,0,1,1-.009,5.033Z" fill="#282828"/>
      <path id="Tracé_12580" data-name="Tracé 12580" d="M304.085,411.779a1.653,1.653,0,0,0,1,.3l.142,0a1.219,1.219,0,0,0,.677-.239,1.337,1.337,0,0,1,.962,2.189,1.547,1.547,0,0,0,.253.863,1.76,1.76,0,0,0-1.012.635,1.186,1.186,0,0,0-.27.571,1.545,1.545,0,0,0-.933-.278c-.073,0-.149,0-.245.009a1.192,1.192,0,0,0-.625.229,1.727,1.727,0,0,0-.653-1.035,1.256,1.256,0,0,0-.593-.268,1.758,1.758,0,0,0,.258-1.132,1.193,1.193,0,0,0-.233-.641,1.492,1.492,0,0,0,1.269-1.2m-.243-1.484a.73.73,0,0,0-.384.129c-.053.033-.131.031-.179.07s-.129.115-.135.18a6.843,6.843,0,0,0-.018.688.551.551,0,0,1-.61.635h-.04l-.1,0h-.163c-.092,0-.17-.005-.236-.005-.376,0-.407.071-.616.537a.423.423,0,0,1-.036.078.214.214,0,0,0,.044.3c.193.193.387.385.575.583a.329.329,0,0,1,.1.176c.012.244.026.492-.237.641a1.15,1.15,0,0,0-.207.189c-.384.37-.384.371-.191.86a.566.566,0,0,0,.074.177c.06.066.139.149.216.156.278.026.559.019.839.032a.356.356,0,0,1,.2.058c.2.164.372.34.293.637-.02.074,0,.158-.011.235a.594.594,0,0,0,.5.785.491.491,0,0,1,.157.07.235.235,0,0,0,.127.043.265.265,0,0,0,.18-.09c.186-.179.371-.36.561-.535a.344.344,0,0,1,.175-.107c.062,0,.125-.007.187-.007a.491.491,0,0,1,.477.237c.036.06.105.1.145.158a.722.722,0,0,0,.581.378.8.8,0,0,0,.427-.145.312.312,0,0,1,.1-.036.207.207,0,0,0,.171-.235c0-.266,0-.531,0-.8a.336.336,0,0,1,.051-.2.7.7,0,0,1,.507-.313.542.542,0,0,1,.153.023.537.537,0,0,0,.156.017h.1l.2,0c.342,0,.37-.061.561-.489a.478.478,0,0,0,.068-.157.436.436,0,0,0-.04-.262c-.151-.182-.325-.344-.493-.511a.555.555,0,0,1,.01-.877l.158-.147c.471-.442.471-.442.239-1.03-.011-.027-.016-.061-.035-.078-.067-.06-.135-.156-.21-.163-.278-.026-.56-.014-.839-.034a.545.545,0,0,1-.258-.109.554.554,0,0,1-.246-.592c.017-.1-.007-.2.01-.3a.536.536,0,0,0-.457-.7.616.616,0,0,1-.195-.089.225.225,0,0,0-.122-.04.242.242,0,0,0-.165.08c-.2.189-.39.381-.59.566a.311.311,0,0,1-.178.1l-.113,0a.56.56,0,0,1-.534-.238c-.049-.078-.136-.13-.189-.2a.653.653,0,0,0-.523-.336Z" fill="#282828"/>
    </g>
  </g>
</svg>
