<svg xmlns="http://www.w3.org/2000/svg" width="24" height="24" viewBox="0 0 24 24">
  <g id="Parcelles" transform="translate(-1296.589 -338.466)">
    <g id="ParcelleSlected">
      <path id="Tracé_10157" data-name="Tracé 10157" d="M1320.589,342.7a4.235,4.235,0,0,0-4.235-4.235h-15.53a4.235,4.235,0,0,0-4.235,4.235v15.53a4.235,4.235,0,0,0,4.235,4.235h15.53a4.235,4.235,0,0,0,4.235-4.235Zm-.544,15.174a4.043,4.043,0,0,1-4.043,4.043h-14.821a4.043,4.043,0,0,1-4.043-4.043h0V343.051a4.041,4.041,0,0,1,4.041-4.043H1316a4.043,4.043,0,0,1,4.043,4.043h0Z" fill="#55aaa0"/>
      <path id="Tracé_10158" data-name="Tracé 10158" d="M1298.868,348.533l8.122-1.939v6.319l-8.123,2.094Zm10.644-2.41,9,4.7v3l-9.02-.673Zm9.082-2.773-.066,5.891-8.933-4.7-.028-4.216h6.484a3.016,3.016,0,0,1,2.472,2.269Zm-17.307-3.02h5.7v4.15l-8.123,1.887.06-4.351C1298.929,341.4,1300.108,340.4,1301.287,340.33Zm.172,20.71c-.191,0-1.77-.255-2.2-.892-.7-1.025-.306-2.656-.434-2.937l9.624-2.56,10.067.869V358.8c0,.706-1.728,2.394-2.795,2.238Z" fill="#55aaa0"/>
    </g>
  </g>
</svg>
