<svg xmlns="http://www.w3.org/2000/svg" width="24.081" height="24" viewBox="0 0 24.081 24">
  <g id="Parcelles" transform="translate(-814.202 74.538)">
    <path id="ParcelleUnselected" d="M838.2-61.536V-70.3a4.235,4.235,0,0,0-4.235-4.235h-15.53A4.235,4.235,0,0,0,814.2-70.3v15.53a4.235,4.235,0,0,0,4.235,4.235h15.53a4.235,4.235,0,0,0,4.235-4.235v-5.82A1.408,1.408,0,0,0,838.2-61.536Zm-21.171-3.915h7.479v6.391l-7.479,1.976Zm10.308.814,8.034,4.368v1.59l-8.034-.6Zm8.034-5.666v6.814l-8.034-4.368v-3.852h6.627A1.408,1.408,0,0,1,835.373-70.3Zm-16.936-1.406h6.073v3.429h-7.479V-70.3A1.408,1.408,0,0,1,818.437-71.709Zm15.53,18.342h-15.53a1.407,1.407,0,0,1-1.279-.824l8.9-2.351,9.317.7v1.068A1.408,1.408,0,0,1,833.967-53.367Z" fill="#282828"/>
  </g>
</svg>
