<svg id="Pilote" xmlns="http://www.w3.org/2000/svg" width="71.999" height="279.514" viewBox="0 0 71.999 279.514">
  <g id="freepik--group--inject-1" transform="translate(0 0)">
    <path id="Tracé_35" data-name="Tracé 35" d="M227.975,195.61c3.2,1.032,11.587,14.166,11.587,14.166l-5.8,8.254s-7.934-6.3-9.028-8.7C221.733,202.8,227.975,195.61,227.975,195.61Z" transform="translate(-184.01 -148.561)" fill="#55aaa0"/>
    <path id="Tracé_36" data-name="Tracé 36" d="M239.561,209.777l-5.788,8.254s-1.032-.8-2.342-1.929c-2.435-2.064-5.984-5.221-6.7-6.768a10.935,10.935,0,0,1,.248-8.76,20.079,20.079,0,0,1,2.992-5C231.173,196.684,239.561,209.777,239.561,209.777Z" transform="translate(-184.009 -148.562)" fill="#fff" opacity="0.6" style="mix-blend-mode: normal;isolation: isolate"/>
    <path id="Tracé_37" data-name="Tracé 37" d="M231.421,215.988c-2.435-2.064-5.984-5.221-6.7-6.768a10.94,10.94,0,0,1,.248-8.76A66.476,66.476,0,0,1,231.421,215.988Z" transform="translate(-184.01 -148.407)" opacity="0.2" style="mix-blend-mode: normal;isolation: isolate"/>
    <path id="Tracé_38" data-name="Tracé 38" d="M197.855,412.69h-9.079a.65.65,0,0,0-.64.516l-1.475,6.655a1.105,1.105,0,0,0,.846,1.31,1,1,0,0,0,.248,0c2.941,0,5.076-.227,8.77-.227,2.27,0,9.131.237,12.268.237s3.549-3.1,2.27-3.384c-5.768-1.259-10.1-2.992-11.948-4.653A1.824,1.824,0,0,0,197.855,412.69Z" transform="translate(-185.194 -141.667)" fill="#263238"/>
    <path id="Tracé_39" data-name="Tracé 39" d="M235.2,412.46h-9.09a.651.651,0,0,0-.629.516L224,419.631a1.094,1.094,0,0,0,.828,1.306l.018,0h.248c2.941,0,5.076-.227,8.77-.227,2.27,0,9.131.237,12.268.237s3.549-3.1,2.26-3.384c-5.757-1.259-10.1-3-11.948-4.653A1.8,1.8,0,0,0,235.2,412.46Z" transform="translate(-184.008 -141.675)" fill="#263238"/>
    <path id="Tracé_40" data-name="Tracé 40" d="M197.855,412.69h-9.079a.65.65,0,0,0-.64.516l-1.475,6.655a1.105,1.105,0,0,0,.846,1.31,1,1,0,0,0,.248,0c2.941,0,5.076-.227,8.77-.227,2.27,0,9.131.237,12.268.237s3.549-3.1,2.27-3.384c-5.768-1.259-10.1-2.992-11.948-4.653A1.824,1.824,0,0,0,197.855,412.69Z" transform="translate(-185.194 -141.667)" fill="#fff" opacity="0.3" style="mix-blend-mode: normal;isolation: isolate"/>
    <path id="Tracé_41" data-name="Tracé 41" d="M235.2,412.46h-9.09a.651.651,0,0,0-.629.516L224,419.631a1.094,1.094,0,0,0,.828,1.306l.018,0h.248c2.941,0,5.076-.227,8.77-.227,2.27,0,9.131.237,12.268.237s3.549-3.1,2.26-3.384c-5.757-1.259-10.1-3-11.948-4.653A1.8,1.8,0,0,0,235.2,412.46Z" transform="translate(-184.008 -141.675)" fill="#fff" opacity="0.3" style="mix-blend-mode: normal;isolation: isolate"/>
    <path id="Tracé_42" data-name="Tracé 42" d="M193.03,249.49h39.692c3.766,20.635,15.58,104.28,7.109,169.208H226.407s1.238-98.677-10.627-130.558c-1.362,17.065-15.229,130.486-15.229,130.486H186.86s2.064-42.663,4.127-82.974C192.246,310.322,192.978,254.7,193.03,249.49Z" transform="translate(-185.187 -146.85)" fill="#263238"/>
    <path id="Tracé_43" data-name="Tracé 43" d="M214.89,287.435a107.215,107.215,0,0,1,4.437,17.158C220.441,289.406,216,273.3,216,273.3Z" transform="translate(-184.297 -146.094)" opacity="0.2" style="mix-blend-mode: normal;isolation: isolate"/>
    <path id="Tracé_44" data-name="Tracé 44" d="M232.86,249.95H192.91v4.756l40.455-.5Z" transform="translate(-184.995 -146.835)"/>
    <rect id="Rectangle_684" data-name="Rectangle 684" width="1.424" height="8.44" transform="translate(20.751 100.979)" fill="#263238"/>
    <rect id="Rectangle_685" data-name="Rectangle 685" width="1.424" height="8.44" transform="translate(40.963 100.979)" fill="#263238"/>
    <rect id="Rectangle_686" data-name="Rectangle 686" width="7.387" height="5.324" transform="translate(29.655 102.289)" fill="#fff"/>
    <path id="Tracé_45" data-name="Tracé 45" d="M232.08,214.051s6.191,7.666,11.917,6.634,7.222-13.413,7.222-13.413l-3.673-1.692s-2.517,7.222-4.829,7.759-5.685-3.508-5.685-3.508Z" transform="translate(-183.751 -148.244)" fill="#bc6e39"/>
    <path id="Tracé_46" data-name="Tracé 46" d="M249.492,209.435c.072-.32,1.341-6.314,2.064-6.325s3.725,2.218,3.642,3.1-1.331,7.222-2.28,7.325-3,.547-3,.547A11.364,11.364,0,0,1,249.492,209.435Z" transform="translate(-183.2 -148.323)" fill="#bc6e39"/>
    <path id="Tracé_47" data-name="Tracé 47" d="M232.384,251.8H192.146c.072-13.32-.97-38.619-5.066-56.066a86.364,86.364,0,0,1,12.061-1.806,155.97,155.97,0,0,1,17.839-.5,78.837,78.837,0,0,1,12.123,1.847,62.6,62.6,0,0,1,1.754,8.017c.475,2.817.96,6.387,1.352,10.761A248.984,248.984,0,0,1,232.384,251.8Z" transform="translate(-185.18 -148.632)" fill="#55aaa0"/>
    <g id="Groupe_1" data-name="Groupe 1" transform="translate(1.9 44.732)" opacity="0.7">
      <path id="Tracé_48" data-name="Tracé 48" d="M232.384,251.8H192.146c.072-13.32-.97-38.619-5.066-56.066a86.364,86.364,0,0,1,12.061-1.806,155.97,155.97,0,0,1,17.839-.5,78.837,78.837,0,0,1,12.123,1.847,62.6,62.6,0,0,1,1.754,8.017c.475,2.817.96,6.387,1.352,10.761A248.984,248.984,0,0,1,232.384,251.8Z" transform="translate(-187.08 -193.364)" fill="#fff"/>
    </g>
    <path id="Tracé_49" data-name="Tracé 49" d="M204.779,176.14c1.032,6.283,2.064,17.54-1.909,20.346,0,0,6.1,5.922,11.349,5.252,3.374-.423,3.384-5.293,3.384-5.293-3.591.052-3.508-3.188-2.394-7.5Z" transform="translate(-184.678 -149.179)" fill="#bc6e39"/>
    <path id="Tracé_50" data-name="Tracé 50" d="M208.938,181.2l6.191,7.583a19.088,19.088,0,0,0-.557,3.1c-3.1,1.032-7.945-4.581-8.171-7.315C206.276,183.48,208.7,182.19,208.938,181.2Z" transform="translate(-184.567 -149.018)" opacity="0.2" style="mix-blend-mode: normal;isolation: isolate"/>
    <path id="Tracé_51" data-name="Tracé 51" d="M198.3,175.156c2.683.279,17.488-3.993,20.418-7.6s-12.794-7.222-17.447-4.014S195.348,174.846,198.3,175.156Z" transform="translate(-184.874 -149.619)" fill="#55aaa0"/>
    <path id="Tracé_52" data-name="Tracé 52" d="M198.3,175.156c2.683.279,17.488-3.993,20.418-7.6s-12.794-7.222-17.447-4.014S195.348,174.846,198.3,175.156Z" transform="translate(-184.874 -149.619)" opacity="0.4" style="mix-blend-mode: normal;isolation: isolate"/>
    <path id="Tracé_53" data-name="Tracé 53" d="M214.3,164.478c-2.724,2.724-.609,6.046,7.552,10.318,2.156-4.282,1.248-11.607-1.383-12.99S216.678,162.115,214.3,164.478Z" transform="translate(-184.351 -149.65)" fill="#263238"/>
    <path id="Tracé_54" data-name="Tracé 54" d="M202.32,172.937c1.816,7.583,2.487,12.1,7.037,15.373,6.851,4.9,15.693-.258,16.2-8.254.433-7.15-2.59-18.355-10.617-20.1a10.639,10.639,0,0,0-12.618,12.959Z" transform="translate(-184.706 -149.701)" fill="#bc6e39"/>
    <path id="Tracé_55" data-name="Tracé 55" d="M213.76,172.678c.113.619.526,1.032.939,1.032s.64-.629.537-1.248a1.113,1.113,0,0,0-.929-1.032C213.9,171.43,213.7,172.018,213.76,172.678Z" transform="translate(-184.333 -149.329)" fill="#263238"/>
    <path id="Tracé_56" data-name="Tracé 56" d="M220.631,171.489a1.131,1.131,0,0,0,.939,1.032c.4,0,.65-.629.547-1.269a1.092,1.092,0,0,0-.939-1.032C220.765,170.22,220.528,170.86,220.631,171.489Z" transform="translate(-184.115 -149.367)" fill="#263238"/>
    <path id="Tracé_57" data-name="Tracé 57" d="M218.44,172.12a22.321,22.321,0,0,0,3.91,4.818,3.651,3.651,0,0,1-2.889,1.032Z" transform="translate(-184.184 -149.307)" fill="#263238" opacity="0.3"/>
    <path id="Tracé_58" data-name="Tracé 58" d="M211.524,170.879a.406.406,0,0,1-.248,0,.372.372,0,0,1-.169-.5l0-.008a3.676,3.676,0,0,1,2.724-2.064.371.371,0,0,1,.4.31h0a.392.392,0,0,1-.33.413h0a2.934,2.934,0,0,0-2.125,1.62A.423.423,0,0,1,211.524,170.879Z" transform="translate(-184.418 -149.428)" fill="#263238"/>
    <path id="Tracé_59" data-name="Tracé 59" d="M223.456,168.658a.394.394,0,0,1-.371-.155,2.947,2.947,0,0,0-2.352-1.3.372.372,0,0,1-.392-.35h0a.382.382,0,0,1,.351-.392,3.7,3.7,0,0,1,2.992,1.61.371.371,0,0,1-.083.516h0A.61.61,0,0,1,223.456,168.658Z" transform="translate(-184.124 -149.486)" fill="#263238"/>
    <path id="Tracé_60" data-name="Tracé 60" d="M204.341,165.445c3.8.609,4.024,4.55-.083,12.783-4.261-2.2-7.821-8.677-6.479-11.349S201.019,164.929,204.341,165.445Z" transform="translate(-184.849 -149.534)" fill="#263238"/>
    <path id="Tracé_61" data-name="Tracé 61" d="M199.822,179.242a7.4,7.4,0,0,0,4.23,3.756c2.466.836,3.828-1.341,3.26-3.725-.516-2.156-2.414-5.159-4.932-4.973S198.78,177.086,199.822,179.242Z" transform="translate(-184.788 -149.238)" fill="#bc6e39"/>
    <path id="Tracé_62" data-name="Tracé 62" d="M219.071,179.824a19.641,19.641,0,0,0-.371,2.775l-.5.052c-2.229.2-3.322-.444-3.869-1.217a2.845,2.845,0,0,1-.475-1.279,2.773,2.773,0,0,1,0-.784,10.314,10.314,0,0,0,4.447.506C218.772,179.855,219.071,179.824,219.071,179.824Z" transform="translate(-184.33 -149.076)" fill="#263238"/>
    <path id="Tracé_63" data-name="Tracé 63" d="M218.328,179.876l-.134.815c-2.063.2-3.591,0-4.313-.536a2.771,2.771,0,0,1,0-.784A10.314,10.314,0,0,0,218.328,179.876Z" transform="translate(-184.33 -149.076)" fill="#fff"/>
    <path id="Tracé_64" data-name="Tracé 64" d="M218.189,182.588c-2.229.2-3.322-.444-3.869-1.217a7.2,7.2,0,0,1,2.517.268A2.614,2.614,0,0,1,218.189,182.588Z" transform="translate(-184.315 -149.014)" fill="#a24e3f"/>
    <path id="Tracé_65" data-name="Tracé 65" d="M202.08,166.239s5.066,21.234,15.724,23.431l2.064-.629s-5.664.1-9.616-6.191-6.645-16.91-6.645-16.91Z" transform="translate(-184.704 -149.503)"/>
    <path id="Tracé_66" data-name="Tracé 66" d="M226.568,162.827c-5.283,6.541-19.2,1.764-24.112,5.468s-4.127,7.129-4.127,7.222c-3.436,1.032-1.568-4.581-1.568-4.581-3.632-11.06,3.1-17.426,13.413-18.644,9.678-1.135,12.381,8.595,12.381,8.595Z" transform="translate(-184.904 -149.939)" fill="#55aaa0"/>
    <path id="Tracé_67" data-name="Tracé 67" d="M222.482,160.847c-2.177,3.859-15.765,2.858-20.841,4.571s-4.88,5.479-4.88,5.479c-3.632-11.06,3.1-17.426,13.413-18.644C219.831,151.118,222.482,160.847,222.482,160.847Z" transform="translate(-184.904 -149.941)" opacity="0.2" style="mix-blend-mode: normal;isolation: isolate"/>
    <path id="Tracé_68" data-name="Tracé 68" d="M202.975,154.88c4.127-1.5,8.687,1.981,10.483,4.509s5.53,1.589,5.6-1.228-2.517-8.151-2.517-8.151-17.014-.31-19.253,9.224A10.411,10.411,0,0,1,202.975,154.88Z" transform="translate(-184.856 -150.009)" fill="#55aaa0"/>
    <path id="Tracé_69" data-name="Tracé 69" d="M214.97,189.06a5.9,5.9,0,0,1,3.1-1.764,4.845,4.845,0,0,1,2.652,0,4.064,4.064,0,0,1-2.6,1.981A3.294,3.294,0,0,1,214.97,189.06Z" transform="translate(-184.294 -148.831)" fill="#263238"/>
    <path id="Tracé_70" data-name="Tracé 70" d="M203.83,192.88l9.7,7.408,1.847-6.964,3.5,2.146-1.011,8.615-3.828-3.013-5.087,4.457-8.677-10.06Z" transform="translate(-184.761 -148.647)" fill="#55aaa0"/>
    <path id="Tracé_71" data-name="Tracé 71" d="M203.83,192.88l9.7,7.408,1.847-6.964,3.5,2.146-1.011,8.615-3.828-3.013-5.087,4.457-8.677-10.06Z" transform="translate(-184.761 -148.647)" fill="#fff" opacity="0.6" style="mix-blend-mode: normal;isolation: isolate"/>
    <path id="Tracé_72" data-name="Tracé 72" d="M233.511,226.579l-.083,4.333-.134,7.078-.186,5.159-.1,2.765-.124,3.5H221.687l-2.064-5.314-1.486,5.314-26.609-.887-.2-4.313V243.18l-.248-5.8-.258-6.077-.248-5.623a96.026,96.026,0,0,0,1.187-30.953l7.934-.939s11.277,11.225,17.1,18.706a85.01,85.01,0,0,0,4.127-18.706l5.912.681Z" transform="translate(-185.069 -148.619)" fill="#337682"/>
    <path id="Tracé_73" data-name="Tracé 73" d="M209.868,230.16l-.619,11.876H191.266l-.248-5.8-.258-6.077Z" transform="translate(-185.063 -147.464)" fill="#fff" opacity="0.3" style="mix-blend-mode: normal;isolation: isolate"/>
    <path id="Tracé_74" data-name="Tracé 74" d="M232.337,229.77l-.134,7.078-.186,5.19H225.29l-.32-11.865Z" transform="translate(-183.977 -147.476)" fill="#fff" opacity="0.3" style="mix-blend-mode: normal;isolation: isolate"/>
    <g id="JooL_Plan" transform="translate(-19.267 47.182)">
      <path id="Tracé_84" data-name="Tracé 84" d="M366.783,14.571l1.831-2.886-.553,0-2.178,3.351H368.8l.043-.457Z" transform="translate(-323.015)" fill="#fff"/>
      <path id="Tracé_85" data-name="Tracé 85" d="M33.4,15.228l.281-.286a.887.887,0,0,0,.717.376.641.641,0,0,0,.321-.085.923.923,0,0,0,.366-.619c.113-.489.3-1.25.532-2.222h.506l-.655,2.566a1.015,1.015,0,0,1-1.041.806,1.173,1.173,0,0,1-1.027-.536" transform="translate(0 -0.689)" fill="#fff"/>
      <path id="Tracé_86" data-name="Tracé 86" d="M128.437,36.353l-.094.192c-.3.614-1.084,1.359-1.605,1.363h-.011a2.374,2.374,0,0,1-1.643-.9,2.365,2.365,0,0,1,1.639-.929.926.926,0,0,1,.577.2l.168.133.266-.335-.168-.133a1.368,1.368,0,0,0-.845-.29,2.712,2.712,0,0,0-1.912,1.018,2.72,2.72,0,0,0-1.913-.987h-.015a1.344,1.344,0,0,0,.011,2.687h.011a2.711,2.711,0,0,0,1.912-1.018,2.721,2.721,0,0,0,1.913.987h.015a1.9,1.9,0,0,0,1.132-.527,3.523,3.523,0,0,0,.854-1.076l.094-.192Zm-3.9.657a2.365,2.365,0,0,1-1.64.929h-.008a.916.916,0,0,1-.007-1.831h.011a2.375,2.375,0,0,1,1.643.9" transform="translate(-85.633 -23.284)" fill="#fff"/>
      <path id="Tracé_87" data-name="Tracé 87" d="M342.878,55.03l-.233-.633-.635.234-.117-.317.725-.267a.259.259,0,0,1,.185.007.24.24,0,0,1,.126.136l.268.725-.315.116h0" transform="translate(-299.707 -41.144)" fill="#fff"/>
      <path id="Tracé_88" data-name="Tracé 88" d="M342.436,54.7l-.009,0,0-.005-.23-.623-.635.234-.124-.336.734-.271a.27.27,0,0,1,.193.008.25.25,0,0,1,.131.142l.271.735Zm0-.02h0Zm-.227-.638.234.635.3-.11-.264-.716a.23.23,0,0,0-.121-.13.248.248,0,0,0-.178-.007l-.715.264.11.3Z" transform="translate(-299.263 -40.801)" fill="#fff"/>
      <rect id="Rectangle_687" data-name="Rectangle 687" width="2.042" height="0.731" transform="translate(43.747 15.296)" fill="#fff"/>
      <g id="Groupe_2" data-name="Groupe 2" transform="translate(44.123 15.447)">
        <path id="Tracé_89" data-name="Tracé 89" d="M410.233,144.107a.111.111,0,0,1-.041.093.185.185,0,0,1-.117.032h-.065v.173h-.029v-.418h.1Q410.233,143.987,410.233,144.107Zm-.223.1h.057a.174.174,0,0,0,.1-.023.088.088,0,0,0,.031-.076.085.085,0,0,0-.03-.072.149.149,0,0,0-.092-.023h-.069Z" transform="translate(-409.981 -143.985)" fill="#1e1e1f"/>
        <path id="Tracé_90" data-name="Tracé 90" d="M422.018,144.405v-.418h.029v.391h.2v.027Z" transform="translate(-421.675 -143.985)" fill="#1e1e1f"/>
        <path id="Tracé_91" data-name="Tracé 91" d="M430.76,144.2h-.17l-.058.148H430.5l.168-.42h.019l.165.42h-.033Zm-.159-.026h.15l-.057-.151q-.007-.018-.017-.049a.475.475,0,0,1-.017.05Z" transform="translate(-429.915 -143.928)" fill="#1e1e1f"/>
        <path id="Tracé_92" data-name="Tracé 92" d="M445.232,144.405H445.2l-.248-.371h0q0,.066,0,.1v.271h-.028v-.418h.029l.247.371h0q0-.051,0-.1v-.273h.028Z" transform="translate(-443.933 -143.985)" fill="#1e1e1f"/>
      </g>
    </g>
    <path id="Tracé_75" data-name="Tracé 75" d="M200.811,208.58s4.457,6.572,6.975,7.79,18.572-6.665,18.572-6.665l3.322,3.848s-17.313,11.473-22.7,10.245-12.041-9.286-12.041-9.286Z" transform="translate(-184.93 -148.149)" fill="#bc6e39"/>
    <path id="Tracé_76" data-name="Tracé 76" d="M187.18,196c1.486-1.775,15.961,13.083,15.961,13.083l-9.028,9.833S180.246,204.331,187.18,196Z" transform="translate(-185.238 -148.553)" fill="#55aaa0"/>
    <path id="Tracé_77" data-name="Tracé 77" d="M187.18,196c1.486-1.775,15.961,13.083,15.961,13.083l-9.028,9.833S180.246,204.331,187.18,196Z" transform="translate(-185.238 -148.553)" fill="#fff" opacity="0.6" style="mix-blend-mode: normal;isolation: isolate"/>
    <path id="Tracé_78" data-name="Tracé 78" d="M243.9,196.957H242.15l2.92-22.307h.867Z" transform="translate(-183.431 -149.226)" fill="#263238"/>
    <path id="Tracé_79" data-name="Tracé 79" d="M245.4,198.277H240.24l.175-1.94a1.032,1.032,0,0,1,.97-.877h3.425a.794.794,0,0,1,.809.78.607.607,0,0,1,0,.1Z" transform="translate(-183.492 -148.566)" fill="#263238"/>
    <path id="Tracé_80" data-name="Tracé 80" d="M246.892,214.247H231.241a1.63,1.63,0,0,1-1.649-1.612,1.821,1.821,0,0,1,.008-.184l1.135-12.381a2.621,2.621,0,0,1,1.981-2.187,41.647,41.647,0,0,1,15.662,0,2.062,2.062,0,0,1,1.589,2.187q-.577,6.191-1.135,12.381A2.063,2.063,0,0,1,246.892,214.247Z" transform="translate(-183.83 -148.512)" fill="#263238"/>
    <path id="Tracé_81" data-name="Tracé 81" d="M250.372,214.247H234.751a1.621,1.621,0,0,1-1.65-1.589,1.719,1.719,0,0,1,.009-.206q.557-6.191,1.125-12.381a2.631,2.631,0,0,1,1.981-2.187,41.647,41.647,0,0,1,15.662,0,2.062,2.062,0,0,1,1.589,2.187q-.577,6.191-1.135,12.381A2.062,2.062,0,0,1,250.372,214.247Z" transform="translate(-183.718 -148.512)" fill="#263238"/>
    <path id="Tracé_82" data-name="Tracé 82" d="M250.372,214.247H234.751a1.621,1.621,0,0,1-1.65-1.589,1.719,1.719,0,0,1,.009-.206q.557-6.191,1.125-12.381a2.631,2.631,0,0,1,1.981-2.187,41.647,41.647,0,0,1,15.662,0,2.062,2.062,0,0,1,1.589,2.187q-.577,6.191-1.135,12.381A2.062,2.062,0,0,1,250.372,214.247Z" transform="translate(-183.718 -148.512)" fill="#fff" opacity="0.2" style="mix-blend-mode: normal;isolation: isolate"/>
    <path id="Tracé_83" data-name="Tracé 83" d="M235.642,206.442c-.877-.815-5.829-3.549-6.758-2.889s-3.952,6.768-4.994,7.491c-.124.083,2.476,3.859,2.476,3.859a13.608,13.608,0,0,0,2.951-.392C230.143,214.2,236.519,207.247,235.642,206.442Z" transform="translate(-184.011 -148.312)" fill="#bc6e39"/>
  </g>
</svg>
