<svg xmlns="http://www.w3.org/2000/svg" width="42" height="42" viewBox="0 0 42 42">
  <g id="Search" transform="translate(0.411)">
    <circle id="Ellipse_139" data-name="Ellipse 139" cx="21" cy="21" r="21" transform="translate(-0.411)" fill="#55aaa0"/>
    <path id="Search-2" data-name="Search" d="M304.167,444.191c.056-.375.1-.752.168-1.124a9.086,9.086,0,1,1,16.845,6.16c-.21.381-.217.376.1.691q2.385,2.385,4.77,4.769a1.823,1.823,0,1,1-2.553,2.6c-.9-.914-1.81-1.814-2.718-2.721L318.6,452.39c-.045-.047-.095-.089-.121-.114-.566.294-1.1.624-1.668.86a9.094,9.094,0,0,1-11.508-3.964,8.7,8.7,0,0,1-1.1-3.581,1.725,1.725,0,0,0-.039-.213Zm15.241.589a6.148,6.148,0,1,0-6.158,6.139A6.16,6.16,0,0,0,319.409,444.78Z" transform="translate(-294.828 -425.778)" fill="#fff"/>
  </g>
</svg>
