<svg xmlns="http://www.w3.org/2000/svg" width="16" height="16" viewBox="0 0 16 16">
  <g id="StartStop" transform="translate(-305.272 -274.488)">
    <circle id="Ellipse_168" data-name="Ellipse 168" cx="8" cy="8" r="8" transform="translate(305.272 274.488)" fill="#337682"/>
    <path id="Play" d="M321.337,288.389h.166a1.513,1.513,0,0,1,.457.172q2.347,1.348,4.694,2.7a1.541,1.541,0,0,1,.314.236.592.592,0,0,1,.04.847,1.22,1.22,0,0,1-.356.282q-2.345,1.345-4.691,2.688a1.584,1.584,0,0,1-.362.15.6.6,0,0,1-.756-.388,1.283,1.283,0,0,1-.07-.47q0-2.665,0-5.329a1.847,1.847,0,0,1,.011-.214.811.811,0,0,1,.228-.514A.663.663,0,0,1,321.337,288.389Z" transform="translate(-10.384 -9.456)" fill="#fff"/>
  </g>
</svg>
