<svg id="Duree" xmlns="http://www.w3.org/2000/svg" width="16.85" height="16.85" viewBox="0 0 16.85 16.85">
  <path id="Tracé_18844" data-name="Tracé 18844" d="M304.129,445.237a8.425,8.425,0,1,1,8.329,8.43A8.436,8.436,0,0,1,304.129,445.237Zm8.393,6.9a6.891,6.891,0,1,0-6.86-6.944A6.9,6.9,0,0,0,312.522,452.134Z" transform="translate(-304.129 -436.817)" fill="#707071"/>
  <path id="Tracé_18845" data-name="Tracé 18845" d="M311.793,442.947c0-.777-.006-1.555,0-2.332a.741.741,0,0,1,.649-.722.751.751,0,0,1,.84.542,1.3,1.3,0,0,1,.031.337q0,1.973,0,3.946a.438.438,0,0,0,.14.345c.634.625,1.261,1.258,1.892,1.887a.766.766,0,1,1-1.016,1.146c-.169-.151-.324-.318-.484-.479-.588-.587-1.173-1.178-1.765-1.761a.919.919,0,0,1-.292-.7c.008-.735,0-1.471,0-2.206Z" transform="translate(-304.129 -436.817)" fill="#55aaa0"/>
</svg>
