<svg xmlns="http://www.w3.org/2000/svg" width="25" height="25" viewBox="0 0 25 25">
  <g id="Home" transform="translate(-808.172 -93.055)">
    <g id="HomeUnselected" transform="translate(808.172 93.055)">
      <path id="Tracé_9997" data-name="Tracé 9997" d="M831.918,178.054q-2.677,0-5.355,0a4.452,4.452,0,0,1-4.465-4.464q0-2.648,0-5.3a.894.894,0,1,1,1.785.013q0,2.648,0,5.3a2.576,2.576,0,0,0,1.048,2.117,2.546,2.546,0,0,0,1.6.549q5.383,0,10.765,0a2.659,2.659,0,0,0,2.652-2.667c0-1.775,0-3.549,0-5.324a.885.885,0,0,1,1.2-.874.831.831,0,0,1,.581.807c.008,1.9.048,3.792-.01,5.686a4.419,4.419,0,0,1-4.422,4.157Q834.61,178.056,831.918,178.054Z" transform="translate(-819.419 -153.055)" fill="#fff"/>
      <path id="Tracé_9998" data-name="Tracé 9998" d="M820.65,95.135a2.552,2.552,0,0,1-.228.33q-5.3,5.308-10.6,10.613a.983.983,0,0,1-.942.357.893.893,0,0,1-.478-1.469c.055-.063.116-.12.176-.179L819.9,93.471a.932.932,0,0,1,1.552,0q5.671,5.667,11.342,11.334a1.028,1.028,0,0,1,.382.744.86.86,0,0,1-.52.823.845.845,0,0,1-.941-.12,2.947,2.947,0,0,1-.241-.232q-5.274-5.275-10.547-10.552C820.845,95.389,820.782,95.3,820.65,95.135Z" transform="translate(-808.172 -93.055)" fill="#fff"/>
    </g>
  </g>
</svg>
