<svg id="NbreImgs" xmlns="http://www.w3.org/2000/svg" width="16.846" height="15" viewBox="0 0 16.846 15">
  <path id="Tracé_9588" data-name="Tracé 9588" d="M304.585,450.306V440.7a.853.853,0,0,0,.03-.11,3.007,3.007,0,0,1,2.921-2.58c3.668-.012,7.335-.006,11,0a2.919,2.919,0,0,1,2.892,2.882c-.005,3.092,0,6.185,0,9.277a2.119,2.119,0,0,1-.053.455A3.035,3.035,0,0,1,318.393,453c-1.1.005-2.193,0-3.289,0q-3.726,0-7.451,0a3.03,3.03,0,0,1-2.984-2.311C304.637,450.562,304.612,450.434,304.585,450.306Zm8.459,1.057h1.365q2.022,0,4.045,0a1.185,1.185,0,0,0,1.213-.95,1.963,1.963,0,0,0,.045-.44q0-4.423,0-8.847a1.317,1.317,0,0,0-1.4-1.4c-3.547,0-7.093.006-10.64-.006a1.376,1.376,0,0,0-1.393,1.383c.018,2.965.007,5.931.009,8.9a1.551,1.551,0,0,0,.024.327,1.3,1.3,0,0,0,1.3,1.038Q310.33,451.366,313.044,451.363Z" transform="translate(-304.585 -438.003)" fill="#707071"/>
  <path id="Tracé_9589" data-name="Tracé 9589" d="M312.94,449.914c-1.327,0-2.653,0-3.98,0a.85.85,0,0,1-.907-.734.921.921,0,0,1,.142-.66q.93-1.473,1.867-2.941a.925.925,0,0,1,.893-.447.719.719,0,0,1,.533.288c.132.167.266.334.4.5a.858.858,0,0,0,1.414-.02c.365-.52.715-1.05,1.075-1.574a.926.926,0,0,1,1.07-.368.865.865,0,0,1,.535.52c.544,1.279,1.094,2.556,1.638,3.835a2.558,2.558,0,0,1,.2.554.882.882,0,0,1-.894,1.044Q314.93,449.916,312.94,449.914Z" transform="translate(-304.585 -438.003)" fill="#707071"/>
  <path id="Tracé_9590" data-name="Tracé 9590" d="M315.7,442.174a1.288,1.288,0,0,1,1.284-1.249,1.278,1.278,0,1,1-.012,2.556A1.311,1.311,0,0,1,315.7,442.174Z" transform="translate(-304.585 -438.003)" fill="#707071"/>
</svg>
