<svg xmlns="http://www.w3.org/2000/svg" width="16.85" height="16.85" viewBox="0 0 16.85 16.85">
  <g id="Plan" transform="translate(-655.749 -393.073)">
    <path id="Tracé_12574" data-name="Tracé 12574" d="M664.165,409.922q-2.791,0-5.581,0a2.8,2.8,0,0,1-2.778-2.269,2.892,2.892,0,0,1-.054-.574q0-5.581,0-11.161a2.8,2.8,0,0,1,2.834-2.841q5.589,0,11.179,0A2.8,2.8,0,0,1,672.6,395.9q.006,5.6,0,11.2a2.8,2.8,0,0,1-2.834,2.825Q666.963,409.926,664.165,409.922Zm-7.291-12.27v4.127c0,1.772,0,3.545,0,5.317a1.66,1.66,0,0,0,1.426,1.674,4.359,4.359,0,0,0,.664.028c.643,0,1.286,0,1.941,0l2.056-10.278Zm14.6.952V396a1.691,1.691,0,0,0-1.812-1.8h-9.876c-.42,0-.842-.005-1.263,0a1.631,1.631,0,0,0-1.559,1.169,7.315,7.315,0,0,0-.126,1.144ZM662.051,408.8h7.633a1.69,1.69,0,0,0,1.791-1.793v-7.268l-7.4-1.057Z" transform="translate(0 0)" fill="#707071"/>
    <path id="Tracé_12575" data-name="Tracé 12575" d="M670.123,401.858a3.349,3.349,0,0,1,2.618,5.385c-.685.947-1.414,1.863-2.126,2.79a.564.564,0,0,1-.959-.008c-.708-.923-1.418-1.844-2.119-2.773a3.339,3.339,0,0,1,2.014-5.327C669.745,401.886,669.945,401.878,670.123,401.858Zm.025,6.925c.021-.023.044-.047.064-.074.543-.711,1.091-1.418,1.628-2.133a2.257,2.257,0,0,0,.439-1.754,2.183,2.183,0,1,0-3.91,1.651c.545.787,1.157,1.529,1.739,2.291C670.115,408.773,670.129,408.774,670.149,408.783Z" transform="translate(-2.596 -2.057)" fill="#707071"/>
    <path id="Tracé_12576" data-name="Tracé 12576" d="M671.928,405.933a1.123,1.123,0,1,1-1.124-1.126A1.125,1.125,0,0,1,671.928,405.933Z" transform="translate(-3.262 -2.747)" fill="#707071"/>
  </g>
</svg>
