<svg xmlns="http://www.w3.org/2000/svg" width="14.971" height="14.857" viewBox="0 0 14.971 14.857">
  <g id="Select" transform="translate(-923.018 132.673)">
    <path id="Tracé_18859" data-name="Tracé 18859" d="M923.018-125.361c.019-.065.035-.131.057-.194a1.2,1.2,0,0,1,1.023-.863,1.2,1.2,0,0,1,1.206.552.234.234,0,0,1,.013.3.215.215,0,0,1-.366-.038.823.823,0,0,0-.566-.376.8.8,0,0,0-.879.52.8.8,0,0,0,.347.962.8.8,0,0,0,1.01-.162c.038-.044.069-.094.105-.14a.214.214,0,0,1,.3-.059.217.217,0,0,1,.059.309,1.184,1.184,0,0,1-.939.594,1.228,1.228,0,0,1-1.34-.986.6.6,0,0,0-.027-.065Z" fill="#707071"/>
    <path id="Tracé_18860" data-name="Tracé 18860" d="M932.843-122.869c.336.029.365.061.365.379,0,.37,0,.74,0,1.111,0,.2-.074.273-.276.273q-1.1,0-2.192,0c-.043,0-.1.007-.127-.017a.5.5,0,0,1-.142-.211.173.173,0,0,1,.155-.2.84.84,0,0,1,.174-.011h1.961v-.868h-3.752v.868h.5a1.462,1.462,0,0,1,.175,0,.2.2,0,0,1,.189.2c0,.118-.055.213-.172.217-.321.011-.642.009-.963,0a.177.177,0,0,1-.169-.19q-.008-.672,0-1.344a.2.2,0,0,1,.206-.206l.127-.011a.937.937,0,0,0-.356-.458,2.086,2.086,0,0,1-.9-1.831c0-.195,0-.39,0-.585a.909.909,0,0,1,.894-.958l.095-.009v-.154c0-.556,0-1.111,0-1.666a.765.765,0,0,1,.674-.745.769.769,0,0,1,.827.531,1.181,1.181,0,0,1,.042.331c.005.364,0,.728,0,1.1a.812.812,0,0,1,1.012.376.8.8,0,0,1,1.109.32,2.653,2.653,0,0,1,.5-.022.69.69,0,0,1,.591.638c.02.569.011,1.139-.007,1.708a1.544,1.544,0,0,1-.311.823A1.214,1.214,0,0,0,932.843-122.869Zm-.448.01a1.89,1.89,0,0,1,.339-.9,1.307,1.307,0,0,0,.225-.758v-.5c0-.287,0-.575,0-.862a.311.311,0,0,0-.311-.334c-.163,0-.27.131-.274.329,0,.02,0,.039,0,.059a.227.227,0,0,1-.218.244.224.224,0,0,1-.219-.242c0-.141,0-.283,0-.424a.329.329,0,0,0-.336-.346.328.328,0,0,0-.333.348c0,.146.005.293,0,.439a.208.208,0,0,1-.305.2.331.331,0,0,1-.126-.223c-.016-.242,0-.487-.008-.73a.326.326,0,0,0-.337-.358c-.188,0-.3.13-.31.348,0,.146,0,.293,0,.439,0,.107,0,.215,0,.321a.215.215,0,0,1-.219.225.214.214,0,0,1-.216-.227c0-.048,0-.1,0-.146q0-1.25,0-2.5a.343.343,0,0,0-.336-.381c-.2,0-.33.147-.333.379,0,.043,0,.087,0,.131q0,1.593,0,3.187c0,.21-.074.311-.223.31s-.215-.1-.215-.3c0-.321,0-.643,0-.964v-.15a.473.473,0,0,0-.551.467c0,.229,0,.458,0,.687a1.635,1.635,0,0,0,.716,1.41,1.381,1.381,0,0,1,.529.7.157.157,0,0,0,.185.128c.911,0,1.823,0,2.734,0Z" fill="#707071"/>
    <path id="Tracé_18861" data-name="Tracé 18861" d="M936.75-123.953a1.24,1.24,0,0,1-1.246-1.239,1.25,1.25,0,0,1,1.246-1.244,1.25,1.25,0,0,1,1.239,1.237A1.24,1.24,0,0,1,936.75-123.953Zm-.01-.438a.8.8,0,0,0,.81-.8.808.808,0,0,0-.8-.8.808.808,0,0,0-.81.806A.8.8,0,0,0,936.74-124.391Z" fill="#707071"/>
    <path id="Tracé_18862" data-name="Tracé 18862" d="M931.744-131.415a1.245,1.245,0,0,1-1.268,1.224,1.246,1.246,0,0,1-1.213-1.263,1.236,1.236,0,0,1,1.282-1.219A1.237,1.237,0,0,1,931.744-131.415Zm-1.235-.821a.8.8,0,0,0-.808.8.808.808,0,0,0,.8.8.808.808,0,0,0,.808-.808A.8.8,0,0,0,930.509-132.236Z" fill="#707071"/>
    <path id="Tracé_18863" data-name="Tracé 18863" d="M927.329-129.592a1.247,1.247,0,0,1-1.248,1.244,1.247,1.247,0,0,1-1.233-1.244,1.237,1.237,0,0,1,1.247-1.24A1.238,1.238,0,0,1,927.329-129.592Zm-.439-.008a.8.8,0,0,0-.816-.794.8.8,0,0,0-.788.809.807.807,0,0,0,.8.8A.807.807,0,0,0,926.89-129.6Z" fill="#707071"/>
    <path id="Tracé_18864" data-name="Tracé 18864" d="M924.848-120.73a1.238,1.238,0,0,1,1.231-1.243,1.238,1.238,0,0,1,1.25,1.238,1.246,1.246,0,0,1-1.231,1.246A1.245,1.245,0,0,1,924.848-120.73Zm1.242-.8a.8.8,0,0,0-.8.806.807.807,0,0,0,.8.8.807.807,0,0,0,.8-.811A.8.8,0,0,0,926.09-121.534Z" fill="#707071"/>
    <path id="Tracé_18865" data-name="Tracé 18865" d="M934.987-121.973a1.239,1.239,0,0,1,1.231,1.243,1.246,1.246,0,0,1-1.251,1.241,1.245,1.245,0,0,1-1.23-1.246A1.238,1.238,0,0,1,934.987-121.973Zm-.012.439a.8.8,0,0,0-.8.8.807.807,0,0,0,.8.81.807.807,0,0,0,.8-.8A.8.8,0,0,0,934.975-121.534Z" fill="#707071"/>
    <path id="Tracé_18866" data-name="Tracé 18866" d="M933.737-129.6a1.239,1.239,0,0,1,1.006-1.212c.165-.032.278.028.3.165s-.049.222-.21.26a.8.8,0,0,0-.623,1.039.764.764,0,0,0,.686.552.75.75,0,0,0,.747-.361.772.772,0,0,0,.013-.857c-.117-.2-.119-.312.006-.392s.252-.026.371.169a1.241,1.241,0,0,1-.1,1.433,1.239,1.239,0,0,1-1.372.379A1.235,1.235,0,0,1,933.737-129.6Z" fill="#707071"/>
    <path id="Tracé_18867" data-name="Tracé 18867" d="M930.514-120.189a1.241,1.241,0,0,1,1.175.869,1.246,1.246,0,0,1-.445,1.367c-.129.094-.241.094-.328,0s-.076-.239.063-.35a.786.786,0,0,0,.3-.857.786.786,0,0,0-.747-.591.794.794,0,0,0-.794.568.8.8,0,0,0,.32.9c.024.017.051.03.075.046.137.086.176.2.107.318s-.189.134-.333.057a1.233,1.233,0,0,1-.6-1.393A1.235,1.235,0,0,1,930.514-120.189Z" fill="#707071"/>
    <path id="Tracé_18868" data-name="Tracé 18868" d="M930.509-132.236a.8.8,0,0,1,.8.8.808.808,0,0,1-.808.808.808.808,0,0,1-.8-.8A.8.8,0,0,1,930.509-132.236Z" fill="#ade2dc"/>
  </g>
</svg>
