<svg xmlns="http://www.w3.org/2000/svg" width="16.849" height="11.075" viewBox="0 0 16.849 11.075">
  <g id="Vitesse" transform="translate(-304.268 -441.518)">
    <path id="Tracé_18849" data-name="Tracé 18849" d="M304.268,450.509c.043-.319.083-.638.131-.955.053-.35.057-.35.4-.26.085.022.168.049.254.066.14.028.166.1.13.236a9.765,9.765,0,0,0-.283,1.227c-.065.519-.066,1.046-.092,1.569-.005.084.032.19-.1.2-.258.012-.3,0-.311-.153-.025-.234-.059-.466-.09-.7-.008-.059-.021-.116-.031-.174Z" fill="#707071"/>
    <path id="Tracé_18850" data-name="Tracé 18850" d="M311.747,452.5a1.364,1.364,0,0,1-1.206-2.014c.467-.947.928-1.9,1.392-2.847l2.871-5.873c.015-.03.03-.059.044-.088a.22.22,0,0,1,.294-.139.224.224,0,0,1,.133.3q-.18.775-.357,1.552-.916,3.977-1.832,7.954A1.373,1.373,0,0,1,311.747,452.5Zm.041-.729a.663.663,0,1,0-.671-.666A.667.667,0,0,0,311.788,451.767Z" fill="#55aaa0"/>
    <path id="Tracé_18851" data-name="Tracé 18851" d="M317.511,449.2a.863.863,0,0,1-.1-.169,5.432,5.432,0,0,0-.7-1.444c-.248-.352-.53-.682-.809-1.012-.084-.1-.1-.161-.012-.263q.706-.844,1.4-1.7c.09-.11.16-.115.271-.029a9.173,9.173,0,0,1,2.655,3.339c.054.112.044.177-.082.227q-1.257.5-2.512,1.009C317.6,449.168,317.573,449.176,317.511,449.2Z" fill="#707071"/>
    <path id="Tracé_18852" data-name="Tracé 18852" d="M317.6,452.587c.045-.581.106-1.147.124-1.714a5.862,5.862,0,0,0-.087-.931c-.019-.142,0-.217.158-.26q1.314-.365,2.621-.748c.149-.043.213-.008.26.143a9.993,9.993,0,0,1,.441,3.308c0,.123-.02.209-.179.208-1.1,0-2.205,0-3.307,0C317.6,452.59,317.583,452.585,317.6,452.587Z" fill="#707071"/>
    <path id="Tracé_18853" data-name="Tracé 18853" d="M311.633,443.815c.015.257.028.514.047.771.009.121-.037.166-.159.166a6.261,6.261,0,0,0-3.062.809.147.147,0,0,1-.231-.053q-.309-.467-.628-.924c-.073-.105-.054-.171.048-.245a8.075,8.075,0,0,1,3.761-1.486c.113-.014.162.029.168.142C311.592,443.268,311.614,443.542,311.633,443.815Z" fill="#707071"/>
    <path id="Tracé_18854" data-name="Tracé 18854" d="M304.678,448.434c.059-.164.1-.293.152-.421a8.263,8.263,0,0,1,1.92-2.91c.159-.156.173-.155.317.015.206.241.409.486.619.723.087.1.076.163-.026.24a7.072,7.072,0,0,0-2.108,2.584c-.047.1-.105.133-.207.092-.183-.072-.369-.139-.549-.217A.464.464,0,0,1,304.678,448.434Z" fill="#707071"/>
    <path id="Tracé_18855" data-name="Tracé 18855" d="M315.386,443.32c.427.216.821.415,1.214.616.086.043.1.11.042.19q-.6.918-1.207,1.838c-.054.083-.116.085-.192.028-.11-.081-.226-.155-.333-.24a.149.149,0,0,1-.052-.116C315.027,444.881,315.2,444.126,315.386,443.32Z" fill="#707071"/>
    <path id="Tracé_18856" data-name="Tracé 18856" d="M312.789,444.874l-.286-.051c-.222-.037-.222-.037-.212-.268.024-.53.049-1.061.072-1.591,0-.089.016-.172.13-.166.413.024.826.052,1.272.08Z" fill="#707071"/>
  </g>
</svg>
